<svg width="57" height="61" viewBox="0 0 57 61" fill="none" xmlns="http://www.w3.org/2000/svg">
<path d="M56.4553 22.8318C56.695 24.0356 56.8582 25.2667 56.9397 26.52L56.4407 26.5525C56.48 27.1572 56.5 27.7672 56.5 28.3819C56.5 28.9967 56.48 29.6067 56.4407 30.2114L56.9397 30.2438C56.8582 31.4972 56.695 32.7283 56.4553 33.9321L55.965 33.8345C55.7248 35.0407 55.4065 36.219 55.0156 37.3638L55.4888 37.5254C55.0853 38.7067 54.6059 39.8531 54.0562 40.9587L53.6085 40.7361C53.0638 41.8316 52.449 42.8864 51.7697 43.8946L52.1844 44.174C51.4898 45.205 50.7292 46.1882 49.9085 47.1175L49.5337 46.7865C48.7266 47.7005 47.8603 48.5614 46.9408 49.3634L47.2695 49.7402C46.3357 50.5547 45.3479 51.3095 44.3124 51.9985L44.0354 51.5822C43.0237 52.2554 41.9654 52.8646 40.8666 53.4042L41.0869 53.853C39.9791 54.3969 38.8307 54.8713 37.6474 55.2704L37.4876 54.7966C36.3414 55.1832 35.162 55.4979 33.9546 55.7352L34.0511 56.2258C32.8469 56.4626 31.6154 56.6238 30.3619 56.7043L30.3299 56.2053C29.725 56.2442 29.1149 56.2639 28.5 56.2639C27.8851 56.2639 27.275 56.2442 26.6701 56.2053L26.6381 56.7043C25.3846 56.6238 24.1531 56.4626 22.9489 56.2258L23.0454 55.7352C21.838 55.4979 20.6585 55.1832 19.5124 54.7966L19.3526 55.2704C18.1693 54.8713 17.0209 54.3969 15.9131 53.853L16.1334 53.4042C15.0346 52.8646 13.9763 52.2554 12.9646 51.5822L12.6876 51.9985C11.6521 51.3095 10.6643 50.5547 9.73052 49.7402L10.0592 49.3634C9.13973 48.5614 8.27345 47.7005 7.4663 46.7865L7.09153 47.1175C6.27082 46.1882 5.51017 45.205 4.8156 44.174L5.23028 43.8946C4.55104 42.8864 3.93618 41.8316 3.39154 40.7361L2.94382 40.9587C2.39415 39.8531 1.91469 38.7067 1.51125 37.5254L1.98442 37.3638C1.59346 36.219 1.27518 35.0407 1.03505 33.8345L0.544669 33.9321C0.305037 32.7283 0.141847 31.4972 0.0603465 30.2438L0.559293 30.2114C0.519971 29.6067 0.5 28.9967 0.5 28.3819C0.5 27.7672 0.519971 27.1572 0.559293 26.5525L0.0603464 26.5201C0.141846 25.2667 0.305037 24.0356 0.544668 22.8318L1.03505 22.9294C1.27518 21.7231 1.59346 20.5449 1.98442 19.4001L1.51125 19.2385C1.91469 18.0572 2.39415 16.9108 2.94382 15.8052L3.39154 16.0278C3.93618 14.9323 4.55104 13.8775 5.23028 12.8692L4.8156 12.5899C5.51017 11.5588 6.27082 10.5757 7.09153 9.64637L7.4663 9.97735C8.27345 9.06339 9.13973 8.20245 10.0592 7.40048L9.73052 7.02367C10.6643 6.20916 11.6521 5.4544 12.6876 4.7654L12.9646 5.18168C13.9763 4.50852 15.0346 3.89928 16.1334 3.35972L15.9131 2.9109C17.0209 2.36695 18.1693 1.89256 19.3526 1.49347L19.5124 1.96724C20.6585 1.58069 21.838 1.26603 23.0454 1.02866L22.9489 0.538049C24.1531 0.301305 25.3846 0.140101 26.6381 0.0595998L26.6701 0.558572C27.275 0.519727 27.8851 0.5 28.5 0.5C29.1149 0.5 29.725 0.519727 30.3299 0.558572L30.3619 0.0595997C31.6154 0.140101 32.8469 0.301305 34.0511 0.538049L33.9546 1.02866C35.162 1.26603 36.3415 1.58069 37.4876 1.96725L37.6474 1.49347C38.8307 1.89256 39.9791 2.36695 41.0869 2.91091L40.8666 3.35972C41.9654 3.89928 43.0237 4.50853 44.0354 5.18169L44.3124 4.76541C45.3479 5.4544 46.3357 6.20916 47.2695 7.02367L46.9408 7.40048C47.8603 8.20246 48.7266 9.06339 49.5337 9.97735L49.9085 9.64637C50.7292 10.5757 51.4898 11.5589 52.1844 12.5899L51.7697 12.8692C52.449 13.8775 53.0638 14.9323 53.6085 16.0278L54.0562 15.8052C54.6059 16.9108 55.0853 18.0572 55.4888 19.2385L55.0156 19.4001C55.4065 20.5449 55.7248 21.7231 55.965 22.9294L56.4553 22.8318Z" stroke="#FA9160" stroke-opacity="0.3" stroke-dasharray="4 4"/>
<g opacity="0.7">
<path opacity="0.7" d="M46.9851 31.8853L29.3047 27.6204V61L46.9851 56.3643V31.8853Z" fill="url(#paint0_linear)"/>
<g opacity="0.1">
<path opacity="0.1" d="M46.9851 31.8853L29.3047 27.6204V61L46.9851 56.3643V31.8853Z" fill="url(#paint1_linear)"/>
</g>
<path opacity="0.7" d="M11.623 31.8853L29.3042 27.6204V61L11.623 56.4565V31.8853Z" fill="url(#paint2_linear)"/>
<g opacity="0.17">
<path opacity="0.17" d="M11.623 31.8853L29.3042 27.6204V61L11.623 56.4565V31.8853Z" fill="url(#paint3_linear)"/>
</g>
<path opacity="0.7" d="M29.3047 27.6204L38.4688 20.0174L56.1492 24.5609L46.9851 31.8853L29.3047 27.6204Z" fill="url(#paint4_linear)"/>
<path opacity="0.7" d="M2.55176 24.6531L11.6231 31.8853L29.3043 27.6204L20.3249 20.0174L2.55176 24.6531Z" fill="url(#paint5_linear)"/>
<g opacity="0.05">
<path opacity="0.05" d="M2.55176 24.6531L11.6231 31.8853L29.3043 27.6204L20.3249 20.0174L2.55176 24.6531Z" fill="url(#paint6_linear)"/>
</g>
<g opacity="0.5">
<path opacity="0.5" d="M28.9851 23.7622H16.519C16.3375 23.7622 16.1904 23.9096 16.1904 24.0913V35.5614C16.1904 35.7432 16.3375 35.8905 16.519 35.8905H28.9851C29.1666 35.8905 29.3137 35.7432 29.3137 35.5614V24.0913C29.3137 23.9096 29.1666 23.7622 28.9851 23.7622Z" fill="url(#paint7_linear)"/>
</g>
<path opacity="0.7" d="M28.8429 23.8558H16.6792C16.4977 23.8558 16.3506 24.0032 16.3506 24.185V35.361C16.3506 35.5428 16.4977 35.6901 16.6792 35.6901H28.8429C29.0244 35.6901 29.1715 35.5428 29.1715 35.361V24.185C29.1715 24.0032 29.0244 23.8558 28.8429 23.8558Z" fill="url(#paint8_linear)"/>
<path opacity="0.7" d="M19.1714 25.805H17.6665C17.485 25.805 17.3379 25.9524 17.3379 26.1342V27.4251C17.3379 27.6069 17.485 27.7543 17.6665 27.7543H19.1714C19.3529 27.7543 19.5 27.6069 19.5 27.4251V26.1342C19.5 25.9524 19.3529 25.805 19.1714 25.805Z" fill="url(#paint9_linear)"/>
<path opacity="0.7" d="M28.6853 25.805H20.2069C20.1746 25.805 20.1484 25.8312 20.1484 25.8636V25.963C20.1484 25.9953 20.1746 26.0215 20.2069 26.0215H28.6853C28.7175 26.0215 28.7437 25.9953 28.7437 25.963V25.8636C28.7437 25.8312 28.7175 25.805 28.6853 25.805Z" fill="url(#paint10_linear)"/>
<path opacity="0.7" d="M28.6853 26.4545H20.2069C20.1746 26.4545 20.1484 26.4807 20.1484 26.5131V26.6125C20.1484 26.6448 20.1746 26.671 20.2069 26.671H28.6853C28.7175 26.671 28.7437 26.6448 28.7437 26.6125V26.5131C28.7437 26.4807 28.7175 26.4545 28.6853 26.4545Z" fill="url(#paint11_linear)"/>
<path opacity="0.7" d="M28.6856 28.8134H17.1805C17.1482 28.8134 17.1221 28.8396 17.1221 28.8719V28.9714C17.1221 29.0037 17.1482 29.0299 17.1805 29.0299H28.6856C28.7179 29.0299 28.744 29.0037 28.744 28.9714V28.8719C28.744 28.8396 28.7179 28.8134 28.6856 28.8134Z" fill="url(#paint12_linear)"/>
<path opacity="0.7" d="M28.6856 29.4628H17.1805C17.1482 29.4628 17.1221 29.489 17.1221 29.5214V29.6208C17.1221 29.6531 17.1482 29.6793 17.1805 29.6793H28.6856C28.7179 29.6793 28.744 29.6531 28.744 29.6208V29.5214C28.744 29.489 28.7179 29.4628 28.6856 29.4628Z" fill="url(#paint13_linear)"/>
<path opacity="0.7" d="M28.6856 30.3288H17.1805C17.1482 30.3288 17.1221 30.355 17.1221 30.3874V30.4868C17.1221 30.5191 17.1482 30.5453 17.1805 30.5453H28.6856C28.7179 30.5453 28.744 30.5191 28.744 30.4868V30.3874C28.744 30.355 28.7179 30.3288 28.6856 30.3288Z" fill="url(#paint14_linear)"/>
<path opacity="0.7" d="M23.7662 30.9791H17.1805C17.1482 30.9791 17.1221 31.0053 17.1221 31.0376V31.1371C17.1221 31.1694 17.1482 31.1956 17.1805 31.1956H23.7662C23.7985 31.1956 23.8246 31.1694 23.8246 31.1371V31.0376C23.8246 31.0053 23.7985 30.9791 23.7662 30.9791Z" fill="url(#paint15_linear)"/>
<path opacity="0.7" d="M28.6856 31.8429H17.1805C17.1482 31.8429 17.1221 31.8691 17.1221 31.9014V32.0009C17.1221 32.0332 17.1482 32.0594 17.1805 32.0594H28.6856C28.7179 32.0594 28.744 32.0332 28.744 32.0009V31.9014C28.744 31.8691 28.7179 31.8429 28.6856 31.8429Z" fill="url(#paint16_linear)"/>
<path opacity="0.7" d="M28.6856 32.4924H17.1805C17.1482 32.4924 17.1221 32.5186 17.1221 32.5509V32.6504C17.1221 32.6827 17.1482 32.7089 17.1805 32.7089H28.6856C28.7179 32.7089 28.744 32.6827 28.744 32.6504V32.5509C28.744 32.5186 28.7179 32.4924 28.6856 32.4924Z" fill="url(#paint17_linear)"/>
<path opacity="0.7" d="M28.6856 33.3591H17.1805C17.1482 33.3591 17.1221 33.3853 17.1221 33.4176V33.5171C17.1221 33.5494 17.1482 33.5756 17.1805 33.5756H28.6856C28.7179 33.5756 28.744 33.5494 28.744 33.5171V33.4176C28.744 33.3853 28.7179 33.3591 28.6856 33.3591Z" fill="url(#paint18_linear)"/>
<path opacity="0.7" d="M23.7662 34.0086H17.1805C17.1482 34.0086 17.1221 34.0348 17.1221 34.0671V34.1666C17.1221 34.1989 17.1482 34.2251 17.1805 34.2251H23.7662C23.7985 34.2251 23.8246 34.1989 23.8246 34.1666V34.0671C23.8246 34.0348 23.7985 34.0086 23.7662 34.0086Z" fill="url(#paint19_linear)"/>
<g opacity="0.5">
<path opacity="0.5" d="M30.9655 26.5643H18.4995C18.318 26.5643 18.1709 26.7116 18.1709 26.8934V38.3634C18.1709 38.5452 18.318 38.6926 18.4995 38.6926H30.9655C31.147 38.6926 31.2941 38.5452 31.2941 38.3634V26.8934C31.2941 26.7116 31.147 26.5643 30.9655 26.5643Z" fill="url(#paint20_linear)"/>
</g>
<path opacity="0.7" d="M30.8234 26.6586H18.6596C18.4782 26.6586 18.3311 26.806 18.3311 26.9878V38.1638C18.3311 38.3455 18.4782 38.4929 18.6596 38.4929H30.8234C31.0049 38.4929 31.152 38.3455 31.152 38.1638V26.9878C31.152 26.806 31.0049 26.6586 30.8234 26.6586Z" fill="url(#paint21_linear)"/>
<path opacity="0.7" d="M21.1519 28.6078H19.647C19.4655 28.6078 19.3184 28.7552 19.3184 28.937V30.2279C19.3184 30.4097 19.4655 30.557 19.647 30.557H21.1519C21.3334 30.557 21.4805 30.4097 21.4805 30.2279V28.937C21.4805 28.7552 21.3334 28.6078 21.1519 28.6078Z" fill="url(#paint22_linear)"/>
<path opacity="0.7" d="M30.6667 28.6078H22.1883C22.156 28.6078 22.1299 28.634 22.1299 28.6663V28.7658C22.1299 28.7981 22.156 28.8243 22.1883 28.8243H30.6667C30.699 28.8243 30.7251 28.7981 30.7251 28.7658V28.6663C30.7251 28.634 30.699 28.6078 30.6667 28.6078Z" fill="url(#paint23_linear)"/>
<path opacity="0.7" d="M30.6667 29.2573H22.1883C22.156 29.2573 22.1299 29.2835 22.1299 29.3158V29.4153C22.1299 29.4476 22.156 29.4738 22.1883 29.4738H30.6667C30.699 29.4738 30.7251 29.4476 30.7251 29.4153V29.3158C30.7251 29.2835 30.699 29.2573 30.6667 29.2573Z" fill="url(#paint24_linear)"/>
<path opacity="0.7" d="M30.6661 31.6154H19.161C19.1287 31.6154 19.1025 31.6416 19.1025 31.6739V31.7734C19.1025 31.8057 19.1287 31.8319 19.161 31.8319H30.6661C30.6983 31.8319 30.7245 31.8057 30.7245 31.7734V31.6739C30.7245 31.6416 30.6983 31.6154 30.6661 31.6154Z" fill="url(#paint25_linear)"/>
<path opacity="0.7" d="M30.6661 32.2656H19.161C19.1287 32.2656 19.1025 32.2918 19.1025 32.3241V32.4236C19.1025 32.4559 19.1287 32.4821 19.161 32.4821H30.6661C30.6983 32.4821 30.7245 32.4559 30.7245 32.4236V32.3241C30.7245 32.2918 30.6983 32.2656 30.6661 32.2656Z" fill="url(#paint26_linear)"/>
<path opacity="0.7" d="M30.6661 33.1317H19.161C19.1287 33.1317 19.1025 33.1578 19.1025 33.1902V33.2896C19.1025 33.322 19.1287 33.3482 19.161 33.3482H30.6661C30.6983 33.3482 30.7245 33.322 30.7245 33.2896V33.1902C30.7245 33.1578 30.6983 33.1317 30.6661 33.1317Z" fill="url(#paint27_linear)"/>
<path opacity="0.7" d="M25.7467 33.7811H19.161C19.1287 33.7811 19.1025 33.8073 19.1025 33.8397V33.9391C19.1025 33.9714 19.1287 33.9976 19.161 33.9976H25.7467C25.7789 33.9976 25.8051 33.9714 25.8051 33.9391V33.8397C25.8051 33.8073 25.7789 33.7811 25.7467 33.7811Z" fill="url(#paint28_linear)"/>
<path opacity="0.7" d="M30.6661 34.6457H19.161C19.1287 34.6457 19.1025 34.6719 19.1025 34.7042V34.8036C19.1025 34.836 19.1287 34.8622 19.161 34.8622H30.6661C30.6983 34.8622 30.7245 34.836 30.7245 34.8036V34.7042C30.7245 34.6719 30.6983 34.6457 30.6661 34.6457Z" fill="url(#paint29_linear)"/>
<path opacity="0.7" d="M30.6661 35.2952H19.161C19.1287 35.2952 19.1025 35.3214 19.1025 35.3537V35.4532C19.1025 35.4855 19.1287 35.5117 19.161 35.5117H30.6661C30.6983 35.5117 30.7245 35.4855 30.7245 35.4532V35.3537C30.7245 35.3214 30.6983 35.2952 30.6661 35.2952Z" fill="url(#paint30_linear)"/>
<path opacity="0.7" d="M30.6661 36.1619H19.161C19.1287 36.1619 19.1025 36.1881 19.1025 36.2204V36.3199C19.1025 36.3522 19.1287 36.3784 19.161 36.3784H30.6661C30.6983 36.3784 30.7245 36.3522 30.7245 36.3199V36.2204C30.7245 36.1881 30.6983 36.1619 30.6661 36.1619Z" fill="url(#paint31_linear)"/>
<path opacity="0.7" d="M25.7467 36.8114H19.161C19.1287 36.8114 19.1025 36.8376 19.1025 36.8699V36.9694C19.1025 37.0017 19.1287 37.0279 19.161 37.0279H25.7467C25.7789 37.0279 25.8051 37.0017 25.8051 36.9694V36.8699C25.8051 36.8376 25.7789 36.8114 25.7467 36.8114Z" fill="url(#paint32_linear)"/>
<g opacity="0.5">
<path opacity="0.5" d="M37.1735 28.1339H25.8027V41.5159H37.1735V28.1339Z" fill="url(#paint33_linear)"/>
</g>
<path opacity="0.7" d="M36.9306 28.3497H26.1514V41.2204H36.9306V28.3497Z" fill="url(#paint34_linear)"/>
<g opacity="0.5">
<path opacity="0.5" d="M32.1282 30.3961V30.0729H30.9562V30.3961H30.1318V31.9841H32.9504V30.3961H32.1282ZM31.1023 30.1892H31.9785V30.3947H31.1023V30.1892Z" fill="url(#paint35_linear)"/>
</g>
<path opacity="0.7" d="M32.8325 30.4495H30.252V31.9036H32.8325V30.4495Z" fill="url(#paint36_linear)"/>
<path opacity="0.7" d="M31.0049 30.1533V30.5307H31.1392V30.2616H31.9454V30.5307H32.0797V30.1533H31.0049Z" fill="url(#paint37_linear)"/>
<path opacity="0.7" d="M35.3449 33.9962H27.7646V34.3194H35.3449V33.9962Z" fill="url(#paint38_linear)"/>
<path opacity="0.7" d="M35.3449 36.1231H27.7646V36.4464H35.3449V36.1231Z" fill="url(#paint39_linear)"/>
<path opacity="0.7" d="M35.3449 36.6885H27.7646V37.0118H35.3449V36.6885Z" fill="url(#paint40_linear)"/>
<path opacity="0.7" d="M30.9637 35.5577H27.7646V35.881H30.9637V35.5577Z" fill="url(#paint41_linear)"/>
<g opacity="0.6">
<path opacity="0.6" d="M35.3453 35.5577H32.9531V35.881H35.3453V35.5577Z" fill="url(#paint42_linear)"/>
</g>
<path opacity="0.7" d="M32.8179 38.008H30.4258V38.3312H32.8179V38.008Z" fill="url(#paint43_linear)"/>
<path opacity="0.7" d="M11.623 31.8853V56.4564L29.3042 61V36.6146L11.623 31.8853Z" fill="url(#paint44_linear)"/>
<path opacity="0.7" d="M46.9851 56.3643L29.3047 61V36.6146L46.9851 31.8853V56.3643Z" fill="url(#paint45_linear)"/>
<g opacity="0.07">
<path opacity="0.07" d="M46.9851 56.3643L29.3047 61V36.6146L46.9851 31.8853V56.3643Z" fill="url(#paint46_linear)"/>
</g>
<g opacity="0.07">
<path opacity="0.07" d="M39.9492 48.2046V56.2714L46.9847 54.3244V46.2576L39.9492 48.2046Z" fill="url(#paint47_linear)"/>
</g>
<path opacity="0.7" d="M42.9459 29.8359H37.7314V34.8541H42.9459V29.8359Z" fill="url(#paint48_linear)"/>
<path opacity="0.7" d="M42.8643 29.9588H37.8135V34.7517H42.8643V29.9588Z" fill="url(#paint49_linear)"/>
<g opacity="0.5">
<path opacity="0.5" d="M40.7854 30.7991V30.5548H39.8924V30.8006H39.2666V32.0089H41.4112V30.7991H40.7854ZM40.0041 30.6426H40.6744V30.7991H40.0041V30.6426Z" fill="url(#paint50_linear)"/>
</g>
<g opacity="0.6">
<path opacity="0.6" d="M41.3202 30.8401H39.3574V31.946H41.3202V30.8401Z" fill="url(#paint51_linear)"/>
</g>
<g opacity="0.6">
<path opacity="0.6" d="M39.9297 30.6141V30.9016H40.0326V30.6968H40.646V30.9016H40.7483V30.6141H39.9297Z" fill="url(#paint52_linear)"/>
</g>
<g opacity="0.6">
<path opacity="0.6" d="M41.2894 32.8061H39.4697V33.0519H41.2894V32.8061Z" fill="url(#paint53_linear)"/>
</g>
<path opacity="0.7" d="M41.8927 33.2567H38.7842V33.5025H41.8927V33.2567Z" fill="url(#paint54_linear)"/>
<g opacity="0.5">
<path opacity="0.5" d="M32.126 14.4959H25.3701V20.0547H32.126V14.4959Z" fill="url(#paint55_linear)"/>
</g>
<path opacity="0.7" d="M32.0349 14.6012H25.4492V19.9625H32.0349V14.6012Z" fill="url(#paint56_linear)"/>
<path opacity="0.7" d="M32.0349 14.6012H25.4492V15.7971H32.0349V14.6012Z" fill="url(#paint57_linear)"/>
<g opacity="0.1">
<path opacity="0.1" d="M32.0349 14.6012H25.4492V15.7971H32.0349V14.6012Z" fill="url(#paint58_linear)"/>
</g>
<path opacity="0.7" d="M31.51 16.2308H25.9736V16.9271H31.51V16.2308Z" fill="url(#paint59_linear)"/>
<path opacity="0.7" d="M30.0146 17.453H25.9736V17.6892H30.0146V17.453Z" fill="url(#paint60_linear)"/>
<path opacity="0.7" d="M28.5973 17.8604H25.9736V18.0967H28.5973V17.8604Z" fill="url(#paint61_linear)"/>
<path opacity="0.7" d="M29.437 18.2678H25.9736V18.5041H29.437V18.2678Z" fill="url(#paint62_linear)"/>
<path opacity="0.7" d="M30.0146 18.6745H25.9736V18.9107H30.0146V18.6745Z" fill="url(#paint63_linear)"/>
<path opacity="0.7" d="M27.3245 19.0819H25.9736V19.3181H27.3245V19.0819Z" fill="url(#paint64_linear)"/>
<g opacity="0.5">
<path opacity="0.5" d="M43.6767 18.6701H35.3027V25.5593H43.6767V18.6701Z" fill="url(#paint65_linear)"/>
</g>
<path opacity="0.7" d="M43.5634 18.8003H35.4004V25.4452H43.5634V18.8003Z" fill="url(#paint66_linear)"/>
<path opacity="0.7" d="M43.5634 18.8003H35.4004V20.2821H43.5634V18.8003Z" fill="url(#paint67_linear)"/>
<path opacity="0.7" d="M42.9125 20.8197H36.0508V21.6828H42.9125V20.8197Z" fill="url(#paint68_linear)"/>
<path opacity="0.7" d="M41.0592 22.3345H36.0508V22.6278H41.0592V22.3345Z" fill="url(#paint69_linear)"/>
<path opacity="0.7" d="M39.3031 22.8392H36.0508V23.1325H39.3031V22.8392Z" fill="url(#paint70_linear)"/>
<path opacity="0.7" d="M40.3437 23.3446H36.0508V23.6379H40.3437V23.3446Z" fill="url(#paint71_linear)"/>
<path opacity="0.7" d="M41.0592 23.8492H36.0508V24.1425H41.0592V23.8492Z" fill="url(#paint72_linear)"/>
<path opacity="0.7" d="M37.7259 24.3539H36.0508V24.6472H37.7259V24.3539Z" fill="url(#paint73_linear)"/>
<path opacity="0.7" d="M38.3593 21.113H36.4082V21.3734H38.3593V21.113Z" fill="url(#paint74_linear)"/>
<g opacity="0.1">
<path opacity="0.1" d="M11.3926 44.6346L21.2971 47.1382L29.2578 40.6477V36.6607L11.5773 32.2101L11.3926 44.6346Z" fill="url(#paint75_linear)"/>
</g>
<g opacity="0.1">
<path opacity="0.1" d="M47.1237 44.6346L37.2185 47.1382L29.2578 40.6477V36.6607L46.9383 32.2101L47.1237 44.6346Z" fill="url(#paint76_linear)"/>
</g>
<path opacity="0.7" d="M11.6231 31.8853L2.55176 39.3962L20.2322 43.8468L29.3043 36.6146L11.6231 31.8853Z" fill="url(#paint77_linear)"/>
<path opacity="0.7" d="M46.9851 31.8853L56.1492 39.3962L38.5615 43.8468L29.3047 36.6146L46.9851 31.8853Z" fill="url(#paint78_linear)"/>
<g opacity="0.07">
<path opacity="0.07" d="M46.9851 31.8853L56.1492 39.3962L38.5615 43.8468L29.3047 36.6146L46.9851 31.8853Z" fill="url(#paint79_linear)"/>
</g>
</g>
<path d="M47.0176 31.66L29.4883 27.431V60.5253L47.0176 55.9291V31.66Z" fill="#FF9463"/>
<path opacity="0.1" d="M47.0176 31.66L29.4883 27.431V60.5253L47.0176 55.9291V31.66Z" fill="#BB643D"/>
<path d="M11.96 31.66L29.4885 27.431V60.5253L11.96 56.0205V31.66Z" fill="#FF9463"/>
<path opacity="0.17" d="M11.96 31.5137L29.4885 27.2847V60.5253L11.96 56.0205V31.5137Z" fill="#0D0603"/>
<path d="M29.3418 27.5772L38.5738 19.893L56.1031 24.3978L46.8711 31.8063L29.3418 27.5772Z" fill="#FF9463"/>
<path d="M3.11133 24.6355L12.1053 31.8063L29.6338 27.5773L20.7319 20.0393L3.11133 24.6355Z" fill="#FF9463"/>
<path opacity="0.05" d="M2.96582 24.4892L12.1788 31.8063L29.7074 27.5772L20.5864 19.893L2.96582 24.4892Z" fill="#BB643D"/>
<g opacity="0.5">
<path opacity="0.5" d="M29.1695 23.6057H16.8159C16.6344 23.6057 16.4873 23.7531 16.4873 23.9348V35.301C16.4873 35.4828 16.6344 35.6302 16.8159 35.6302H29.1695C29.351 35.6302 29.4981 35.4828 29.4981 35.301V23.9348C29.4981 23.7531 29.351 23.6057 29.1695 23.6057Z" fill="url(#paint80_linear)"/>
</g>
<path d="M29.0286 23.6993H16.9751C16.7936 23.6993 16.6465 23.8467 16.6465 24.0284V35.1028C16.6465 35.2846 16.7936 35.4319 16.9751 35.4319H29.0286C29.21 35.4319 29.3572 35.2846 29.3572 35.1028V24.0284C29.3572 23.8467 29.21 23.6993 29.0286 23.6993Z" fill="#F5F5F5"/>
<path d="M19.4403 25.6317H17.9536C17.7721 25.6317 17.625 25.7791 17.625 25.9609V27.235C17.625 27.4168 17.7721 27.5641 17.9536 27.5641H19.4403C19.6218 27.5641 19.7689 27.4168 19.7689 27.235V25.9609C19.7689 25.7791 19.6218 25.6317 19.4403 25.6317Z" fill="#0F66A9"/>
<path d="M28.8752 25.6317H20.4705C20.4383 25.6317 20.4121 25.6579 20.4121 25.6902V25.7882C20.4121 25.8205 20.4383 25.8467 20.4705 25.8467H28.8752C28.9074 25.8467 28.9336 25.8205 28.9336 25.7882V25.6902C28.9336 25.6579 28.9074 25.6317 28.8752 25.6317Z" fill="#E0E0E0"/>
<path d="M28.8752 26.2753H20.4705C20.4383 26.2753 20.4121 26.3015 20.4121 26.3339V26.4319C20.4121 26.4642 20.4383 26.4904 20.4705 26.4904H28.8752C28.9074 26.4904 28.9336 26.4642 28.9336 26.4319V26.3339C28.9336 26.3015 28.9074 26.2753 28.8752 26.2753Z" fill="#E0E0E0"/>
<path d="M28.8753 28.6137H17.4695C17.4373 28.6137 17.4111 28.6399 17.4111 28.6722V28.7702C17.4111 28.8025 17.4373 28.8287 17.4695 28.8287H28.8753C28.9076 28.8287 28.9338 28.8025 28.9338 28.7702V28.6722C28.9338 28.6399 28.9076 28.6137 28.8753 28.6137Z" fill="#E0E0E0"/>
<path d="M28.8753 29.2581H17.4695C17.4373 29.2581 17.4111 29.2843 17.4111 29.3166V29.4146C17.4111 29.4469 17.4373 29.4731 17.4695 29.4731H28.8753C28.9076 29.4731 28.9338 29.4469 28.9338 29.4146V29.3166C28.9338 29.2843 28.9076 29.2581 28.8753 29.2581Z" fill="#E0E0E0"/>
<path d="M28.8753 30.1167H17.4695C17.4373 30.1167 17.4111 30.1429 17.4111 30.1753V30.2733C17.4111 30.3056 17.4373 30.3318 17.4695 30.3318H28.8753C28.9076 30.3318 28.9338 30.3056 28.9338 30.2733V30.1753C28.9338 30.1429 28.9076 30.1167 28.8753 30.1167Z" fill="#E0E0E0"/>
<path d="M23.9983 30.7611H17.4695C17.4373 30.7611 17.4111 30.7873 17.4111 30.8196V30.9176C17.4111 30.9499 17.4373 30.9761 17.4695 30.9761H23.9983C24.0306 30.9761 24.0567 30.9499 24.0567 30.9176V30.8196C24.0567 30.7873 24.0306 30.7611 23.9983 30.7611Z" fill="#E0E0E0"/>
<path d="M28.8753 31.6176H17.4695C17.4373 31.6176 17.4111 31.6438 17.4111 31.6761V31.7741C17.4111 31.8064 17.4373 31.8326 17.4695 31.8326H28.8753C28.9076 31.8326 28.9338 31.8064 28.9338 31.7741V31.6761C28.9338 31.6438 28.9076 31.6176 28.8753 31.6176Z" fill="#E0E0E0"/>
<path d="M28.8753 32.262H17.4695C17.4373 32.262 17.4111 32.2882 17.4111 32.3205V32.4185C17.4111 32.4508 17.4373 32.477 17.4695 32.477H28.8753C28.9076 32.477 28.9338 32.4508 28.9338 32.4185V32.3205C28.9338 32.2882 28.9076 32.262 28.8753 32.262Z" fill="#E0E0E0"/>
<path d="M28.8753 33.1207H17.4695C17.4373 33.1207 17.4111 33.1469 17.4111 33.1792V33.2772C17.4111 33.3095 17.4373 33.3357 17.4695 33.3357H28.8753C28.9076 33.3357 28.9338 33.3095 28.9338 33.2772V33.1792C28.9338 33.1469 28.9076 33.1207 28.8753 33.1207Z" fill="#E0E0E0"/>
<path d="M23.9983 33.765H17.4695C17.4373 33.765 17.4111 33.7912 17.4111 33.8235V33.9216C17.4111 33.9539 17.4373 33.9801 17.4695 33.9801H23.9983C24.0306 33.9801 24.0567 33.9539 24.0567 33.9216V33.8235C24.0567 33.7912 24.0306 33.765 23.9983 33.765Z" fill="#E0E0E0"/>
<g opacity="0.5">
<path opacity="0.5" d="M31.1324 26.3843H18.7788C18.5973 26.3843 18.4502 26.5317 18.4502 26.7135V38.0797C18.4502 38.2614 18.5973 38.4088 18.7788 38.4088H31.1324C31.3139 38.4088 31.461 38.2614 31.461 38.0797V26.7135C31.461 26.5317 31.3139 26.3843 31.1324 26.3843Z" fill="url(#paint81_linear)"/>
</g>
<path d="M30.9915 26.4779H18.938C18.7565 26.4779 18.6094 26.6253 18.6094 26.8071V37.8814C18.6094 38.0632 18.7565 38.2106 18.938 38.2106H30.9915C31.1729 38.2106 31.32 38.0632 31.32 37.8814V26.8071C31.32 26.6253 31.1729 26.4779 30.9915 26.4779Z" fill="white"/>
<path d="M21.4042 28.4103H19.9175C19.736 28.4103 19.5889 28.5577 19.5889 28.7395V30.0136C19.5889 30.1954 19.736 30.3427 19.9175 30.3427H21.4042C21.5856 30.3427 21.7327 30.1954 21.7327 30.0136V28.7395C21.7327 28.5577 21.5856 28.4103 21.4042 28.4103Z" fill="#0F66A9"/>
<path d="M30.839 28.4103H22.4344C22.4021 28.4103 22.376 28.4365 22.376 28.4689V28.5669C22.376 28.5992 22.4021 28.6254 22.4344 28.6254H30.839C30.8713 28.6254 30.8975 28.5992 30.8975 28.5669V28.4689C30.8975 28.4365 30.8713 28.4103 30.839 28.4103Z" fill="#E0E0E0"/>
<path d="M30.839 29.054H22.4344C22.4021 29.054 22.376 29.0802 22.376 29.1125V29.2105C22.376 29.2429 22.4021 29.2691 22.4344 29.2691H30.839C30.8713 29.2691 30.8975 29.2429 30.8975 29.2105V29.1125C30.8975 29.0802 30.8713 29.054 30.839 29.054Z" fill="#E0E0E0"/>
<path d="M30.8392 31.3923H19.4334C19.4012 31.3923 19.375 31.4185 19.375 31.4508V31.5488C19.375 31.5811 19.4012 31.6073 19.4334 31.6073H30.8392C30.8715 31.6073 30.8976 31.5811 30.8976 31.5488V31.4508C30.8976 31.4185 30.8715 31.3923 30.8392 31.3923Z" fill="#E0E0E0"/>
<path d="M30.8392 32.0367H19.4334C19.4012 32.0367 19.375 32.0629 19.375 32.0952V32.1932C19.375 32.2256 19.4012 32.2518 19.4334 32.2518H30.8392C30.8715 32.2518 30.8976 32.2256 30.8976 32.1932V32.0952C30.8976 32.0629 30.8715 32.0367 30.8392 32.0367Z" fill="#E0E0E0"/>
<path d="M30.8392 32.8954H19.4334C19.4012 32.8954 19.375 32.9216 19.375 32.9539V33.0519C19.375 33.0842 19.4012 33.1104 19.4334 33.1104H30.8392C30.8715 33.1104 30.8976 33.0842 30.8976 33.0519V32.9539C30.8976 32.9216 30.8715 32.8954 30.8392 32.8954Z" fill="#E0E0E0"/>
<path d="M25.9622 33.5398H19.4334C19.4012 33.5398 19.375 33.566 19.375 33.5983V33.6963C19.375 33.7286 19.4012 33.7548 19.4334 33.7548H25.9622C25.9944 33.7548 26.0206 33.7286 26.0206 33.6963V33.5983C26.0206 33.566 25.9944 33.5398 25.9622 33.5398Z" fill="#E0E0E0"/>
<path d="M30.8392 34.3962H19.4334C19.4012 34.3962 19.375 34.4224 19.375 34.4548V34.5528C19.375 34.5851 19.4012 34.6113 19.4334 34.6113H30.8392C30.8715 34.6113 30.8976 34.5851 30.8976 34.5528V34.4548C30.8976 34.4224 30.8715 34.3962 30.8392 34.3962Z" fill="#E0E0E0"/>
<path d="M30.8392 35.0406H19.4334C19.4012 35.0406 19.375 35.0668 19.375 35.0992V35.1972C19.375 35.2295 19.4012 35.2557 19.4334 35.2557H30.8392C30.8715 35.2557 30.8976 35.2295 30.8976 35.1972V35.0992C30.8976 35.0668 30.8715 35.0406 30.8392 35.0406Z" fill="#E0E0E0"/>
<path d="M30.8392 35.8993H19.4334C19.4012 35.8993 19.375 35.9255 19.375 35.9578V36.0558C19.375 36.0881 19.4012 36.1143 19.4334 36.1143H30.8392C30.8715 36.1143 30.8976 36.0881 30.8976 36.0558V35.9578C30.8976 35.9255 30.8715 35.8993 30.8392 35.8993Z" fill="#E0E0E0"/>
<path d="M25.9622 36.5437H19.4334C19.4012 36.5437 19.375 36.5699 19.375 36.6022V36.7002C19.375 36.7325 19.4012 36.7587 19.4334 36.7587H25.9622C25.9944 36.7587 26.0206 36.7325 26.0206 36.7002V36.6022C26.0206 36.5699 25.9944 36.5437 25.9622 36.5437Z" fill="#E0E0E0"/>
<g opacity="0.5">
<path opacity="0.5" d="M37.2902 27.9408H26.0166V41.2079H37.2902V27.9408Z" fill="url(#paint82_linear)"/>
</g>
<path d="M37.0506 28.1544H26.3633V40.9146H37.0506V28.1544Z" fill="white"/>
<g opacity="0.5">
<path opacity="0.5" d="M32.2892 30.1833V29.8622H31.1245V30.1833H30.3096V31.758H33.1041V30.1833H32.2892ZM31.2669 29.9792H32.1431V30.1833H31.2669V29.9792Z" fill="url(#paint83_linear)"/>
</g>
<path d="M32.9864 30.2367H30.4277V31.6783H32.9864V30.2367Z" fill="#0F66A9"/>
<path d="M31.1738 29.9427V30.3164H31.3067V30.0494H32.1063V30.3164H32.2399V29.9427H31.1738Z" fill="#0F66A9"/>
<path d="M35.4782 33.7526H27.9629V34.073H35.4782V33.7526Z" fill="#E0E0E0"/>
<path d="M35.4782 35.8613H27.9629V36.1816H35.4782V35.8613Z" fill="#E0E0E0"/>
<path d="M35.4782 36.4223H27.9629V36.7426H35.4782V36.4223Z" fill="#E0E0E0"/>
<path d="M31.1342 35.301H27.9629V35.6214H31.1342V35.301Z" fill="#E0E0E0"/>
<path opacity="0.6" d="M35.4782 35.301H33.1064V35.6214H35.4782V35.301Z" fill="#3AD29F"/>
<path d="M32.9723 37.73H30.6006V38.0504H32.9723V37.73Z" fill="#0F66A9"/>
<path d="M11.96 31.66V56.0205L29.4885 60.5253L29.7251 36.3484L11.96 31.66Z" fill="#FF9463"/>
<path d="M47.0176 55.9291L29.4883 60.5253V36.3484L47.0176 31.66V55.9291Z" fill="#FF9463"/>
<path opacity="0.5" d="M47.0176 55.9291L29.4883 60.5253V36.3484L47.0176 31.66V55.9291Z" fill="#E58558"/>
<path opacity="0.07" d="M40.042 47.8397V55.8369L47.0169 53.9067V45.9087L40.042 47.8397Z" fill="#BB643D"/>
<path d="M43.0136 29.6281H37.8438V34.6032H43.0136V29.6281Z" fill="url(#paint84_linear)"/>
<path d="M42.9326 29.7496H37.9248V34.5016H42.9326V29.7496Z" fill="#F5F5F5"/>
<g opacity="0.5">
<path opacity="0.5" d="M40.8719 30.5826V30.3354H39.9862V30.5797H39.3662V31.7778H41.4918V30.5826H40.8719ZM40.0971 30.4276H40.7616V30.5826H40.0971V30.4276Z" fill="url(#paint85_linear)"/>
</g>
<path opacity="0.6" d="M41.4011 30.6229H39.4551V31.7193H41.4011V30.6229Z" fill="#0F66A9"/>
<path opacity="0.6" d="M40.0234 30.3998V30.6843H40.1249V30.481H40.7332V30.6843H40.834V30.3998H40.0234Z" fill="#0F66A9"/>
<g opacity="0.6">
<path opacity="0.6" d="M41.3707 32.5728H39.5664V32.8164H41.3707V32.5728Z" fill="#0F66A9"/>
</g>
<path d="M41.9692 33.0197H38.8877V33.2633H41.9692V33.0197Z" fill="#BDBDBD"/>
<path d="M38.0575 5.08334H32.8877V10.0584H38.0575V5.08334Z" fill="url(#paint86_linear)"/>
<path d="M37.9765 5.2055H32.9688V9.9575H37.9765V5.2055Z" fill="#F5F5F5"/>
<g opacity="0.5">
<path opacity="0.5" d="M35.9158 6.03783V5.79427H35.0301V6.03783H34.4102V7.23589H36.5358V6.03783H35.9158ZM35.1411 5.88277H35.8056V6.03783H35.1411V5.88277Z" fill="url(#paint87_linear)"/>
</g>
<path opacity="0.6" d="M36.445 6.07806H34.499V7.17446H36.445V6.07806Z" fill="#0F66A9"/>
<path opacity="0.6" d="M35.0674 5.855V6.13952H35.1689V5.93618H35.7771V6.13952H35.8779V5.855H35.0674Z" fill="#0F66A9"/>
<g opacity="0.6">
<path opacity="0.6" d="M36.4157 8.02802H34.6113V8.27158H36.4157V8.02802Z" fill="#0F66A9"/>
</g>
<path d="M37.0131 8.47492H33.9316V8.71848H37.0131V8.47492Z" fill="#BDBDBD"/>
<g opacity="0.5">
<path opacity="0.5" d="M32.2861 14.4191H25.5879V19.9303H32.2861V14.4191Z" fill="url(#paint88_linear)"/>
</g>
<path d="M32.1955 14.5237H25.666V19.8389H32.1955V14.5237Z" fill="#F2F2F2"/>
<path d="M32.1955 14.5237H25.666V15.7093H32.1955V14.5237Z" fill="#0F66A9"/>
<path opacity="0.1" d="M32.1955 14.5237H25.666V15.7093H32.1955V14.5237Z" fill="#BB643D"/>
<path d="M31.6755 16.1394H26.1865V16.8299H31.6755V16.1394Z" fill="#E0E0E0"/>
<path d="M30.1924 17.3506H26.1865V17.5854H30.1924V17.3506Z" fill="#E0E0E0"/>
<path d="M28.7875 17.7544H26.1865V17.9891H28.7875V17.7544Z" fill="#E0E0E0"/>
<path d="M29.6199 18.1581H26.1865V18.3929H29.6199V18.1581Z" fill="#E0E0E0"/>
<path d="M30.1924 18.5626H26.1865V18.7974H30.1924V18.5626Z" fill="#E0E0E0"/>
<path d="M27.5264 18.9663H26.1865V19.2011H27.5264V18.9663Z" fill="#E0E0E0"/>
<g opacity="0.5">
<path opacity="0.5" d="M43.738 18.5575H35.4355V25.3881H43.738V18.5575Z" fill="url(#paint89_linear)"/>
</g>
<path d="M43.6251 18.6862H35.5322V25.2748H43.6251V18.6862Z" fill="white"/>
<path d="M43.6251 18.6862H35.5322V20.1556H43.6251V18.6862Z" fill="#0F66A9"/>
<path d="M42.981 20.6888H36.1777V21.5446H42.981V20.6888Z" fill="#F5F5F5"/>
<path d="M41.1431 22.1904H36.1777V22.4808H41.1431V22.1904Z" fill="#E0E0E0"/>
<path d="M39.4023 22.6914H36.1777V22.9818H39.4023V22.6914Z" fill="#E0E0E0"/>
<path d="M40.4334 23.1917H36.1777V23.4821H40.4334V23.1917Z" fill="#E0E0E0"/>
<path d="M41.1431 23.6927H36.1777V23.9831H41.1431V23.6927Z" fill="#E0E0E0"/>
<path d="M37.8382 24.193H36.1777V24.4834H37.8382V24.193Z" fill="#E0E0E0"/>
<path d="M38.4665 20.9792H36.5322V21.2374H38.4665V20.9792Z" fill="#69F0AE"/>
<path opacity="0.1" d="M11.7305 44.3003L21.5503 46.782L29.443 40.347V36.3945L11.9137 31.9818L11.7305 44.3003Z" fill="#0D0603"/>
<path opacity="0.1" d="M47.1549 44.3003L37.3352 46.782L29.4424 40.347V36.3945L46.9717 31.9818L47.1549 44.3003Z" fill="#0D0603"/>
<path d="M11.9597 31.66L2.96582 39.1058L20.4944 43.5185L29.4883 36.3484L11.9597 31.66Z" fill="#FF9463"/>
<path d="M47.0176 31.66L56.1035 39.1058L38.6662 43.5185L29.4883 36.3484L47.0176 31.66Z" fill="#FF9463"/>
<path opacity="0.07" d="M47.0176 31.66L56.1035 39.1058L38.6662 43.5185L29.4883 36.3484L47.0176 31.66Z" fill="#BB643D"/>
<defs>
<linearGradient id="paint0_linear" x1="29.3047" y1="44.3106" x2="46.9851" y2="44.3106" gradientUnits="userSpaceOnUse">
<stop stop-color="#808080" stop-opacity="0.25"/>
<stop offset="0.54" stop-color="#808080" stop-opacity="0.12"/>
<stop offset="1" stop-color="#808080" stop-opacity="0.1"/>
</linearGradient>
<linearGradient id="paint1_linear" x1="29.3047" y1="44.3106" x2="46.9851" y2="44.3106" gradientUnits="userSpaceOnUse">
<stop stop-color="#808080" stop-opacity="0.25"/>
<stop offset="0.54" stop-color="#808080" stop-opacity="0.12"/>
<stop offset="1" stop-color="#808080" stop-opacity="0.1"/>
</linearGradient>
<linearGradient id="paint2_linear" x1="2208.15" y1="17929.8" x2="6489.47" y2="17929.8" gradientUnits="userSpaceOnUse">
<stop stop-color="#808080" stop-opacity="0.25"/>
<stop offset="0.54" stop-color="#808080" stop-opacity="0.12"/>
<stop offset="1" stop-color="#808080" stop-opacity="0.1"/>
</linearGradient>
<linearGradient id="paint3_linear" x1="2208.15" y1="17929.8" x2="6489.47" y2="17929.8" gradientUnits="userSpaceOnUse">
<stop stop-color="#808080" stop-opacity="0.25"/>
<stop offset="0.54" stop-color="#808080" stop-opacity="0.12"/>
<stop offset="1" stop-color="#808080" stop-opacity="0.1"/>
</linearGradient>
<linearGradient id="paint4_linear" x1="9864.33" y1="3406.06" x2="19733.2" y2="3406.06" gradientUnits="userSpaceOnUse">
<stop stop-color="#808080" stop-opacity="0.25"/>
<stop offset="0.54" stop-color="#808080" stop-opacity="0.12"/>
<stop offset="1" stop-color="#808080" stop-opacity="0.1"/>
</linearGradient>
<linearGradient id="paint5_linear" x1="2.55176" y1="3406.06" x2="9803.87" y2="3406.06" gradientUnits="userSpaceOnUse">
<stop stop-color="#808080" stop-opacity="0.25"/>
<stop offset="0.54" stop-color="#808080" stop-opacity="0.12"/>
<stop offset="1" stop-color="#808080" stop-opacity="0.1"/>
</linearGradient>
<linearGradient id="paint6_linear" x1="2.55176" y1="3406.06" x2="9803.87" y2="3406.06" gradientUnits="userSpaceOnUse">
<stop stop-color="#808080" stop-opacity="0.25"/>
<stop offset="0.54" stop-color="#808080" stop-opacity="0.12"/>
<stop offset="1" stop-color="#808080" stop-opacity="0.1"/>
</linearGradient>
<linearGradient id="paint7_linear" x1="3646.6" y1="5132.09" x2="3646.6" y2="3121.09" gradientUnits="userSpaceOnUse">
<stop stop-color="#808080" stop-opacity="0.25"/>
<stop offset="0.54" stop-color="#808080" stop-opacity="0.12"/>
<stop offset="1" stop-color="#808080" stop-opacity="0.1"/>
</linearGradient>
<linearGradient id="paint8_linear" x1="2439.12" y1="4018.64" x2="4690.22" y2="4018.64" gradientUnits="userSpaceOnUse">
<stop stop-color="#808080" stop-opacity="0.25"/>
<stop offset="0.54" stop-color="#808080" stop-opacity="0.12"/>
<stop offset="1" stop-color="#808080" stop-opacity="0.1"/>
</linearGradient>
<linearGradient id="paint9_linear" x1="455.17" y1="604.002" x2="519.191" y2="604.002" gradientUnits="userSpaceOnUse">
<stop stop-color="#808080" stop-opacity="0.25"/>
<stop offset="0.54" stop-color="#808080" stop-opacity="0.12"/>
<stop offset="1" stop-color="#808080" stop-opacity="0.1"/>
</linearGradient>
<linearGradient id="paint10_linear" x1="2091.51" y1="87.4608" x2="3103.26" y2="87.4608" gradientUnits="userSpaceOnUse">
<stop stop-color="#808080" stop-opacity="0.25"/>
<stop offset="0.54" stop-color="#808080" stop-opacity="0.12"/>
<stop offset="1" stop-color="#808080" stop-opacity="0.1"/>
</linearGradient>
<linearGradient id="paint11_linear" x1="2091.51" y1="90.0328" x2="3103.26" y2="90.0328" gradientUnits="userSpaceOnUse">
<stop stop-color="#808080" stop-opacity="0.25"/>
<stop offset="0.54" stop-color="#808080" stop-opacity="0.12"/>
<stop offset="1" stop-color="#808080" stop-opacity="0.1"/>
</linearGradient>
<linearGradient id="paint12_linear" x1="2336.16" y1="99.3755" x2="4185.91" y2="99.3755" gradientUnits="userSpaceOnUse">
<stop stop-color="#808080" stop-opacity="0.25"/>
<stop offset="0.54" stop-color="#808080" stop-opacity="0.12"/>
<stop offset="1" stop-color="#808080" stop-opacity="0.1"/>
</linearGradient>
<linearGradient id="paint13_linear" x1="2336.16" y1="101.946" x2="4185.91" y2="101.946" gradientUnits="userSpaceOnUse">
<stop stop-color="#808080" stop-opacity="0.25"/>
<stop offset="0.54" stop-color="#808080" stop-opacity="0.12"/>
<stop offset="1" stop-color="#808080" stop-opacity="0.1"/>
</linearGradient>
<linearGradient id="paint14_linear" x1="2336.16" y1="105.374" x2="4185.91" y2="105.374" gradientUnits="userSpaceOnUse">
<stop stop-color="#808080" stop-opacity="0.25"/>
<stop offset="0.54" stop-color="#808080" stop-opacity="0.12"/>
<stop offset="1" stop-color="#808080" stop-opacity="0.1"/>
</linearGradient>
<linearGradient id="paint15_linear" x1="1354.55" y1="107.951" x2="1969.78" y2="107.951" gradientUnits="userSpaceOnUse">
<stop stop-color="#808080" stop-opacity="0.25"/>
<stop offset="0.54" stop-color="#808080" stop-opacity="0.12"/>
<stop offset="1" stop-color="#808080" stop-opacity="0.1"/>
</linearGradient>
<linearGradient id="paint16_linear" x1="2336.16" y1="111.372" x2="4185.91" y2="111.372" gradientUnits="userSpaceOnUse">
<stop stop-color="#808080" stop-opacity="0.25"/>
<stop offset="0.54" stop-color="#808080" stop-opacity="0.12"/>
<stop offset="1" stop-color="#808080" stop-opacity="0.1"/>
</linearGradient>
<linearGradient id="paint17_linear" x1="2336.16" y1="113.945" x2="4185.91" y2="113.945" gradientUnits="userSpaceOnUse">
<stop stop-color="#808080" stop-opacity="0.25"/>
<stop offset="0.54" stop-color="#808080" stop-opacity="0.12"/>
<stop offset="1" stop-color="#808080" stop-opacity="0.1"/>
</linearGradient>
<linearGradient id="paint18_linear" x1="2336.16" y1="117.376" x2="4185.91" y2="117.376" gradientUnits="userSpaceOnUse">
<stop stop-color="#808080" stop-opacity="0.25"/>
<stop offset="0.54" stop-color="#808080" stop-opacity="0.12"/>
<stop offset="1" stop-color="#808080" stop-opacity="0.1"/>
</linearGradient>
<linearGradient id="paint19_linear" x1="1354.55" y1="119.947" x2="1969.78" y2="119.947" gradientUnits="userSpaceOnUse">
<stop stop-color="#808080" stop-opacity="0.25"/>
<stop offset="0.54" stop-color="#808080" stop-opacity="0.12"/>
<stop offset="1" stop-color="#808080" stop-opacity="0.1"/>
</linearGradient>
<linearGradient id="paint20_linear" x1="4004.48" y1="5599.65" x2="4004.48" y2="3588.53" gradientUnits="userSpaceOnUse">
<stop stop-color="#808080" stop-opacity="0.25"/>
<stop offset="0.54" stop-color="#808080" stop-opacity="0.12"/>
<stop offset="1" stop-color="#808080" stop-opacity="0.1"/>
</linearGradient>
<linearGradient id="paint21_linear" x1="2788.81" y1="4474.93" x2="5039.91" y2="4474.93" gradientUnits="userSpaceOnUse">
<stop stop-color="#808080" stop-opacity="0.25"/>
<stop offset="0.54" stop-color="#808080" stop-opacity="0.12"/>
<stop offset="1" stop-color="#808080" stop-opacity="0.1"/>
</linearGradient>
<linearGradient id="paint22_linear" x1="515.787" y1="681.498" x2="579.807" y2="681.498" gradientUnits="userSpaceOnUse">
<stop stop-color="#808080" stop-opacity="0.25"/>
<stop offset="0.54" stop-color="#808080" stop-opacity="0.12"/>
<stop offset="1" stop-color="#808080" stop-opacity="0.1"/>
</linearGradient>
<linearGradient id="paint23_linear" x1="2326.68" y1="98.5597" x2="3338.43" y2="98.5597" gradientUnits="userSpaceOnUse">
<stop stop-color="#808080" stop-opacity="0.25"/>
<stop offset="0.54" stop-color="#808080" stop-opacity="0.12"/>
<stop offset="1" stop-color="#808080" stop-opacity="0.1"/>
</linearGradient>
<linearGradient id="paint24_linear" x1="2326.68" y1="101.133" x2="3338.43" y2="101.133" gradientUnits="userSpaceOnUse">
<stop stop-color="#808080" stop-opacity="0.25"/>
<stop offset="0.54" stop-color="#808080" stop-opacity="0.12"/>
<stop offset="1" stop-color="#808080" stop-opacity="0.1"/>
</linearGradient>
<linearGradient id="paint25_linear" x1="2653.33" y1="110.471" x2="4503.19" y2="110.471" gradientUnits="userSpaceOnUse">
<stop stop-color="#808080" stop-opacity="0.25"/>
<stop offset="0.54" stop-color="#808080" stop-opacity="0.12"/>
<stop offset="1" stop-color="#808080" stop-opacity="0.1"/>
</linearGradient>
<linearGradient id="paint26_linear" x1="2653.33" y1="113.043" x2="4503.19" y2="113.043" gradientUnits="userSpaceOnUse">
<stop stop-color="#808080" stop-opacity="0.25"/>
<stop offset="0.54" stop-color="#808080" stop-opacity="0.12"/>
<stop offset="1" stop-color="#808080" stop-opacity="0.1"/>
</linearGradient>
<linearGradient id="paint27_linear" x1="2653.33" y1="116.475" x2="4503.19" y2="116.475" gradientUnits="userSpaceOnUse">
<stop stop-color="#808080" stop-opacity="0.25"/>
<stop offset="0.54" stop-color="#808080" stop-opacity="0.12"/>
<stop offset="1" stop-color="#808080" stop-opacity="0.1"/>
</linearGradient>
<linearGradient id="paint28_linear" x1="1538.3" y1="119.047" x2="2153.53" y2="119.047" gradientUnits="userSpaceOnUse">
<stop stop-color="#808080" stop-opacity="0.25"/>
<stop offset="0.54" stop-color="#808080" stop-opacity="0.12"/>
<stop offset="1" stop-color="#808080" stop-opacity="0.1"/>
</linearGradient>
<linearGradient id="paint29_linear" x1="2653.33" y1="122.469" x2="4503.19" y2="122.469" gradientUnits="userSpaceOnUse">
<stop stop-color="#808080" stop-opacity="0.25"/>
<stop offset="0.54" stop-color="#808080" stop-opacity="0.12"/>
<stop offset="1" stop-color="#808080" stop-opacity="0.1"/>
</linearGradient>
<linearGradient id="paint30_linear" x1="2653.33" y1="125.044" x2="4503.19" y2="125.044" gradientUnits="userSpaceOnUse">
<stop stop-color="#808080" stop-opacity="0.25"/>
<stop offset="0.54" stop-color="#808080" stop-opacity="0.12"/>
<stop offset="1" stop-color="#808080" stop-opacity="0.1"/>
</linearGradient>
<linearGradient id="paint31_linear" x1="2653.33" y1="128.478" x2="4503.19" y2="128.478" gradientUnits="userSpaceOnUse">
<stop stop-color="#808080" stop-opacity="0.25"/>
<stop offset="0.54" stop-color="#808080" stop-opacity="0.12"/>
<stop offset="1" stop-color="#808080" stop-opacity="0.1"/>
</linearGradient>
<linearGradient id="paint32_linear" x1="1538.3" y1="131.045" x2="2153.53" y2="131.045" gradientUnits="userSpaceOnUse">
<stop stop-color="#808080" stop-opacity="0.25"/>
<stop offset="0.54" stop-color="#808080" stop-opacity="0.12"/>
<stop offset="1" stop-color="#808080" stop-opacity="0.1"/>
</linearGradient>
<linearGradient id="paint33_linear" x1="4531.69" y1="6693.83" x2="4531.69" y2="4245.46" gradientUnits="userSpaceOnUse">
<stop stop-color="#808080" stop-opacity="0.25"/>
<stop offset="0.54" stop-color="#808080" stop-opacity="0.12"/>
<stop offset="1" stop-color="#808080" stop-opacity="0.1"/>
</linearGradient>
<linearGradient id="paint34_linear" x1="3510.01" y1="5254.89" x2="5101.25" y2="5254.89" gradientUnits="userSpaceOnUse">
<stop stop-color="#808080" stop-opacity="0.25"/>
<stop offset="0.54" stop-color="#808080" stop-opacity="0.12"/>
<stop offset="1" stop-color="#808080" stop-opacity="0.1"/>
</linearGradient>
<linearGradient id="paint35_linear" x1="1805.87" y1="862.473" x2="1805.87" y2="812.534" gradientUnits="userSpaceOnUse">
<stop stop-color="#808080" stop-opacity="0.25"/>
<stop offset="0.54" stop-color="#808080" stop-opacity="0.12"/>
<stop offset="1" stop-color="#808080" stop-opacity="0.1"/>
</linearGradient>
<linearGradient id="paint36_linear" x1="1009.16" y1="549.182" x2="1100.35" y2="549.182" gradientUnits="userSpaceOnUse">
<stop stop-color="#808080" stop-opacity="0.25"/>
<stop offset="0.54" stop-color="#808080" stop-opacity="0.12"/>
<stop offset="1" stop-color="#808080" stop-opacity="0.1"/>
</linearGradient>
<linearGradient id="paint37_linear" x1="449.825" y1="160.489" x2="465.647" y2="160.489" gradientUnits="userSpaceOnUse">
<stop stop-color="#808080" stop-opacity="0.25"/>
<stop offset="0.54" stop-color="#808080" stop-opacity="0.12"/>
<stop offset="1" stop-color="#808080" stop-opacity="0.1"/>
</linearGradient>
<linearGradient id="paint38_linear" x1="2645.16" y1="162.503" x2="3432.06" y2="162.503" gradientUnits="userSpaceOnUse">
<stop stop-color="#808080" stop-opacity="0.25"/>
<stop offset="0.54" stop-color="#808080" stop-opacity="0.12"/>
<stop offset="1" stop-color="#808080" stop-opacity="0.1"/>
</linearGradient>
<linearGradient id="paint39_linear" x1="2645.16" y1="174.025" x2="3432.06" y2="174.025" gradientUnits="userSpaceOnUse">
<stop stop-color="#808080" stop-opacity="0.25"/>
<stop offset="0.54" stop-color="#808080" stop-opacity="0.12"/>
<stop offset="1" stop-color="#808080" stop-opacity="0.1"/>
</linearGradient>
<linearGradient id="paint40_linear" x1="2645.16" y1="177.102" x2="3432.06" y2="177.102" gradientUnits="userSpaceOnUse">
<stop stop-color="#808080" stop-opacity="0.25"/>
<stop offset="0.54" stop-color="#808080" stop-opacity="0.12"/>
<stop offset="1" stop-color="#808080" stop-opacity="0.1"/>
</linearGradient>
<linearGradient id="paint41_linear" x1="1132.36" y1="170.969" x2="1272.51" y2="170.969" gradientUnits="userSpaceOnUse">
<stop stop-color="#808080" stop-opacity="0.25"/>
<stop offset="0.54" stop-color="#808080" stop-opacity="0.12"/>
<stop offset="1" stop-color="#808080" stop-opacity="0.1"/>
</linearGradient>
<linearGradient id="paint42_linear" x1="1028.9" y1="170.969" x2="1107.27" y2="170.969" gradientUnits="userSpaceOnUse">
<stop stop-color="#808080" stop-opacity="0.25"/>
<stop offset="0.54" stop-color="#808080" stop-opacity="0.12"/>
<stop offset="1" stop-color="#808080" stop-opacity="0.1"/>
</linearGradient>
<linearGradient id="paint43_linear" x1="943.576" y1="184.245" x2="1021.97" y2="184.245" gradientUnits="userSpaceOnUse">
<stop stop-color="#808080" stop-opacity="0.25"/>
<stop offset="0.54" stop-color="#808080" stop-opacity="0.12"/>
<stop offset="1" stop-color="#808080" stop-opacity="0.1"/>
</linearGradient>
<linearGradient id="paint44_linear" x1="2208.15" y1="16495.4" x2="6489.47" y2="16495.4" gradientUnits="userSpaceOnUse">
<stop stop-color="#808080" stop-opacity="0.25"/>
<stop offset="0.54" stop-color="#808080" stop-opacity="0.12"/>
<stop offset="1" stop-color="#808080" stop-opacity="0.1"/>
</linearGradient>
<linearGradient id="paint45_linear" x1="6506.89" y1="16495.4" x2="10787.9" y2="16495.4" gradientUnits="userSpaceOnUse">
<stop stop-color="#808080" stop-opacity="0.25"/>
<stop offset="0.54" stop-color="#808080" stop-opacity="0.12"/>
<stop offset="1" stop-color="#808080" stop-opacity="0.1"/>
</linearGradient>
<linearGradient id="paint46_linear" x1="6506.89" y1="16495.4" x2="10787.9" y2="16495.4" gradientUnits="userSpaceOnUse">
<stop stop-color="#808080" stop-opacity="0.25"/>
<stop offset="0.54" stop-color="#808080" stop-opacity="0.12"/>
<stop offset="1" stop-color="#808080" stop-opacity="0.1"/>
</linearGradient>
<linearGradient id="paint47_linear" x1="3643.19" y1="6368.87" x2="4321.06" y2="6368.87" gradientUnits="userSpaceOnUse">
<stop stop-color="#808080" stop-opacity="0.25"/>
<stop offset="0.54" stop-color="#808080" stop-opacity="0.12"/>
<stop offset="1" stop-color="#808080" stop-opacity="0.1"/>
</linearGradient>
<linearGradient id="paint48_linear" x1="2736.13" y1="2072.41" x2="2736.13" y2="1728.11" gradientUnits="userSpaceOnUse">
<stop stop-color="#808080" stop-opacity="0.25"/>
<stop offset="0.54" stop-color="#808080" stop-opacity="0.12"/>
<stop offset="1" stop-color="#808080" stop-opacity="0.1"/>
</linearGradient>
<linearGradient id="paint49_linear" x1="2476.85" y1="1817.11" x2="2826.22" y2="1817.11" gradientUnits="userSpaceOnUse">
<stop stop-color="#808080" stop-opacity="0.25"/>
<stop offset="0.54" stop-color="#808080" stop-opacity="0.12"/>
<stop offset="1" stop-color="#808080" stop-opacity="0.1"/>
</linearGradient>
<linearGradient id="paint50_linear" x1="1648.77" y1="664.318" x2="1648.77" y2="635.397" gradientUnits="userSpaceOnUse">
<stop stop-color="#808080" stop-opacity="0.25"/>
<stop offset="0.54" stop-color="#808080" stop-opacity="0.12"/>
<stop offset="1" stop-color="#808080" stop-opacity="0.1"/>
</linearGradient>
<linearGradient id="paint51_linear" x1="1028.68" y1="428.641" x2="1081.46" y2="428.641" gradientUnits="userSpaceOnUse">
<stop stop-color="#808080" stop-opacity="0.25"/>
<stop offset="0.54" stop-color="#808080" stop-opacity="0.12"/>
<stop offset="1" stop-color="#808080" stop-opacity="0.1"/>
</linearGradient>
<linearGradient id="paint52_linear" x1="458.947" y1="131.517" x2="468.115" y2="131.517" gradientUnits="userSpaceOnUse">
<stop stop-color="#808080" stop-opacity="0.25"/>
<stop offset="0.54" stop-color="#808080" stop-opacity="0.12"/>
<stop offset="1" stop-color="#808080" stop-opacity="0.1"/>
</linearGradient>
<linearGradient id="paint53_linear" x1="959.459" y1="126.373" x2="1004.82" y2="126.373" gradientUnits="userSpaceOnUse">
<stop stop-color="#808080" stop-opacity="0.25"/>
<stop offset="0.54" stop-color="#808080" stop-opacity="0.12"/>
<stop offset="1" stop-color="#808080" stop-opacity="0.1"/>
</linearGradient>
<linearGradient id="paint54_linear" x1="1581.21" y1="128.332" x2="1713.54" y2="128.332" gradientUnits="userSpaceOnUse">
<stop stop-color="#808080" stop-opacity="0.25"/>
<stop offset="0.54" stop-color="#808080" stop-opacity="0.12"/>
<stop offset="1" stop-color="#808080" stop-opacity="0.1"/>
</linearGradient>
<linearGradient id="paint55_linear" x1="2449.1" y1="1152.32" x2="2449.1" y2="729.852" gradientUnits="userSpaceOnUse">
<stop stop-color="#808080" stop-opacity="0.25"/>
<stop offset="0.54" stop-color="#808080" stop-opacity="0.12"/>
<stop offset="1" stop-color="#808080" stop-opacity="0.1"/>
</linearGradient>
<linearGradient id="paint56_linear" x1="2090.53" y1="908.753" x2="2684.5" y2="908.753" gradientUnits="userSpaceOnUse">
<stop stop-color="#808080" stop-opacity="0.25"/>
<stop offset="0.54" stop-color="#808080" stop-opacity="0.12"/>
<stop offset="1" stop-color="#808080" stop-opacity="0.1"/>
</linearGradient>
<linearGradient id="paint57_linear" x1="2090.53" y1="179.989" x2="2684.5" y2="179.989" gradientUnits="userSpaceOnUse">
<stop stop-color="#808080" stop-opacity="0.25"/>
<stop offset="0.54" stop-color="#808080" stop-opacity="0.12"/>
<stop offset="1" stop-color="#808080" stop-opacity="0.1"/>
</linearGradient>
<linearGradient id="paint58_linear" x1="2090.53" y1="179.989" x2="2684.5" y2="179.989" gradientUnits="userSpaceOnUse">
<stop stop-color="#808080" stop-opacity="0.25"/>
<stop offset="0.54" stop-color="#808080" stop-opacity="0.12"/>
<stop offset="1" stop-color="#808080" stop-opacity="0.1"/>
</linearGradient>
<linearGradient id="paint59_linear" x1="1801.83" y1="125.67" x2="2221.55" y2="125.67" gradientUnits="userSpaceOnUse">
<stop stop-color="#808080" stop-opacity="0.25"/>
<stop offset="0.54" stop-color="#808080" stop-opacity="0.12"/>
<stop offset="1" stop-color="#808080" stop-opacity="0.1"/>
</linearGradient>
<linearGradient id="paint60_linear" x1="1322.15" y1="57.7873" x2="1545.74" y2="57.7873" gradientUnits="userSpaceOnUse">
<stop stop-color="#808080" stop-opacity="0.25"/>
<stop offset="0.54" stop-color="#808080" stop-opacity="0.12"/>
<stop offset="1" stop-color="#808080" stop-opacity="0.1"/>
</linearGradient>
<linearGradient id="paint61_linear" x1="867.528" y1="59.5106" x2="961.795" y2="59.5106" gradientUnits="userSpaceOnUse">
<stop stop-color="#808080" stop-opacity="0.25"/>
<stop offset="0.54" stop-color="#808080" stop-opacity="0.12"/>
<stop offset="1" stop-color="#808080" stop-opacity="0.1"/>
</linearGradient>
<linearGradient id="paint62_linear" x1="1136.88" y1="61.2342" x2="1301.15" y2="61.2342" gradientUnits="userSpaceOnUse">
<stop stop-color="#808080" stop-opacity="0.25"/>
<stop offset="0.54" stop-color="#808080" stop-opacity="0.12"/>
<stop offset="1" stop-color="#808080" stop-opacity="0.1"/>
</linearGradient>
<linearGradient id="paint63_linear" x1="1322.15" y1="62.9561" x2="1545.74" y2="62.9561" gradientUnits="userSpaceOnUse">
<stop stop-color="#808080" stop-opacity="0.25"/>
<stop offset="0.54" stop-color="#808080" stop-opacity="0.12"/>
<stop offset="1" stop-color="#808080" stop-opacity="0.1"/>
</linearGradient>
<linearGradient id="paint64_linear" x1="459.282" y1="64.6801" x2="484.273" y2="64.6801" gradientUnits="userSpaceOnUse">
<stop stop-color="#808080" stop-opacity="0.25"/>
<stop offset="0.54" stop-color="#808080" stop-opacity="0.12"/>
<stop offset="1" stop-color="#808080" stop-opacity="0.1"/>
</linearGradient>
<linearGradient id="paint65_linear" x1="4271.36" y1="1947.3" x2="4271.36" y2="1298.41" gradientUnits="userSpaceOnUse">
<stop stop-color="#808080" stop-opacity="0.25"/>
<stop offset="0.54" stop-color="#808080" stop-opacity="0.12"/>
<stop offset="1" stop-color="#808080" stop-opacity="0.1"/>
</linearGradient>
<linearGradient id="paint66_linear" x1="3707.59" y1="1566.8" x2="4620.05" y2="1566.8" gradientUnits="userSpaceOnUse">
<stop stop-color="#808080" stop-opacity="0.25"/>
<stop offset="0.54" stop-color="#808080" stop-opacity="0.12"/>
<stop offset="1" stop-color="#808080" stop-opacity="0.1"/>
</linearGradient>
<linearGradient id="paint67_linear" x1="3707.59" y1="311.718" x2="4620.05" y2="311.718" gradientUnits="userSpaceOnUse">
<stop stop-color="#808080" stop-opacity="0.25"/>
<stop offset="0.54" stop-color="#808080" stop-opacity="0.12"/>
<stop offset="1" stop-color="#808080" stop-opacity="0.1"/>
</linearGradient>
<linearGradient id="paint68_linear" x1="3183.93" y1="211.601" x2="3828.73" y2="211.601" gradientUnits="userSpaceOnUse">
<stop stop-color="#808080" stop-opacity="0.25"/>
<stop offset="0.54" stop-color="#808080" stop-opacity="0.12"/>
<stop offset="1" stop-color="#808080" stop-opacity="0.1"/>
</linearGradient>
<linearGradient id="paint69_linear" x1="2333.73" y1="92.0972" x2="2677.26" y2="92.0972" gradientUnits="userSpaceOnUse">
<stop stop-color="#808080" stop-opacity="0.25"/>
<stop offset="0.54" stop-color="#808080" stop-opacity="0.12"/>
<stop offset="1" stop-color="#808080" stop-opacity="0.1"/>
</linearGradient>
<linearGradient id="paint70_linear" x1="1528.08" y1="94.6294" x2="1672.94" y2="94.6294" gradientUnits="userSpaceOnUse">
<stop stop-color="#808080" stop-opacity="0.25"/>
<stop offset="0.54" stop-color="#808080" stop-opacity="0.12"/>
<stop offset="1" stop-color="#808080" stop-opacity="0.1"/>
</linearGradient>
<linearGradient id="paint71_linear" x1="2005.45" y1="97.1605" x2="2257.83" y2="97.1605" gradientUnits="userSpaceOnUse">
<stop stop-color="#808080" stop-opacity="0.25"/>
<stop offset="0.54" stop-color="#808080" stop-opacity="0.12"/>
<stop offset="1" stop-color="#808080" stop-opacity="0.1"/>
</linearGradient>
<linearGradient id="paint72_linear" x1="2333.73" y1="99.688" x2="2677.26" y2="99.688" gradientUnits="userSpaceOnUse">
<stop stop-color="#808080" stop-opacity="0.25"/>
<stop offset="0.54" stop-color="#808080" stop-opacity="0.12"/>
<stop offset="1" stop-color="#808080" stop-opacity="0.1"/>
</linearGradient>
<linearGradient id="paint73_linear" x1="804.515" y1="102.218" x2="842.942" y2="102.218" gradientUnits="userSpaceOnUse">
<stop stop-color="#808080" stop-opacity="0.25"/>
<stop offset="0.54" stop-color="#808080" stop-opacity="0.12"/>
<stop offset="1" stop-color="#808080" stop-opacity="0.1"/>
</linearGradient>
<linearGradient id="paint74_linear" x1="941.058" y1="78.6422" x2="993.192" y2="78.6422" gradientUnits="userSpaceOnUse">
<stop stop-color="#808080" stop-opacity="0.25"/>
<stop offset="0.54" stop-color="#808080" stop-opacity="0.12"/>
<stop offset="1" stop-color="#808080" stop-opacity="0.1"/>
</linearGradient>
<linearGradient id="paint75_linear" x1="2174.33" y1="7092.2" x2="6545.23" y2="7092.2" gradientUnits="userSpaceOnUse">
<stop stop-color="#808080" stop-opacity="0.25"/>
<stop offset="0.54" stop-color="#808080" stop-opacity="0.12"/>
<stop offset="1" stop-color="#808080" stop-opacity="0.1"/>
</linearGradient>
<linearGradient id="paint76_linear" x1="6563.36" y1="7092.2" x2="10934.6" y2="7092.2" gradientUnits="userSpaceOnUse">
<stop stop-color="#808080" stop-opacity="0.25"/>
<stop offset="0.54" stop-color="#808080" stop-opacity="0.12"/>
<stop offset="1" stop-color="#808080" stop-opacity="0.1"/>
</linearGradient>
<linearGradient id="paint77_linear" x1="2.55176" y1="5393.18" x2="9803.87" y2="5393.18" gradientUnits="userSpaceOnUse">
<stop stop-color="#808080" stop-opacity="0.25"/>
<stop offset="0.54" stop-color="#808080" stop-opacity="0.12"/>
<stop offset="1" stop-color="#808080" stop-opacity="0.1"/>
</linearGradient>
<linearGradient id="paint78_linear" x1="9864.33" y1="5393.18" x2="19733.2" y2="5393.18" gradientUnits="userSpaceOnUse">
<stop stop-color="#808080" stop-opacity="0.25"/>
<stop offset="0.54" stop-color="#808080" stop-opacity="0.12"/>
<stop offset="1" stop-color="#808080" stop-opacity="0.1"/>
</linearGradient>
<linearGradient id="paint79_linear" x1="9864.33" y1="5393.18" x2="19733.2" y2="5393.18" gradientUnits="userSpaceOnUse">
<stop stop-color="#808080" stop-opacity="0.25"/>
<stop offset="0.54" stop-color="#808080" stop-opacity="0.12"/>
<stop offset="1" stop-color="#808080" stop-opacity="0.1"/>
</linearGradient>
<linearGradient id="paint80_linear" x1="3658.47" y1="5045.5" x2="3658.47" y2="3068.68" gradientUnits="userSpaceOnUse">
<stop stop-color="#808080" stop-opacity="0.25"/>
<stop offset="0.54" stop-color="#808080" stop-opacity="0.12"/>
<stop offset="1" stop-color="#808080" stop-opacity="0.1"/>
</linearGradient>
<linearGradient id="paint81_linear" x1="4010.42" y1="5505.09" x2="4010.42" y2="3528.27" gradientUnits="userSpaceOnUse">
<stop stop-color="#808080" stop-opacity="0.25"/>
<stop offset="0.54" stop-color="#808080" stop-opacity="0.12"/>
<stop offset="1" stop-color="#808080" stop-opacity="0.1"/>
</linearGradient>
<linearGradient id="paint82_linear" x1="4519.01" y1="6580.57" x2="4519.01" y2="4174.05" gradientUnits="userSpaceOnUse">
<stop stop-color="#808080" stop-opacity="0.25"/>
<stop offset="0.54" stop-color="#808080" stop-opacity="0.12"/>
<stop offset="1" stop-color="#808080" stop-opacity="0.1"/>
</linearGradient>
<linearGradient id="paint83_linear" x1="1797.19" y1="849.713" x2="1797.19" y2="800.573" gradientUnits="userSpaceOnUse">
<stop stop-color="#808080" stop-opacity="0.25"/>
<stop offset="0.54" stop-color="#808080" stop-opacity="0.12"/>
<stop offset="1" stop-color="#808080" stop-opacity="0.1"/>
</linearGradient>
<linearGradient id="paint84_linear" x1="2719.5" y1="2037.57" x2="2719.5" y2="1699.16" gradientUnits="userSpaceOnUse">
<stop stop-color="#808080" stop-opacity="0.25"/>
<stop offset="0.54" stop-color="#808080" stop-opacity="0.12"/>
<stop offset="1" stop-color="#808080" stop-opacity="0.1"/>
</linearGradient>
<linearGradient id="paint85_linear" x1="1637.22" y1="654.527" x2="1637.22" y2="626.098" gradientUnits="userSpaceOnUse">
<stop stop-color="#808080" stop-opacity="0.25"/>
<stop offset="0.54" stop-color="#808080" stop-opacity="0.12"/>
<stop offset="1" stop-color="#808080" stop-opacity="0.1"/>
</linearGradient>
<linearGradient id="paint86_linear" x1="2363.66" y1="343.488" x2="2363.66" y2="5.08334" gradientUnits="userSpaceOnUse">
<stop stop-color="#808080" stop-opacity="0.25"/>
<stop offset="0.54" stop-color="#808080" stop-opacity="0.12"/>
<stop offset="1" stop-color="#808080" stop-opacity="0.1"/>
</linearGradient>
<linearGradient id="paint87_linear" x1="1487.99" y1="145.891" x2="1487.99" y2="117.477" gradientUnits="userSpaceOnUse">
<stop stop-color="#808080" stop-opacity="0.25"/>
<stop offset="0.54" stop-color="#808080" stop-opacity="0.12"/>
<stop offset="1" stop-color="#808080" stop-opacity="0.1"/>
</linearGradient>
<linearGradient id="paint88_linear" x1="2445.9" y1="1133.14" x2="2445.9" y2="717.87" gradientUnits="userSpaceOnUse">
<stop stop-color="#808080" stop-opacity="0.25"/>
<stop offset="0.54" stop-color="#808080" stop-opacity="0.12"/>
<stop offset="1" stop-color="#808080" stop-opacity="0.1"/>
</linearGradient>
<linearGradient id="paint89_linear" x1="4246.26" y1="1914.82" x2="4246.26" y2="1276.91" gradientUnits="userSpaceOnUse">
<stop stop-color="#808080" stop-opacity="0.25"/>
<stop offset="0.54" stop-color="#808080" stop-opacity="0.12"/>
<stop offset="1" stop-color="#808080" stop-opacity="0.1"/>
</linearGradient>
</defs>
</svg>
