<svg width="26" height="19" viewBox="0 0 26 19" fill="none" xmlns="http://www.w3.org/2000/svg">
<g clip-path="url(#clip0)">
<path d="M0 10.1667V8.83333C0 8.02593 0.485476 7.29772 1.23077 6.98718L16.4552 0.643648C17.3492 0.271149 18.391 0.589122 18.8621 1.4353C22.271 7.55764 21.6874 12.7599 18.8711 17.6121C18.3928 18.436 17.3673 18.7364 16.4879 18.37L1.23077 12.0128C0.485475 11.7023 0 10.9741 0 10.1667Z" fill="#FF9463"/>
<rect x="4" y="11.5" width="7" height="7" rx="1" fill="#FF9463"/>
<path d="M24.5028 8.34204H22.6579C22.2946 8.34204 22 8.63662 22 8.99996C22 9.36337 22.2946 9.65789 22.6579 9.65789H24.5028C24.8661 9.65789 25.1607 9.36331 25.1607 8.99996C25.1607 8.63662 24.8661 8.34204 24.5028 8.34204Z" fill="#FF9463"/>
<path d="M24.4359 4.82908C24.2541 4.51436 23.8519 4.40659 23.5371 4.58826L22.3291 5.28566C22.0144 5.46733 21.9065 5.86969 22.0883 6.18441C22.2101 6.39556 22.4313 6.51353 22.6587 6.51353C22.7703 6.51353 22.8835 6.48511 22.987 6.4253L24.195 5.72783C24.5098 5.54616 24.6176 5.1438 24.4359 4.82908Z" fill="#FF9463"/>
<path d="M24.195 12.2721L22.987 11.5746C22.6723 11.3929 22.27 11.5007 22.0883 11.8154C21.9065 12.1302 22.0144 12.5325 22.3291 12.7142L23.5371 13.4117C23.6407 13.4715 23.7539 13.4999 23.8654 13.4999C24.0929 13.4999 24.3139 13.3819 24.4359 13.1708C24.6176 12.8561 24.5098 12.4538 24.195 12.2721Z" fill="#FF9463"/>
</g>
<defs>
<clipPath id="clip0">
<rect width="25.161" height="19" fill="white"/>
</clipPath>
</defs>
</svg>
