<svg width="69" height="68" viewBox="0 0 69 68" fill="none" xmlns="http://www.w3.org/2000/svg">
<g filter="url(#filter0_d)">
<circle cx="31.3928" cy="30" r="24" fill="#30AEE4"/>
</g>
<g clip-path="url(#clip0)">
<path d="M42.8475 22.8786C41.9867 23.257 41.0749 23.5069 40.1414 23.6203C41.1254 23.0297 41.8621 22.1026 42.215 21.0106C41.2843 21.5503 40.2713 21.9337 39.2164 22.1455C38.507 21.3875 37.5673 20.8849 36.5431 20.7155C35.5189 20.5462 34.4674 20.7196 33.5518 21.2088C32.6362 21.6981 31.9076 22.4758 31.4792 23.4214C31.0507 24.367 30.9463 25.4276 31.1822 26.4386C27.2629 26.2553 23.7884 24.3722 21.4647 21.5273C21.0417 22.2467 20.8205 23.0669 20.8243 23.9014C20.8237 24.6772 21.0147 25.4411 21.3803 26.1253C21.746 26.8096 22.2749 27.3929 22.9202 27.8236C22.1724 27.801 21.4409 27.5996 20.7869 27.2364V27.2932C20.7867 28.3821 21.163 29.4376 21.852 30.2808C22.541 31.124 23.5004 31.703 24.5675 31.9198C24.1633 32.0278 23.7468 32.0831 23.3284 32.0843C23.0258 32.0843 22.7369 32.0549 22.4487 32.0017C22.7524 32.9387 23.3406 33.7578 24.1316 34.3449C24.9226 34.9319 25.8769 35.2578 26.8618 35.277C25.1932 36.5838 23.1342 37.2927 21.0148 37.2903C20.6394 37.2917 20.2642 37.2706 19.8914 37.227C22.0534 38.6124 24.5678 39.3478 27.1356 39.3459C35.8088 39.3459 40.5482 32.162 40.5482 25.9405C40.5482 25.7421 40.5482 25.5401 40.5331 25.3374C41.4602 24.673 42.2592 23.846 42.8914 22.8966L42.8475 22.8786Z" fill="white"/>
</g>
<defs>
<filter id="filter0_d" x="0.392822" y="0" width="68" height="68" filterUnits="userSpaceOnUse" color-interpolation-filters="sRGB">
<feFlood flood-opacity="0" result="BackgroundImageFix"/>
<feColorMatrix in="SourceAlpha" type="matrix" values="0 0 0 0 0 0 0 0 0 0 0 0 0 0 0 0 0 0 127 0"/>
<feOffset dx="3" dy="4"/>
<feGaussianBlur stdDeviation="5"/>
<feColorMatrix type="matrix" values="0 0 0 0 0.0235294 0 0 0 0 0.647059 0 0 0 0 0.74902 0 0 0 0.25 0"/>
<feBlend mode="normal" in2="BackgroundImageFix" result="effect1_dropShadow"/>
<feBlend mode="normal" in="SourceGraphic" in2="effect1_dropShadow" result="shape"/>
</filter>
<clipPath id="clip0">
<rect width="23" height="23" fill="white" transform="translate(19.8928 18.5)"/>
</clipPath>
</defs>
</svg>
