<svg width="69" height="70" viewBox="0 0 69 70" fill="none" xmlns="http://www.w3.org/2000/svg">
<g filter="url(#filter0_d)">
<circle cx="34.6598" cy="35" r="24" fill="white"/>
<circle cx="34.6598" cy="35" r="24" stroke="#CBCBCB" stroke-width="0.5"/>
</g>
<path d="M45.7441 32.7857H44.8335V32.7388H34.6596V37.2605H41.0482C40.1162 39.8927 37.6117 41.7823 34.6596 41.7823C30.9139 41.7823 27.877 38.7454 27.877 34.9997C27.877 31.254 30.9139 28.2171 34.6596 28.2171C36.3886 28.2171 37.9616 28.8693 39.1593 29.9347L42.3567 26.7373C40.3377 24.8557 37.6371 23.6953 34.6596 23.6953C28.4167 23.6953 23.3552 28.7568 23.3552 34.9997C23.3552 41.2425 28.4167 46.304 34.6596 46.304C40.9024 46.304 45.9639 41.2425 45.9639 34.9997C45.9639 34.2417 45.8859 33.5018 45.7441 32.7857Z" fill="#FFC107"/>
<path d="M24.6586 29.7381L28.3726 32.4618C29.3776 29.9737 31.8114 28.2171 34.6595 28.2171C36.3885 28.2171 37.9615 28.8693 39.1592 29.9347L42.3567 26.7373C40.3377 24.8557 37.6371 23.6953 34.6595 23.6953C30.3175 23.6953 26.552 26.1467 24.6586 29.7381Z" fill="#FF3D00"/>
<path d="M34.6601 46.304C37.58 46.304 40.2332 45.1865 42.2391 43.3694L38.7404 40.4088C37.5674 41.3009 36.1339 41.7834 34.6601 41.7822C31.7199 41.7822 29.2233 39.9074 28.2828 37.291L24.5964 40.1312C26.4673 43.7921 30.2667 46.304 34.6601 46.304Z" fill="#4CAF50"/>
<path d="M45.7443 32.7871H44.8337V32.7402H34.6598V37.262H41.0484C40.6026 38.5147 39.7995 39.6094 38.7384 40.4108L38.7401 40.4097L42.2388 43.3703C41.9912 43.5952 45.9641 40.6533 45.9641 35.0011C45.9641 34.2431 45.8861 33.5033 45.7443 32.7871Z" fill="#1976D2"/>
<defs>
<filter id="filter0_d" x="0.40979" y="0.75" width="68.5" height="68.5" filterUnits="userSpaceOnUse" color-interpolation-filters="sRGB">
<feFlood flood-opacity="0" result="BackgroundImageFix"/>
<feColorMatrix in="SourceAlpha" type="matrix" values="0 0 0 0 0 0 0 0 0 0 0 0 0 0 0 0 0 0 127 0"/>
<feOffset/>
<feGaussianBlur stdDeviation="5"/>
<feColorMatrix type="matrix" values="0 0 0 0 0 0 0 0 0 0 0 0 0 0 0 0 0 0 0.1 0"/>
<feBlend mode="normal" in2="BackgroundImageFix" result="effect1_dropShadow"/>
<feBlend mode="normal" in="SourceGraphic" in2="effect1_dropShadow" result="shape"/>
</filter>
</defs>
</svg>
