<svg width="30" height="30" viewBox="0 0 30 30" fill="none" xmlns="http://www.w3.org/2000/svg">
<path d="M14.8831 2.47852C8.33276 2.47852 2.7998 8.01147 2.7998 14.5618C2.7998 21.1122 8.33276 26.6452 14.8831 26.6452C21.4335 26.6452 26.9665 21.1122 26.9665 14.5618C26.9665 8.01147 21.4335 2.47852 14.8831 2.47852ZM14.8831 8.52018C16.9699 8.52018 18.5081 10.0572 18.5081 12.1452C18.5081 14.2332 16.9699 15.7702 14.8831 15.7702C12.7976 15.7702 11.2581 14.2332 11.2581 12.1452C11.2581 10.0572 12.7976 8.52018 14.8831 8.52018ZM8.71339 20.328C9.79726 18.733 11.6049 17.6697 13.6748 17.6697H16.0915C18.1626 17.6697 19.969 18.733 21.0529 20.328C19.5086 21.981 17.3179 23.0202 14.8831 23.0202C12.4483 23.0202 10.2576 21.981 8.71339 20.328Z" fill="#CBCBCB"/>
</svg>
