<svg width="58" height="57" viewBox="0 0 58 57" fill="none" xmlns="http://www.w3.org/2000/svg">
<g clip-path="url(#clip0)">
<path d="M28.8672 57C21.3085 57 14.0594 53.9973 8.71464 48.6525C3.36986 43.3078 0.367188 36.0587 0.367188 28.5C0.367188 20.9413 3.36986 13.6922 8.71464 8.34746C14.0594 3.00267 21.3085 0 28.8672 0C36.4259 0 43.6749 3.00267 49.0197 8.34746C54.3645 13.6922 57.3672 20.9413 57.3672 28.5C57.3672 36.0587 54.3645 43.3078 49.0197 48.6525C43.6749 53.9973 36.4259 57 28.8672 57ZM20.3172 17.1V22.8C20.3172 25.0676 21.218 27.2423 22.8214 28.8458C24.4249 30.4492 26.5996 31.35 28.8672 31.35C31.1348 31.35 33.3095 30.4492 34.9129 28.8458C36.5164 27.2423 37.4172 25.0676 37.4172 22.8V17.1C37.4172 14.8324 36.5164 12.6577 34.9129 11.0542C33.3095 9.4508 31.1348 8.55 28.8672 8.55C26.5996 8.55 24.4249 9.4508 22.8214 11.0542C21.218 12.6577 20.3172 14.8324 20.3172 17.1ZM9.91469 41.154C11.9982 44.2695 14.8176 46.8233 18.1233 48.5894C21.4291 50.3556 25.1192 51.2795 28.8672 51.2795C32.6151 51.2795 36.3053 50.3556 39.6111 48.5894C42.9168 46.8233 45.7362 44.2695 47.8197 41.154C41.8741 38.4247 35.4092 37.0118 28.8672 37.0118C22.3251 37.0118 15.8602 38.4247 9.91469 41.154Z" fill="#30AEE4"/>
</g>
<defs>
<clipPath id="clip0">
<rect width="57" height="57" fill="white" transform="translate(0.367188)"/>
</clipPath>
</defs>
</svg>
