<svg width="19" height="17" viewBox="0 0 19 17" fill="none" xmlns="http://www.w3.org/2000/svg">
<path fill-rule="evenodd" clip-rule="evenodd" d="M9.17157 0.835683C9.27798 0.941822 9.3624 1.06791 9.42 1.20673C9.47761 1.34554 9.50725 1.49436 9.50725 1.64465C9.50725 1.79494 9.47761 1.94376 9.42 2.08257C9.3624 2.22139 9.27798 2.34748 9.17157 2.45362L3.1226 8.5003L9.17157 14.547C9.27781 14.6532 9.36208 14.7793 9.41957 14.9181C9.47707 15.0569 9.50666 15.2057 9.50666 15.3559C9.50666 15.5062 9.47707 15.655 9.41957 15.7938C9.36208 15.9326 9.27781 16.0587 9.17157 16.1649C9.06534 16.2712 8.93922 16.3554 8.80042 16.4129C8.66161 16.4704 8.51284 16.5 8.36261 16.5C8.21237 16.5 8.0636 16.4704 7.9248 16.4129C7.78599 16.3554 7.65987 16.2712 7.55364 16.1649L0.697989 9.30927C0.591582 9.20313 0.507159 9.07704 0.449557 8.93822C0.391955 8.79941 0.362305 8.65059 0.362305 8.5003C0.362305 8.35001 0.391955 8.20119 0.449557 8.06238C0.507159 7.92356 0.591582 7.79747 0.697989 7.69133L7.55364 0.835683C7.65978 0.729276 7.78586 0.644854 7.92468 0.587251C8.0635 0.529649 8.21231 0.5 8.36261 0.5C8.5129 0.5 8.66171 0.529649 8.80053 0.587251C8.93935 0.644854 9.06543 0.729276 9.17157 0.835683Z" fill="white"/>
<path fill-rule="evenodd" clip-rule="evenodd" d="M1.50732 8.50003C1.50732 8.19699 1.62771 7.90637 1.84199 7.69208C2.05627 7.4778 2.34689 7.35742 2.64993 7.35742L17.5038 7.35742C17.8069 7.35742 18.0975 7.4778 18.3118 7.69208C18.5261 7.90637 18.6464 8.19699 18.6464 8.50003C18.6464 8.80307 18.5261 9.0937 18.3118 9.30798C18.0975 9.52226 17.8069 9.64264 17.5038 9.64264L2.64993 9.64264C2.34689 9.64264 2.05627 9.52226 1.84199 9.30798C1.62771 9.0937 1.50732 8.80307 1.50732 8.50003Z" fill="white"/>
</svg>
