<svg width="28" height="41" viewBox="0 0 28 41" fill="none" xmlns="http://www.w3.org/2000/svg">
<path d="M13.8397 0.916016C6.26093 0.916016 0.131348 7.0456 0.131348 14.6243C0.131348 24.9056 13.8397 40.0827 13.8397 40.0827C13.8397 40.0827 27.548 24.9056 27.548 14.6243C27.548 7.0456 21.4184 0.916016 13.8397 0.916016ZM13.8397 19.5202C12.5412 19.5202 11.296 19.0044 10.3778 18.0862C9.45966 17.1681 8.94385 15.9228 8.94385 14.6243C8.94385 13.3259 9.45966 12.0806 10.3778 11.1625C11.296 10.2443 12.5412 9.72852 13.8397 9.72852C15.1381 9.72852 16.3834 10.2443 17.3016 11.1625C18.2197 12.0806 18.7355 13.3259 18.7355 14.6243C18.7355 15.9228 18.2197 17.1681 17.3016 18.0862C16.3834 19.0044 15.1381 19.5202 13.8397 19.5202Z" fill="black" fill-opacity="0.2"/>
</svg>
