<svg width="36" height="50" viewBox="0 0 36 50" fill="none" xmlns="http://www.w3.org/2000/svg">
<path d="M18 0C8.325 0 0.5 7.825 0.5 17.5C0.5 30.625 18 50 18 50C18 50 35.5 30.625 35.5 17.5C35.5 7.825 27.675 0 18 0ZM18 23.75C16.3424 23.75 14.7527 23.0915 13.5806 21.9194C12.4085 20.7473 11.75 19.1576 11.75 17.5C11.75 15.8424 12.4085 14.2527 13.5806 13.0806C14.7527 11.9085 16.3424 11.25 18 11.25C19.6576 11.25 21.2473 11.9085 22.4194 13.0806C23.5915 14.2527 24.25 15.8424 24.25 17.5C24.25 19.1576 23.5915 20.7473 22.4194 21.9194C21.2473 23.0915 19.6576 23.75 18 23.75Z" fill="#FF4F4F"/>
</svg>
