<svg width="25" height="24" viewBox="0 0 25 24" fill="none" xmlns="http://www.w3.org/2000/svg">
<path d="M18.3833 8C18.3833 6.4087 17.7512 4.88258 16.6259 3.75736C15.5007 2.63214 13.9746 2 12.3833 2C10.792 2 9.26588 2.63214 8.14066 3.75736C7.01544 4.88258 6.3833 6.4087 6.3833 8C6.3833 15 3.3833 17 3.3833 17H21.3833C21.3833 17 18.3833 15 18.3833 8Z" stroke="white" stroke-width="2" stroke-linecap="round" stroke-linejoin="round"/>
<path d="M14.1133 20.5059C13.9375 20.8089 13.6852 21.0605 13.3815 21.2354C13.0779 21.4103 12.7337 21.5023 12.3833 21.5023C12.0329 21.5023 11.6887 21.4103 11.3851 21.2354C11.0815 21.0605 10.8291 20.8089 10.6533 20.5059" stroke="white" stroke-width="2" stroke-linecap="round" stroke-linejoin="round"/>
</svg>
