<svg width="97" height="96" viewBox="0 0 97 96" fill="none" xmlns="http://www.w3.org/2000/svg">
<circle cx="48.1094" cy="48" r="48" fill="#FFCF01" fill-opacity="0.2"/>
<path d="M65.8177 27.8332H60.901V22.9165H55.9844V27.8332H41.2344V22.9165H36.3177V27.8332H31.401C28.6895 27.8332 26.4844 30.0383 26.4844 32.7498V67.1665C26.4844 69.878 28.6895 72.0832 31.401 72.0832H65.8177C68.5292 72.0832 70.7344 69.878 70.7344 67.1665V32.7498C70.7344 30.0383 68.5292 27.8332 65.8177 27.8332ZM65.8226 67.1665H31.401V37.6665H65.8177L65.8226 67.1665Z" fill="#F6A609"/>
<path d="M46.1502 60.8095L60.1799 46.7798L56.7038 43.3037L46.1502 53.8573L40.5132 48.2204L37.0371 51.6965L46.1502 60.8095Z" fill="#F6A609"/>
</svg>
