<svg width="25" height="26" viewBox="0 0 25 26" fill="none" xmlns="http://www.w3.org/2000/svg">
<path d="M18.3833 10C18.3833 8.4087 17.7512 6.88258 16.6259 5.75736C15.5007 4.63214 13.9746 4 12.3833 4C10.792 4 9.26588 4.63214 8.14066 5.75736C7.01544 6.88258 6.3833 8.4087 6.3833 10C6.3833 17 3.3833 19 3.3833 19H21.3833C21.3833 19 18.3833 17 18.3833 10Z" stroke="white" stroke-width="2" stroke-linecap="round" stroke-linejoin="round"/>
<path d="M14.1133 22.5059C13.9375 22.8089 13.6852 23.0605 13.3815 23.2354C13.0779 23.4103 12.7337 23.5023 12.3833 23.5023C12.0329 23.5023 11.6887 23.4103 11.3851 23.2354C11.0815 23.0605 10.8291 22.8089 10.6533 22.5059" stroke="white" stroke-width="2" stroke-linecap="round" stroke-linejoin="round"/>
<circle cx="17.838" cy="4.18129" r="3.63636" fill="#FFCF01"/>
</svg>
