<svg width="21" height="20" viewBox="0 0 21 20" fill="none" xmlns="http://www.w3.org/2000/svg">
<path d="M10.6602 1.875C6.18008 1.875 2.53516 5.51992 2.53516 10C2.53516 14.4801 6.18008 18.125 10.6602 18.125C15.1402 18.125 18.7852 14.4801 18.7852 10C18.7852 5.51992 15.1402 1.875 10.6602 1.875ZM13.602 12.0582C13.6624 12.1157 13.7108 12.1846 13.7442 12.2611C13.7776 12.3375 13.7954 12.4199 13.7964 12.5033C13.7975 12.5867 13.7818 12.6695 13.7504 12.7468C13.719 12.8241 13.6724 12.8943 13.6134 12.9533C13.5544 13.0122 13.4842 13.0588 13.4069 13.0903C13.3297 13.1217 13.2469 13.1373 13.1635 13.1363C13.0801 13.1352 12.9977 13.1174 12.9213 13.084C12.8448 13.0506 12.7758 13.0023 12.7184 12.9418L10.6602 10.884L8.60195 12.9418C8.48379 13.0541 8.32645 13.1157 8.16347 13.1136C8.00049 13.1115 7.84478 13.0459 7.72953 12.9306C7.61428 12.8154 7.54861 12.6597 7.54652 12.4967C7.54444 12.3337 7.6061 12.1764 7.71836 12.0582L9.77617 10L7.71836 7.9418C7.6061 7.82363 7.54444 7.66629 7.54652 7.50331C7.54861 7.34034 7.61428 7.18462 7.72953 7.06937C7.84478 6.95412 8.00049 6.88845 8.16347 6.88637C8.32645 6.88428 8.48379 6.94594 8.60195 7.0582L10.6602 9.11602L12.7184 7.0582C12.8365 6.94594 12.9939 6.88428 13.1568 6.88637C13.3198 6.88845 13.4755 6.95412 13.5908 7.06937C13.706 7.18462 13.7717 7.34034 13.7738 7.50331C13.7759 7.66629 13.7142 7.82363 13.602 7.9418L11.5441 10L13.602 12.0582Z" fill="black" fill-opacity="0.3"/>
</svg>
