<svg width="26" height="25" viewBox="0 0 26 25" fill="none" xmlns="http://www.w3.org/2000/svg">
<path fill-rule="evenodd" clip-rule="evenodd" d="M2.61478 7.25882C2.68735 7.18606 2.77356 7.12834 2.86847 7.08895C2.96339 7.04957 3.06514 7.0293 3.1679 7.0293C3.27066 7.0293 3.37241 7.04957 3.46733 7.08895C3.56224 7.12834 3.64845 7.18606 3.72103 7.25882L12.5429 16.0823L21.3648 7.25882C21.4374 7.18618 21.5236 7.12856 21.6186 7.08925C21.7135 7.04994 21.8152 7.02971 21.9179 7.02971C22.0206 7.02971 22.1223 7.04994 22.2172 7.08925C22.3122 7.12856 22.3984 7.18618 22.471 7.25882C22.5437 7.33146 22.6013 7.41769 22.6406 7.51259C22.6799 7.6075 22.7001 7.70922 22.7001 7.81194C22.7001 7.91467 22.6799 8.01639 22.6406 8.11129C22.6013 8.2062 22.5437 8.29243 22.471 8.36507L13.096 17.7401C13.0235 17.8128 12.9372 17.8705 12.8423 17.9099C12.7474 17.9493 12.6457 17.9696 12.5429 17.9696C12.4401 17.9696 12.3384 17.9493 12.2435 17.9099C12.1486 17.8705 12.0623 17.8128 11.9898 17.7401L2.61478 8.36507C2.54202 8.2925 2.4843 8.20629 2.44491 8.11137C2.40553 8.01646 2.38525 7.9147 2.38525 7.81194C2.38525 7.70918 2.40553 7.60743 2.44491 7.51252C2.4843 7.4176 2.54202 7.33139 2.61478 7.25882Z" fill="black"/>
</svg>
