<svg width="59" height="58" viewBox="0 0 59 58" fill="none" xmlns="http://www.w3.org/2000/svg">
<path fill-rule="evenodd" clip-rule="evenodd" d="M45.2407 13.6132C43.1963 11.5901 40.7638 9.98602 38.0842 8.89376C35.4046 7.80151 32.5311 7.24282 29.6303 7.25007C17.4665 7.25007 7.56429 16.982 7.55938 28.9445C7.55938 32.7676 8.57467 36.499 10.5045 39.7905L7.375 51.0304L19.0742 48.012C22.3103 49.7438 25.9359 50.6518 29.6205 50.6534H29.6303C41.7917 50.6534 51.6938 40.9215 51.6987 28.959C51.7071 26.1085 51.1407 23.2846 50.0322 20.6506C48.9237 18.0166 47.2952 15.6247 45.2407 13.6132ZM29.6303 46.9921H29.6229C26.3374 46.9925 23.1123 46.1235 20.2862 44.4764L19.6175 44.0849L12.6752 45.8756L14.5263 39.2226L14.0912 38.5411C12.2543 35.6663 11.2819 32.3394 11.2862 28.9445C11.2911 19.0023 19.5192 10.9137 29.6377 10.9137C32.0474 10.9085 34.4344 11.3731 36.6603 12.2807C38.8862 13.1884 40.9069 14.521 42.6054 16.2014C44.313 17.8738 45.6665 19.8624 46.5876 22.0521C47.5087 24.2419 47.9792 26.5894 47.9719 28.959C47.967 38.9011 39.739 46.9921 29.6303 46.9921Z" fill="#30AEE4"/>
<path d="M20.7559 31.4173C22.1136 31.4173 23.2143 30.3353 23.2143 29.0007C23.2143 27.666 22.1136 26.584 20.7559 26.584C19.3982 26.584 18.2976 27.666 18.2976 29.0007C18.2976 30.3353 19.3982 31.4173 20.7559 31.4173Z" fill="#30AEE4"/>
<path d="M29.5001 31.4173C30.8578 31.4173 31.9584 30.3353 31.9584 29.0007C31.9584 27.666 30.8578 26.584 29.5001 26.584C28.1424 26.584 27.0417 27.666 27.0417 29.0007C27.0417 30.3353 28.1424 31.4173 29.5001 31.4173Z" fill="#30AEE4"/>
<path d="M38.244 31.4173C39.6017 31.4173 40.7023 30.3353 40.7023 29.0007C40.7023 27.666 39.6017 26.584 38.244 26.584C36.8863 26.584 35.7856 27.666 35.7856 29.0007C35.7856 30.3353 36.8863 31.4173 38.244 31.4173Z" fill="#30AEE4"/>
</svg>
