<svg width="15" height="16" viewBox="0 0 15 16" fill="none" xmlns="http://www.w3.org/2000/svg">
<path fill-rule="evenodd" clip-rule="evenodd" d="M15 8C15 9.98912 14.2098 11.8968 12.8033 13.3033C11.3968 14.7098 9.48912 15.5 7.5 15.5C5.51088 15.5 3.60322 14.7098 2.1967 13.3033C0.790176 11.8968 0 9.98912 0 8C0 6.01088 0.790176 4.10322 2.1967 2.6967C3.60322 1.29018 5.51088 0.5 7.5 0.5C9.48912 0.5 11.3968 1.29018 12.8033 2.6967C14.2098 4.10322 15 6.01088 15 8ZM11.2781 5.15937C11.2112 5.09264 11.1314 5.0401 11.0437 5.00489C10.9559 4.96968 10.862 4.95252 10.7675 4.95445C10.673 4.95637 10.5798 4.97734 10.4936 5.0161C10.4073 5.05485 10.3298 5.1106 10.2656 5.18L7.00969 9.32844L5.0475 7.36531C4.91421 7.24111 4.73792 7.1735 4.55576 7.17671C4.3736 7.17993 4.1998 7.25372 4.07098 7.38254C3.94215 7.51137 3.86836 7.68517 3.86515 7.86732C3.86193 8.04948 3.92955 8.22577 4.05375 8.35906L6.53437 10.8406C6.6012 10.9073 6.68078 10.9599 6.76836 10.9952C6.85594 11.0305 6.94973 11.0477 7.04414 11.046C7.13854 11.0442 7.23163 11.0235 7.31784 10.985C7.40405 10.9465 7.48163 10.891 7.54594 10.8219L11.2884 6.14375C11.416 6.01109 11.4865 5.8337 11.4848 5.64965C11.483 5.4656 11.4092 5.28958 11.2791 5.15937H11.2781Z" fill="#70E27C"/>
</svg>
