<svg width="69" height="69" viewBox="0 0 69 69" fill="none" xmlns="http://www.w3.org/2000/svg">
<path d="M34.5 5.75C35.2625 5.75 35.9938 6.0529 36.5329 6.59207C37.0721 7.13123 37.375 7.8625 37.375 8.625V17.25C37.375 18.0125 37.0721 18.7438 36.5329 19.2829C35.9938 19.8221 35.2625 20.125 34.5 20.125C33.7375 20.125 33.0062 19.8221 32.4671 19.2829C31.9279 18.7438 31.625 18.0125 31.625 17.25V8.625C31.625 7.8625 31.9279 7.13123 32.4671 6.59207C33.0062 6.0529 33.7375 5.75 34.5 5.75ZM34.5 48.875C35.2625 48.875 35.9938 49.1779 36.5329 49.7171C37.0721 50.2562 37.375 50.9875 37.375 51.75V60.375C37.375 61.1375 37.0721 61.8688 36.5329 62.4079C35.9938 62.9471 35.2625 63.25 34.5 63.25C33.7375 63.25 33.0062 62.9471 32.4671 62.4079C31.9279 61.8688 31.625 61.1375 31.625 60.375V51.75C31.625 50.9875 31.9279 50.2562 32.4671 49.7171C33.0062 49.1779 33.7375 48.875 34.5 48.875ZM63.25 34.5C63.25 35.2625 62.9471 35.9938 62.4079 36.5329C61.8688 37.0721 61.1375 37.375 60.375 37.375H51.75C50.9875 37.375 50.2562 37.0721 49.7171 36.5329C49.1779 35.9938 48.875 35.2625 48.875 34.5C48.875 33.7375 49.1779 33.0062 49.7171 32.4671C50.2562 31.9279 50.9875 31.625 51.75 31.625H60.375C61.1375 31.625 61.8688 31.9279 62.4079 32.4671C62.9471 33.0062 63.25 33.7375 63.25 34.5ZM20.125 34.5C20.125 35.2625 19.8221 35.9938 19.2829 36.5329C18.7438 37.0721 18.0125 37.375 17.25 37.375H8.625C7.8625 37.375 7.13123 37.0721 6.59207 36.5329C6.0529 35.9938 5.75 35.2625 5.75 34.5C5.75 33.7375 6.0529 33.0062 6.59207 32.4671C7.13123 31.9279 7.8625 31.625 8.625 31.625H17.25C18.0125 31.625 18.7438 31.9279 19.2829 32.4671C19.8221 33.0062 20.125 33.7375 20.125 34.5ZM54.8291 54.8291C54.29 55.3681 53.5588 55.6709 52.7965 55.6709C52.0342 55.6709 51.303 55.3681 50.7639 54.8291L44.666 48.7313C44.1423 48.189 43.8525 47.4628 43.8591 46.709C43.8656 45.9552 44.168 45.2341 44.701 44.701C45.2341 44.168 45.9552 43.8656 46.709 43.8591C47.4628 43.8525 48.189 44.1423 48.7313 44.666L54.8291 50.761C55.0964 51.028 55.3085 51.3451 55.4532 51.6941C55.5979 52.0431 55.6723 52.4172 55.6723 52.7951C55.6723 53.1729 55.5979 53.547 55.4532 53.896C55.3085 54.245 55.0964 54.5621 54.8291 54.8291ZM24.334 24.334C23.7949 24.873 23.0637 25.1758 22.3014 25.1758C21.539 25.1758 20.8079 24.873 20.2688 24.334L14.1737 18.239C13.6343 17.6999 13.3311 16.9686 13.3308 16.206C13.3305 15.4433 13.6332 14.7118 14.1723 14.1723C14.7114 13.6328 15.4427 13.3296 16.2054 13.3294C16.968 13.3291 17.6995 13.6318 18.239 14.1709L24.334 20.2688C24.873 20.8079 25.1758 21.539 25.1758 22.3014C25.1758 23.0637 24.873 23.7949 24.334 24.334ZM14.1737 54.8291C13.6348 54.29 13.332 53.5588 13.332 52.7965C13.332 52.0342 13.6348 51.303 14.1737 50.7639L20.2716 44.666C20.5368 44.3914 20.8541 44.1724 21.2048 44.0217C21.5556 43.871 21.9329 43.7917 22.3146 43.7884C22.6963 43.7851 23.0749 43.8578 23.4282 44.0024C23.7816 44.1469 24.1026 44.3604 24.3725 44.6304C24.6425 44.9003 24.8559 45.2213 25.0005 45.5746C25.145 45.928 25.2178 46.3065 25.2145 46.6883C25.2112 47.07 25.1318 47.4473 24.9812 47.798C24.8305 48.1488 24.6115 48.466 24.3369 48.7313L18.2419 54.8291C17.9749 55.0964 17.6578 55.3085 17.3088 55.4532C16.9597 55.5979 16.5856 55.6723 16.2078 55.6723C15.83 55.6723 15.4559 55.5979 15.1069 55.4532C14.7578 55.3085 14.4408 55.0964 14.1737 54.8291ZM44.666 24.334C44.127 23.7949 43.8242 23.0637 43.8242 22.3014C43.8242 21.539 44.127 20.8079 44.666 20.2688L50.761 14.1709C51.3001 13.6314 52.0314 13.3282 52.794 13.3279C53.5567 13.3276 54.2882 13.6304 54.8277 14.1694C55.3672 14.7085 55.6704 15.4398 55.6706 16.2025C55.6709 16.9651 55.3682 17.6967 54.8291 18.2361L48.7313 24.334C48.1921 24.873 47.461 25.1758 46.6986 25.1758C45.9363 25.1758 45.2051 24.873 44.666 24.334Z" fill="#30AEE4"/>
</svg>
