<svg width="97" height="97" viewBox="0 0 97 97" fill="none" xmlns="http://www.w3.org/2000/svg">
<circle cx="48.543" cy="48.5" r="48" fill="#D2F7D6"/>
<path fill-rule="evenodd" clip-rule="evenodd" d="M69.622 33.437C70.2117 34.0371 70.543 34.8509 70.543 35.6995C70.543 36.548 70.2117 37.3618 69.622 37.9619L44.4566 63.563C43.8667 64.163 43.0668 64.5 42.2326 64.5C41.3985 64.5 40.5986 64.163 40.0087 63.563L27.426 50.7625C26.853 50.1589 26.5359 49.3506 26.5431 48.5115C26.5503 47.6725 26.8811 46.8698 27.4643 46.2765C28.0475 45.6832 28.8365 45.3466 29.6613 45.3393C30.4861 45.332 31.2807 45.6546 31.874 46.2375L42.2326 56.7756L65.174 33.437C65.7639 32.837 66.5639 32.5 67.398 32.5C68.2321 32.5 69.0321 32.837 69.622 33.437Z" fill="#29C768"/>
</svg>
