<svg width="97" height="97" viewBox="0 0 97 97" fill="none" xmlns="http://www.w3.org/2000/svg">
<circle cx="48.8945" cy="48.6221" r="48" fill="#30AEE4" fill-opacity="0.2"/>
<path d="M48.8938 20.4199C37.9796 20.4199 29.1523 29.2472 29.1523 40.1614C29.1523 54.9675 48.8938 76.8241 48.8938 76.8241C48.8938 76.8241 68.6353 54.9675 68.6353 40.1614C68.6353 29.2472 59.808 20.4199 48.8938 20.4199ZM48.8938 47.2119C47.0239 47.2119 45.2306 46.4691 43.9083 45.1469C42.5861 43.8246 41.8433 42.0313 41.8433 40.1614C41.8433 38.2915 42.5861 36.4981 43.9083 35.1759C45.2306 33.8537 47.0239 33.1109 48.8938 33.1109C50.7637 33.1109 52.5571 33.8537 53.8793 35.1759C55.2015 36.4981 55.9443 38.2915 55.9443 40.1614C55.9443 42.0313 55.2015 43.8246 53.8793 45.1469C52.5571 46.4691 50.7637 47.2119 48.8938 47.2119Z" fill="#30AEE4"/>
</svg>
