<svg width="96" height="96" viewBox="0 0 96 96" fill="none" xmlns="http://www.w3.org/2000/svg">
<circle cx="48" cy="48" r="48" fill="#FFC6C6"/>
<path d="M48.0007 50.416C48.6416 50.416 49.2563 50.1614 49.7095 49.7082C50.1627 49.255 50.4173 48.6403 50.4173 47.9993V23.8327C50.4173 23.1917 50.1627 22.5771 49.7095 22.1238C49.2563 21.6706 48.6416 21.416 48.0007 21.416C47.3597 21.416 46.745 21.6706 46.2918 22.1238C45.8386 22.5771 45.584 23.1917 45.584 23.8327V47.9993C45.584 48.6403 45.8386 49.255 46.2918 49.7082C46.745 50.1614 47.3597 50.416 48.0007 50.416Z" fill="#FF4F4F"/>
<path d="M59.0932 26.5144C58.5227 26.2196 57.8585 26.1635 57.2467 26.3583C56.6349 26.5532 56.1255 26.9832 55.8307 27.5536C55.5358 28.124 55.4797 28.7882 55.6746 29.4001C55.8694 30.0119 56.2994 30.5213 56.8698 30.8161C60.7207 32.8042 63.7919 36.0285 65.5904 39.9715C67.389 43.9144 67.8106 48.3473 66.7877 52.5586C65.7647 56.7699 63.3565 60.5154 59.9495 63.1938C56.5425 65.8723 52.3344 67.3284 48.0007 67.3284C43.6669 67.3284 39.4588 65.8723 36.0518 63.1938C32.6449 60.5154 30.2366 56.7699 29.2137 52.5586C28.1907 48.3473 28.6123 43.9144 30.4109 39.9715C32.2095 36.0285 35.2807 32.8042 39.1315 30.8161C39.414 30.6701 39.6649 30.4699 39.87 30.227C40.0751 29.984 40.2303 29.703 40.3268 29.4001C40.4233 29.0971 40.4591 28.7781 40.4324 28.4613C40.4056 28.1445 40.3167 27.8361 40.1707 27.5536C40.0247 27.2712 39.8245 27.0202 39.5815 26.8151C39.3386 26.6101 39.0576 26.4548 38.7546 26.3583C38.4517 26.2618 38.1327 26.226 37.8159 26.2527C37.4991 26.2795 37.1906 26.3685 36.9082 26.5144C32.0958 29.0007 28.2583 33.0315 26.0113 37.9601C23.7644 42.8888 23.2384 48.4293 24.5177 53.6927C25.797 58.9561 28.8075 63.6371 33.066 66.9845C37.3244 70.3319 42.584 72.1516 48.0007 72.1516C53.4173 72.1516 58.6769 70.3319 62.9354 66.9845C67.1939 63.6371 70.2043 58.9561 71.4836 53.6927C72.7629 48.4293 72.2369 42.8888 69.99 37.9601C67.7431 33.0315 63.9055 29.0007 59.0932 26.5144Z" fill="#FF4F4F"/>
</svg>
