<svg width="56" height="56" viewBox="0 0 56 56" fill="none" xmlns="http://www.w3.org/2000/svg">
<path fill-rule="evenodd" clip-rule="evenodd" d="M42.9403 13.1437C40.9998 11.1905 38.691 9.64167 36.1477 8.58708C33.6043 7.53249 30.877 6.99307 28.1237 7.00007C16.5783 7.00007 7.17967 16.3964 7.175 27.9464C7.175 31.6377 8.13867 35.2404 9.97033 38.4184L7 49.2707L18.1043 46.3564C21.1759 48.0285 24.6171 48.9052 28.1143 48.9067H28.1237C39.6667 48.9067 49.0653 39.5104 49.07 27.9604C49.0779 25.2082 48.5403 22.4817 47.4882 19.9385C46.4361 17.3954 44.8903 15.0859 42.9403 13.1437ZM28.1237 45.3717H28.1167C24.9982 45.3721 21.9371 44.533 19.2547 42.9427L18.62 42.5647L12.0307 44.2937L13.7877 37.8701L13.3747 37.2121C11.6312 34.4364 10.7082 31.2242 10.7123 27.9464C10.717 18.3471 18.5267 10.5374 28.1307 10.5374C30.4179 10.5323 32.6835 10.9809 34.7962 11.8573C36.9089 12.7336 38.8268 14.0202 40.439 15.6427C42.0598 17.2575 43.3444 19.1775 44.2187 21.2917C45.093 23.406 45.5396 25.6725 45.5327 27.9604C45.528 37.5597 37.7183 45.3717 28.1237 45.3717ZM37.674 32.3307C37.149 32.0671 34.5777 30.8024 34.097 30.6274C33.6187 30.4524 33.271 30.3661 32.921 30.8887C32.571 31.4114 31.5677 32.5897 31.262 32.9397C30.9563 33.2897 30.6507 33.3317 30.128 33.0704C29.6053 32.8091 27.9183 32.2561 25.9187 30.4734C24.3623 29.0851 23.3123 27.3724 23.0067 26.8474C22.701 26.3224 22.974 26.0401 23.2377 25.7787C23.4733 25.5454 23.7603 25.1674 24.0217 24.8617C24.283 24.5561 24.3693 24.3391 24.5443 23.9891C24.7193 23.6391 24.633 23.3334 24.5 23.0721C24.3693 22.8084 23.3217 20.2324 22.8853 19.1847C22.463 18.1697 22.0313 18.3051 21.7093 18.2911C21.3758 18.2774 21.0421 18.2712 20.7083 18.2724C20.4429 18.2792 20.1818 18.3407 19.9413 18.4531C19.7008 18.5655 19.4861 18.7264 19.3107 18.9257C18.83 19.4507 17.479 20.7154 17.479 23.2914C17.479 25.8674 19.355 28.3571 19.6163 28.7071C19.8777 29.0571 23.3077 34.3421 28.5577 36.6101C29.8083 37.1491 30.7837 37.4711 31.542 37.7137C32.795 38.1127 33.936 38.0544 34.839 37.9214C35.8447 37.7721 37.9353 36.6567 38.3717 35.4341C38.808 34.2114 38.808 33.1637 38.6773 32.9444C38.5467 32.7251 38.1943 32.5921 37.674 32.3307Z" fill="#48CB84"/>
</svg>
