<svg width="92" height="92" viewBox="0 0 92 92" fill="none" xmlns="http://www.w3.org/2000/svg">
<rect width="92" height="92" rx="32" fill="black" fill-opacity="0.05"/>
<path d="M70.4168 66.3607C70.4168 69.7218 67.6668 72.4718 64.3057 72.4718H30.6946C27.3335 72.4718 24.5835 69.7218 24.5835 66.3607V40.3885C24.5835 37.0273 27.3335 34.2773 30.6946 34.2773H64.3057C67.6668 34.2773 70.4168 37.0273 70.4168 40.3885V66.3607Z" fill="#FDD888"/>
<path d="M75 35.8064C75 39.1675 72.25 41.9175 68.8889 41.9175H26.1111C22.75 41.9175 20 39.1675 20 35.8064C20 32.4453 22.75 29.6953 26.1111 29.6953H68.8889C72.25 29.6953 75 32.4453 75 35.8064Z" fill="#FDD888"/>
<path d="M24.5835 41.916H70.4168V44.9716H24.5835V41.916Z" fill="#FCAB40"/>
<path d="M49.0276 23.584H45.972C44.7564 23.584 43.5906 24.0669 42.7311 24.9264C41.8716 25.786 41.3887 26.9517 41.3887 28.1673V72.4729H53.6109V28.1673C53.6109 26.9517 53.128 25.786 52.2685 24.9264C51.4089 24.0669 50.2431 23.584 49.0276 23.584Z" fill="#30AEE4"/>
<path d="M44.4447 29.696C46.1252 29.696 46.3743 28.9077 44.9962 27.9436L34.7265 20.7539C34.4114 20.5245 34.051 20.3649 33.6694 20.2857C33.2877 20.2065 32.8936 20.2096 32.5132 20.2948C32.1328 20.3799 31.775 20.5452 31.4635 20.7795C31.1521 21.0139 30.8941 21.3119 30.7069 21.6538L27.6269 27.0438C26.7928 28.5028 27.4864 29.696 29.1669 29.696H44.4447ZM50.5558 29.696C48.8752 29.696 48.6262 28.9077 50.0043 27.9436L60.2755 20.7539C60.5907 20.5247 60.9511 20.3653 61.3327 20.2863C61.7143 20.2072 62.1084 20.2104 62.4887 20.2955C62.869 20.3807 63.2267 20.5458 63.5382 20.78C63.8497 21.0142 64.1077 21.3121 64.2951 21.6538L67.3751 27.0423C68.2077 28.5028 67.5141 29.696 65.8336 29.696H50.5558Z" fill="#30AEE4"/>
<g filter="url(#filter0_d)">
<circle cx="47" cy="49" r="13" fill="#29C768"/>
<circle cx="47" cy="49" r="12.25" stroke="white" stroke-opacity="0.56" stroke-width="1.5"/>
</g>
<path d="M51.6668 46.5L45.2502 52.9167L42.3335 50" stroke="white" stroke-width="2" stroke-linecap="round" stroke-linejoin="round"/>
<defs>
<filter id="filter0_d" x="30" y="36" width="34" height="34" filterUnits="userSpaceOnUse" color-interpolation-filters="sRGB">
<feFlood flood-opacity="0" result="BackgroundImageFix"/>
<feColorMatrix in="SourceAlpha" type="matrix" values="0 0 0 0 0 0 0 0 0 0 0 0 0 0 0 0 0 0 127 0"/>
<feOffset dy="4"/>
<feGaussianBlur stdDeviation="2"/>
<feColorMatrix type="matrix" values="0 0 0 0 0.160784 0 0 0 0 0.780392 0 0 0 0 0.407843 0 0 0 0.2 0"/>
<feBlend mode="normal" in2="BackgroundImageFix" result="effect1_dropShadow"/>
<feBlend mode="normal" in="SourceGraphic" in2="effect1_dropShadow" result="shape"/>
</filter>
</defs>
</svg>
