<svg width="25" height="29" viewBox="0 0 25 29" fill="none" xmlns="http://www.w3.org/2000/svg">
<path d="M18.75 12.3335C18.75 10.6759 18.0915 9.08618 16.9194 7.91408C15.7473 6.74198 14.1576 6.0835 12.5 6.0835C10.8424 6.0835 9.25268 6.74198 8.08058 7.91408C6.90848 9.08618 6.25 10.6759 6.25 12.3335C6.25 19.6252 3.125 21.7085 3.125 21.7085H21.875C21.875 21.7085 18.75 19.6252 18.75 12.3335Z" stroke="black" stroke-opacity="0.5" stroke-width="2" stroke-linecap="round" stroke-linejoin="round"/>
<path d="M14.3014 25.3599C14.1183 25.6756 13.8554 25.9376 13.5392 26.1198C13.2229 26.302 12.8643 26.3978 12.4993 26.3978C12.1344 26.3978 11.7758 26.302 11.4595 26.1198C11.1433 25.9376 10.8804 25.6756 10.6973 25.3599" stroke="black" stroke-opacity="0.5" stroke-width="2" stroke-linecap="round" stroke-linejoin="round"/>
<circle cx="17" cy="5" r="5" fill="#FFCF01"/>
</svg>
