<svg width="17" height="16" viewBox="0 0 17 16" fill="none" xmlns="http://www.w3.org/2000/svg">
<path d="M10.8835 0.666016C11.0603 0.666016 11.2298 0.736253 11.3549 0.861278C11.4799 0.986302 11.5501 1.15587 11.5501 1.33268C11.5501 1.50949 11.4799 1.67906 11.3549 1.80409C11.2298 1.92911 11.0603 1.99935 10.8835 1.99935H3.55013V10.666C3.55013 10.8428 3.47989 11.0124 3.35487 11.1374C3.22984 11.2624 3.06027 11.3327 2.88346 11.3327C2.70665 11.3327 2.53708 11.2624 2.41206 11.1374C2.28703 11.0124 2.2168 10.8428 2.2168 10.666V1.99935C2.2168 1.26602 2.8168 0.666016 3.55013 0.666016H10.8835Z" fill="#30AEE4"/>
<path d="M6.21663 3.33398H13.55C13.9036 3.33398 14.2427 3.47446 14.4928 3.72451C14.7428 3.97456 14.8833 4.3137 14.8833 4.66732V14.0007C14.8833 14.3543 14.7428 14.6934 14.4928 14.9435C14.2427 15.1935 13.9036 15.334 13.55 15.334H6.21663C5.86301 15.334 5.52387 15.1935 5.27383 14.9435C5.02378 14.6934 4.8833 14.3543 4.8833 14.0007V4.66732C4.8833 4.3137 5.02378 3.97456 5.27383 3.72451C5.52387 3.47446 5.86301 3.33398 6.21663 3.33398Z" fill="#30AEE4"/>
</svg>
