<svg width="24" height="21" viewBox="0 0 24 21" fill="none" xmlns="http://www.w3.org/2000/svg">
<g clip-path="url(#clip0)">
<path d="M12.1523 0C9.29807 0 6.98438 2.31369 6.98438 5.16797C6.98438 7.47551 10.362 11.6812 11.6561 13.2079C11.9181 13.5171 12.387 13.5171 12.6486 13.2079C13.9427 11.6812 17.3203 7.47551 17.3203 5.16797C17.3203 2.31369 15.0066 0 12.1523 0ZM12.1523 6.89062C11.2008 6.89062 10.4297 6.11953 10.4297 5.16797C10.4297 4.21641 11.2008 3.44531 12.1523 3.44531C13.1039 3.44531 13.875 4.21641 13.875 5.16797C13.875 6.11953 13.1039 6.89062 12.1523 6.89062ZM1.16508 8.85732C0.921518 8.95474 0.712729 9.12289 0.565639 9.34009C0.418548 9.55729 0.339902 9.81358 0.339844 10.0759L0.339844 20.3429C0.339844 20.8072 0.808652 21.1247 1.23973 20.9524L6.90234 18.375V8.81508C6.53977 8.15965 6.24322 7.52145 6.03076 6.91113L1.16508 8.85732ZM12.1523 14.7521C11.5753 14.7521 11.0293 14.4986 10.6549 14.0565C9.8485 13.1049 8.99086 12.0213 8.21484 10.9097V18.3746L16.0898 20.9996V10.9102C15.3138 12.0213 14.4566 13.1053 13.6498 14.0569C13.2754 14.4986 12.7294 14.7521 12.1523 14.7521ZM23.065 6.61008L17.4023 9.1875V21L23.1396 18.7052C23.3832 18.6078 23.592 18.4397 23.7391 18.2225C23.8862 18.0052 23.9648 17.7489 23.9648 17.4866V7.21957C23.9648 6.75527 23.496 6.43781 23.065 6.61008Z" fill="#30AEE4"/>
</g>
<defs>
<clipPath id="clip0">
<rect width="23.625" height="21" fill="white" transform="translate(0.339844)"/>
</clipPath>
</defs>
</svg>
