<svg width="30" height="29" viewBox="0 0 30 29" fill="none" xmlns="http://www.w3.org/2000/svg">
<path d="M16.0714 3.62482C9.92097 3.45566 4.88222 8.39774 4.88222 14.4998H2.7193C2.17555 14.4998 1.90972 15.1523 2.29639 15.5269L5.66764 18.9102C5.9093 19.1519 6.28389 19.1519 6.52555 18.9102L9.8968 15.5269C9.9803 15.4417 10.0367 15.3337 10.0589 15.2165C10.0812 15.0993 10.0682 14.9782 10.0217 14.8684C9.97516 14.7585 9.89717 14.6649 9.79753 14.5993C9.6979 14.5337 9.58108 14.4991 9.4618 14.4998H7.29888C7.29888 9.78732 11.1414 5.98107 15.8781 6.04149C20.3731 6.10191 24.1551 9.88399 24.2156 14.379C24.276 19.1036 20.4697 22.9582 15.7572 22.9582C13.8118 22.9582 12.0114 22.2936 10.5856 21.1698C10.3541 20.9875 10.0637 20.8966 9.76964 20.9144C9.47556 20.9323 9.19828 21.0576 8.99055 21.2665C8.48305 21.774 8.5193 22.6319 9.08722 23.0669C10.9857 24.5682 13.3369 25.3818 15.7572 25.3748C21.8593 25.3748 26.8014 20.3361 26.6322 14.1857C26.4751 8.51857 21.7385 3.78191 16.0714 3.62482ZM15.4551 9.66649C14.9597 9.66649 14.5489 10.0773 14.5489 10.5727V15.0194C14.5489 15.4423 14.7785 15.8411 15.141 16.0586L18.911 18.294C19.346 18.5477 19.9018 18.4027 20.1556 17.9798C20.4093 17.5448 20.2643 16.989 19.8414 16.7352L16.3614 14.669V10.5607C16.3614 10.0773 15.9506 9.66649 15.4551 9.66649Z" fill="white"/>
</svg>
