<svg width="91" height="91" viewBox="0 0 91 91" fill="none" xmlns="http://www.w3.org/2000/svg">
<path d="M64.2815 19.5445L64.005 19.8016L18.6772 65.1252C18.2226 65.5623 17.8284 66.0581 17.505 66.5995C13.1336 60.9445 10.5772 53.7423 10.5772 45.8116C10.5772 26.9609 24.7757 12.6359 43.6222 12.6359C51.5315 12.6359 58.6522 15.1752 64.2815 19.5445ZM24.3279 73.1609C24.7329 72.9102 25.1593 72.5459 25.6265 72.0745L70.95 26.7509L71.0379 26.6652C74.7665 32.0609 76.9222 38.6695 76.9222 45.9381C76.9222 64.7631 62.5736 79.2402 43.7486 79.2402C36.3943 79.2402 29.7215 77.0223 24.3279 73.1609ZM1.96289 45.9381C1.96289 69.0273 20.6807 87.7238 43.7486 87.7238C66.8207 87.7238 85.5365 69.0273 85.5365 45.9381C85.5365 22.8488 66.8207 4.15234 43.7507 4.15234C20.6807 4.15234 1.96289 22.8488 1.96289 45.9381Z" fill="#DEDEDE"/>
</svg>
