<svg width="324" height="95" viewBox="0 0 324 95" fill="none" xmlns="http://www.w3.org/2000/svg">
<g clip-path="url(#clip0)">
<rect width="324" height="94.9979" rx="8" fill="#F4A261"/>
<g clip-path="url(#clip1)">
<path d="M239.223 56.1095C239.1 56.1095 239.004 56.2053 239.004 56.3285C239.004 56.9307 239.141 58.5046 240.414 58.5046C241.919 58.5046 318.125 58.4636 322.724 58.4499C322.888 58.4499 323.148 58.1625 323.299 57.9709C323.518 57.7108 323.819 57.3139 323.997 56.438C324.038 56.2464 323.915 56.0547 323.723 56.0137C323.696 56.0137 323.668 56 323.655 56L239.223 56.1095Z" fill="url(#paint0_linear)"/>
<path d="M244.711 58.4911C244.711 58.4911 244.574 60.1334 245.943 60.1334C247.27 60.1334 314.224 59.9966 318.262 59.9829C318.399 59.9829 318.549 59.9281 318.659 59.846C318.905 59.6544 319.302 59.2301 319.453 58.4089L244.711 58.4911Z" fill="url(#paint1_linear)"/>
<path d="M305.958 59.9554H306.724L314.854 109.856L314.211 109.897L305.958 59.9554Z" fill="url(#paint2_linear)"/>
<path d="M262.188 60.0648H261.244L251.294 109.952L252.074 110.007L262.188 60.0648Z" fill="url(#paint3_linear)"/>
<path d="M267.977 60.0648H267.047L257.097 106.325L257.877 106.366L267.977 60.0648Z" fill="url(#paint4_linear)"/>
<path d="M299.402 59.8597H300.292L309.736 106.106L308.997 106.147L299.402 59.8597Z" fill="url(#paint5_linear)"/>
</g>
<g clip-path="url(#clip2)">
<path d="M290.436 41.4171L292.705 41.2493L293.172 47.184H291.096L290.436 41.4171Z" fill="white"/>
<path d="M291.711 42.4264L290.773 42.5004L290.785 42.6412L291.723 42.5672L291.711 42.4264Z" fill="url(#paint6_linear)"/>
<path d="M291.45 42.8661L290.844 42.9139L290.855 43.0548L291.461 43.007L291.45 42.8661Z" fill="url(#paint7_linear)"/>
<path d="M291.48 43.2558L290.874 43.3036L290.885 43.4444L291.491 43.3966L291.48 43.2558Z" fill="url(#paint8_linear)"/>
<path d="M291.917 44.1089L290.979 44.1829L290.991 44.3237L291.929 44.2497L291.917 44.1089Z" fill="url(#paint9_linear)"/>
<path d="M291.507 43.6858L290.9 43.7336L290.911 43.8745L291.518 43.8267L291.507 43.6858Z" fill="url(#paint10_linear)"/>
<path d="M291.648 44.57L291.042 44.6178L291.053 44.7586L291.659 44.7108L291.648 44.57Z" fill="url(#paint11_linear)"/>
<path d="M291.69 45.0491L291.084 45.0969L291.095 45.2378L291.701 45.1899L291.69 45.0491Z" fill="url(#paint12_linear)"/>
<path d="M292.084 45.889L291.146 45.963L291.158 46.1039L292.096 46.0299L292.084 45.889Z" fill="url(#paint13_linear)"/>
<path d="M291.737 45.4766L291.131 45.5244L291.142 45.6653L291.748 45.6174L291.737 45.4766Z" fill="url(#paint14_linear)"/>
<path d="M291.827 46.7012L291.221 46.749L291.232 46.8899L291.838 46.842L291.827 46.7012Z" fill="url(#paint15_linear)"/>
<path d="M291.827 47.0901L291.221 47.1379L291.232 47.2788L291.838 47.231L291.827 47.0901Z" fill="url(#paint16_linear)"/>
<path d="M291.801 46.2852L291.194 46.333L291.205 46.4738L291.812 46.426L291.801 46.2852Z" fill="url(#paint17_linear)"/>
<path d="M289.068 47.1835H294.934C295.011 47.1835 295.087 47.2006 295.156 47.2335C295.226 47.2664 295.287 47.3143 295.336 47.3737C295.385 47.4331 295.42 47.5026 295.439 47.5772C295.458 47.6517 295.46 47.7296 295.445 47.8051L293.69 56.5784C293.667 56.6961 293.603 56.8021 293.51 56.8784C293.418 56.9548 293.302 56.9967 293.182 56.9971H290.67C290.548 56.9972 290.429 56.9546 290.336 56.8765C290.242 56.7984 290.178 56.6899 290.156 56.5699L288.554 47.7983C288.541 47.7231 288.544 47.6458 288.563 47.5718C288.583 47.4979 288.618 47.4291 288.667 47.3704C288.716 47.3118 288.777 47.2646 288.847 47.2323C288.916 47.2 288.992 47.1833 289.068 47.1835Z" fill="url(#paint18_linear)"/>
<path opacity="0.1" d="M293.14 56.9995H290.889C290.889 56.9995 292.663 56.5581 293.01 54.196C293.358 51.8338 295.141 48.1635 295.454 47.6973C295.445 47.7425 295.45 47.7832 295.441 47.8284C295.09 49.5757 294.774 50.9698 294.73 51.332C294.612 52.2978 294.145 53.6038 293.735 56.2637C293.735 56.2795 293.728 56.3021 293.727 56.3298C293.701 56.8554 293.422 56.9995 293.14 56.9995Z" fill="black"/>
<path d="M288 42.1491L289.539 47.1842H290.761L289.117 41.7275L288 42.1491Z" fill="url(#paint19_linear)"/>
<path d="M288 40.4734V42.149L289.117 41.7274L288.261 40.3491L288 40.4734Z" fill="white"/>
<path d="M288 40.4735L288.261 40.3492L288 40.0514V40.4735Z" fill="url(#paint20_linear)"/>
<path d="M294.056 47.184L295.454 42.5337L294.056 42.2749L293.37 47.184H294.056Z" fill="url(#paint21_linear)"/>
<path d="M294.057 42.2751L294.253 41.4178L295.569 41.6654L295.455 42.5339" fill="white"/>
<path d="M294.621 38C294.621 38 295.065 38.5934 294.413 39.3495C293.76 40.1056 293.731 40.2695 294.253 41.4172L295.569 41.6653C295.569 41.6653 296.612 41.4212 296.679 40.3972C296.753 39.3156 295.821 38.417 294.621 38Z" fill="url(#paint22_linear)"/>
<path d="M296.482 39.5078C296.482 39.5078 296.482 41.6061 294.882 41.5394L296.482 39.5078Z" fill="url(#paint23_linear)"/>
</g>
<g clip-path="url(#clip3)">
<path d="M271.334 49.4949L270 57.0002C270 57.0002 271.721 56.6966 272.531 57.0002L271.334 49.4949Z" fill="url(#paint24_linear)"/>
<path d="M271.335 49.4949L272.533 57.0002C272.533 57.0002 277.622 56.3625 281.516 56.9469L280.134 49.5221L271.336 49.4949" fill="#FCFCFC"/>
<path d="M276.395 53.3061L275.164 53.3345L274.986 52.344L276.191 52.3381L276.395 53.3061Z" fill="#58CAEA"/>
<path d="M278.346 53.248L277.115 53.2764L276.938 52.2859L278.142 52.28L278.346 53.248Z" fill="#58CAEA"/>
<path d="M280.186 53.2566L278.956 53.2847L278.777 52.2942L279.982 52.2883L280.186 53.2566Z" fill="#58CAEA"/>
<path d="M280.433 54.5903L279.202 54.6184L279.024 53.6279L280.229 53.6221L280.433 54.5903Z" fill="#58CAEA"/>
<path d="M276.664 54.5788L275.433 54.607L275.255 53.6165L276.46 53.6106L276.664 54.5788Z" fill="#58CAEA"/>
<path d="M274.76 54.6381L273.529 54.6665L273.351 53.676L274.556 53.6702L274.76 54.6381Z" fill="#58CAEA"/>
<path d="M275.062 56.0171L273.831 56.0453L273.653 55.0548L274.858 55.0492L275.062 56.0171Z" fill="#58CAEA"/>
<path d="M276.952 55.9892L275.721 56.0176L275.543 55.0268L276.748 55.0212L276.952 55.9892Z" fill="#58CAEA"/>
<path d="M278.898 55.9848L277.667 56.013L277.489 55.0225L278.694 55.0166L278.898 55.9848Z" fill="#58CAEA"/>
<path d="M278.591 54.577L277.36 54.6051L277.182 53.6146L278.387 53.6088L278.591 54.577Z" fill="url(#paint25_linear)"/>
<path d="M273.75 49.0123L274.422 49L274.497 49.9422L273.834 49.9427L273.75 49.0123Z" fill="url(#paint26_linear)"/>
<path d="M277.951 49.0564L278.532 49.0449L278.597 49.9203L278.024 49.9209L277.951 49.0564Z" fill="url(#paint27_linear)"/>
</g>
</g>
<defs>
<linearGradient id="paint0_linear" x1="239.003" y1="57.2523" x2="324" y2="57.2523" gradientUnits="userSpaceOnUse">
<stop stop-color="#FFD6A5"/>
<stop offset="1" stop-color="#FE8626"/>
</linearGradient>
<linearGradient id="paint1_linear" x1="244.7" y1="59.2739" x2="319.435" y2="59.2739" gradientUnits="userSpaceOnUse">
<stop stop-color="#FFD29F"/>
<stop offset="0.75" stop-color="#FC8221"/>
</linearGradient>
<linearGradient id="paint2_linear" x1="305.954" y1="84.9257" x2="314.85" y2="84.9257" gradientUnits="userSpaceOnUse">
<stop stop-color="#FFD29F"/>
<stop offset="1" stop-color="#F4A261"/>
</linearGradient>
<linearGradient id="paint3_linear" x1="262.623" y1="85.0344" x2="251.768" y2="85.0344" gradientUnits="userSpaceOnUse">
<stop stop-color="#FFCE98"/>
<stop offset="1" stop-color="#FE923A"/>
</linearGradient>
<linearGradient id="paint4_linear" x1="268.402" y1="83.2155" x2="257.548" y2="83.2155" gradientUnits="userSpaceOnUse">
<stop stop-color="#FFC991"/>
<stop offset="1" stop-color="#FE933B"/>
</linearGradient>
<linearGradient id="paint5_linear" x1="268.402" y1="83.2157" x2="257.549" y2="83.2157" gradientUnits="userSpaceOnUse">
<stop stop-color="#FEB571"/>
<stop offset="1" stop-color="#FE8D32"/>
</linearGradient>
<linearGradient id="paint6_linear" x1="290.773" y1="42.5342" x2="291.722" y2="42.5342" gradientUnits="userSpaceOnUse">
<stop stop-color="#E5A4ED"/>
<stop offset="1" stop-color="#7A5BF5"/>
</linearGradient>
<linearGradient id="paint7_linear" x1="435.915" y1="100.815" x2="442.482" y2="100.626" gradientUnits="userSpaceOnUse">
<stop stop-color="#E5A4ED"/>
<stop offset="1" stop-color="#7A5BF5"/>
</linearGradient>
<linearGradient id="paint8_linear" x1="436.188" y1="102.193" x2="442.752" y2="102.004" gradientUnits="userSpaceOnUse">
<stop stop-color="#E5A4ED"/>
<stop offset="1" stop-color="#7A5BF5"/>
</linearGradient>
<linearGradient id="paint9_linear" x1="598.498" y1="98.8537" x2="614.296" y2="98.8537" gradientUnits="userSpaceOnUse">
<stop stop-color="#E5A4ED"/>
<stop offset="1" stop-color="#7A5BF5"/>
</linearGradient>
<linearGradient id="paint10_linear" x1="436.401" y1="103.706" x2="442.969" y2="103.517" gradientUnits="userSpaceOnUse">
<stop stop-color="#E5A4ED"/>
<stop offset="1" stop-color="#7A5BF5"/>
</linearGradient>
<linearGradient id="paint11_linear" x1="437.836" y1="106.856" x2="444.403" y2="106.667" gradientUnits="userSpaceOnUse">
<stop stop-color="#E5A4ED"/>
<stop offset="1" stop-color="#7A5BF5"/>
</linearGradient>
<linearGradient id="paint12_linear" x1="438.213" y1="108.55" x2="444.777" y2="108.361" gradientUnits="userSpaceOnUse">
<stop stop-color="#E5A4ED"/>
<stop offset="1" stop-color="#7A5BF5"/>
</linearGradient>
<linearGradient id="paint13_linear" x1="601.441" y1="105.084" x2="617.239" y2="105.084" gradientUnits="userSpaceOnUse">
<stop stop-color="#E5A4ED"/>
<stop offset="1" stop-color="#7A5BF5"/>
</linearGradient>
<linearGradient id="paint14_linear" x1="438.669" y1="110.066" x2="445.233" y2="109.877" gradientUnits="userSpaceOnUse">
<stop stop-color="#E5A4ED"/>
<stop offset="1" stop-color="#7A5BF5"/>
</linearGradient>
<linearGradient id="paint15_linear" x1="439.438" y1="114.383" x2="446.006" y2="114.194" gradientUnits="userSpaceOnUse">
<stop stop-color="#E5A4ED"/>
<stop offset="1" stop-color="#7A5BF5"/>
</linearGradient>
<linearGradient id="paint16_linear" x1="439.364" y1="115.743" x2="445.928" y2="115.554" gradientUnits="userSpaceOnUse">
<stop stop-color="#E5A4ED"/>
<stop offset="1" stop-color="#7A5BF5"/>
</linearGradient>
<linearGradient id="paint17_linear" x1="439.23" y1="112.918" x2="445.798" y2="112.73" gradientUnits="userSpaceOnUse">
<stop stop-color="#E5A4ED"/>
<stop offset="1" stop-color="#7A5BF5"/>
</linearGradient>
<linearGradient id="paint18_linear" x1="2249.07" y1="5215.04" x2="3093.85" y2="5215.04" gradientUnits="userSpaceOnUse">
<stop stop-color="#E5A4ED"/>
<stop offset="1" stop-color="#7A5BF5"/>
</linearGradient>
<linearGradient id="paint19_linear" x1="288" y1="665.097" x2="422.908" y2="665.097" gradientUnits="userSpaceOnUse">
<stop stop-color="#E5A4ED"/>
<stop offset="1" stop-color="#7A5BF5"/>
</linearGradient>
<linearGradient id="paint20_linear" x1="288" y1="56.9494" x2="289.201" y2="56.9494" gradientUnits="userSpaceOnUse">
<stop stop-color="#E5A4ED"/>
<stop offset="1" stop-color="#7A5BF5"/>
</linearGradient>
<linearGradient id="paint21_linear" x1="495.321" y1="626.013" x2="564.804" y2="627.272" gradientUnits="userSpaceOnUse">
<stop stop-color="#E5A4ED"/>
<stop offset="1" stop-color="#7A5BF5"/>
</linearGradient>
<linearGradient id="paint22_linear" x1="1350.85" y1="1173.03" x2="1488.94" y2="1173.03" gradientUnits="userSpaceOnUse">
<stop stop-color="#E5A4ED"/>
<stop offset="1" stop-color="#7A5BF5"/>
</linearGradient>
<linearGradient id="paint23_linear" x1="295.055" y1="40.3538" x2="296.377" y2="40.5273" gradientUnits="userSpaceOnUse">
<stop stop-color="white"/>
<stop offset="1" stop-color="white" stop-opacity="0"/>
</linearGradient>
<linearGradient id="paint24_linear" x1="270" y1="53.2474" x2="272.531" y2="53.2474" gradientUnits="userSpaceOnUse">
<stop stop-color="#E5A4ED"/>
<stop offset="1" stop-color="#7A5BF5"/>
</linearGradient>
<linearGradient id="paint25_linear" x1="1715.05" y1="566.043" x2="1781.69" y2="564.507" gradientUnits="userSpaceOnUse">
<stop stop-color="#E5A4ED"/>
<stop offset="1" stop-color="#7A5BF5"/>
</linearGradient>
<linearGradient id="paint26_linear" x1="273.75" y1="49.4712" x2="274.497" y2="49.4712" gradientUnits="userSpaceOnUse">
<stop stop-color="#4D54C2"/>
<stop offset="1" stop-color="#4C4CBF"/>
</linearGradient>
<linearGradient id="paint27_linear" x1="273.75" y1="49.4713" x2="274.497" y2="49.4713" gradientUnits="userSpaceOnUse">
<stop stop-color="#4D54C2"/>
<stop offset="1" stop-color="#4C4CBF"/>
</linearGradient>
<clipPath id="clip0">
<rect width="324" height="94.9979" fill="white"/>
</clipPath>
<clipPath id="clip1">
<rect width="85" height="54.0068" fill="white" transform="translate(239 56)"/>
</clipPath>
<clipPath id="clip2">
<rect width="8.68335" height="19" fill="white" transform="translate(288 38)"/>
</clipPath>
<clipPath id="clip3">
<rect width="11.5156" height="8" fill="white" transform="translate(270 49)"/>
</clipPath>
</defs>
</svg>
