<svg width="324" height="95" viewBox="0 0 324 95" fill="none" xmlns="http://www.w3.org/2000/svg">
<g clip-path="url(#clip0)">
<rect width="324" height="94.9979" rx="8" fill="#BDB2FF"/>
<g clip-path="url(#clip1)">
<path d="M278.251 86.5793C278.126 86.5792 278.002 86.5466 277.893 86.4845L257.185 74.7769C257.016 74.6814 256.893 74.5231 256.841 74.3367C256.789 74.1503 256.814 73.9509 256.909 73.7823L273.219 44.9331C273.266 44.8496 273.329 44.7763 273.405 44.7172C273.48 44.6582 273.567 44.6146 273.659 44.589C273.751 44.5633 273.848 44.5561 273.943 44.5678C274.038 44.5795 274.13 44.6098 274.213 44.657L294.922 56.3646C295.09 56.46 295.214 56.6183 295.265 56.8047C295.317 56.9912 295.293 57.1905 295.198 57.3591L278.887 86.2083C278.84 86.2919 278.777 86.3654 278.702 86.4245C278.626 86.4835 278.54 86.527 278.447 86.5525C278.383 86.5702 278.317 86.5793 278.251 86.5793Z" fill="#E6E6E6"/>
<path d="M272.642 46.0629L272.559 46.2101L294.444 58.5834L294.527 58.4362L272.642 46.0629Z" fill="white"/>
<path d="M271.144 48.7126L271.061 48.8597L292.946 61.2331L293.029 61.0859L271.144 48.7126Z" fill="white"/>
<path d="M269.646 51.3617L269.562 51.5089L291.448 63.8823L291.531 63.7351L269.646 51.3617Z" fill="white"/>
<path d="M268.148 54.0114L268.064 54.1586L289.95 66.5319L290.033 66.3847L268.148 54.0114Z" fill="white"/>
<path d="M266.65 56.661L266.566 56.8082L288.452 69.1816L288.535 69.0344L266.65 56.661Z" fill="white"/>
<path d="M265.153 59.3102L265.069 59.4574L286.955 71.8307L287.038 71.6836L265.153 59.3102Z" fill="white"/>
<path d="M263.655 61.9599L263.571 62.1071L285.457 74.4804L285.54 74.3332L263.655 61.9599Z" fill="white"/>
<path d="M262.156 64.609L262.073 64.7562L283.959 77.1296L284.042 76.9824L262.156 64.609Z" fill="white"/>
<path d="M260.658 67.2587L260.575 67.4059L282.461 79.7792L282.544 79.632L260.658 67.2587Z" fill="white"/>
<path d="M259.16 69.9079L259.077 70.0551L280.963 82.4284L281.046 82.2812L259.16 69.9079Z" fill="white"/>
<path d="M257.663 72.5574L257.58 72.7046L279.466 85.0779L279.549 84.9308L257.663 72.5574Z" fill="white"/>
<path d="M276.325 82.1914C276.2 82.1913 276.076 82.1586 275.967 82.0966L255.259 70.3889C255.091 70.2935 254.967 70.1352 254.915 69.9488C254.864 69.7623 254.888 69.563 254.983 69.3944L271.293 40.5451C271.34 40.4617 271.403 40.3883 271.479 40.3293C271.554 40.2703 271.641 40.2267 271.733 40.201C271.826 40.1754 271.922 40.1682 272.017 40.1799C272.112 40.1915 272.204 40.2218 272.288 40.269L292.996 51.9767C293.164 52.0721 293.288 52.2304 293.34 52.4168C293.391 52.6032 293.367 52.8026 293.272 52.9711L276.962 81.8204C276.915 81.904 276.852 81.9774 276.776 82.0365C276.701 82.0956 276.614 82.1391 276.522 82.1645C276.458 82.1823 276.392 82.1913 276.325 82.1914Z" fill="#F2F2F2"/>
<path d="M270.715 41.675L270.632 41.8221L292.517 54.1955L292.601 54.0483L270.715 41.675Z" fill="white"/>
<path d="M269.217 44.3246L269.134 44.4718L291.019 56.8452L291.103 56.698L269.217 44.3246Z" fill="white"/>
<path d="M267.72 46.9743L267.637 47.1215L289.522 59.4948L289.606 59.3476L267.72 46.9743Z" fill="white"/>
<path d="M266.222 49.6234L266.139 49.7706L288.024 62.144L288.108 61.9968L266.222 49.6234Z" fill="white"/>
<path d="M264.724 52.2731L264.641 52.4203L286.526 64.7936L286.609 64.6465L264.724 52.2731Z" fill="white"/>
<path d="M263.226 54.9223L263.143 55.0695L285.028 67.4428L285.111 67.2956L263.226 54.9223Z" fill="white"/>
<path d="M261.728 57.5719L261.645 57.7191L283.53 70.0925L283.613 69.9453L261.728 57.5719Z" fill="white"/>
<path d="M260.23 60.2211L260.146 60.3683L282.032 72.7416L282.115 72.5944L260.23 60.2211Z" fill="white"/>
<path d="M258.733 62.8708L258.649 63.0179L280.535 75.3913L280.618 75.2441L258.733 62.8708Z" fill="white"/>
<path d="M257.235 65.5199L257.151 65.6671L279.037 78.0405L279.12 77.8933L257.235 65.5199Z" fill="white"/>
<path d="M255.737 68.1695L255.653 68.3167L277.539 80.69L277.622 80.5428L255.737 68.1695Z" fill="white"/>
<path d="M274.261 40H241.166V86.0191H274.261C274.38 86.0191 274.494 85.9719 274.578 85.8878C274.662 85.8038 274.709 85.6897 274.709 85.5709V40.4482C274.709 40.3294 274.662 40.2153 274.578 40.1313C274.494 40.0472 274.38 40 274.261 40ZM243.034 84.7491C242.871 84.7491 242.712 84.7009 242.577 84.6106C242.442 84.5203 242.337 84.392 242.274 84.2418C242.212 84.0916 242.196 83.9264 242.228 83.767C242.259 83.6076 242.338 83.4612 242.453 83.3462C242.568 83.2313 242.714 83.1531 242.873 83.1213C243.033 83.0896 243.198 83.1059 243.348 83.1681C243.498 83.2303 243.627 83.3356 243.717 83.4708C243.807 83.6059 243.855 83.7648 243.855 83.9273C243.855 84.0352 243.834 84.1421 243.793 84.2418C243.752 84.3415 243.691 84.4321 243.615 84.5084C243.538 84.5847 243.448 84.6452 243.348 84.6865C243.248 84.7278 243.142 84.7491 243.034 84.7491ZM243.034 80.5655C242.871 80.5655 242.712 80.5173 242.577 80.4271C242.442 80.3368 242.337 80.2084 242.274 80.0583C242.212 79.9081 242.196 79.7429 242.228 79.5835C242.259 79.424 242.338 79.2776 242.453 79.1627C242.568 79.0478 242.714 78.9695 242.873 78.9378C243.033 78.9061 243.198 78.9224 243.348 78.9846C243.498 79.0468 243.627 79.1521 243.717 79.2872C243.807 79.4224 243.855 79.5812 243.855 79.7438C243.855 79.8517 243.834 79.9585 243.793 80.0583C243.752 80.158 243.691 80.2485 243.615 80.3249C243.538 80.4012 243.448 80.4617 243.348 80.503C243.248 80.5443 243.142 80.5655 243.034 80.5655ZM243.034 76.382C242.871 76.382 242.712 76.3338 242.577 76.2435C242.442 76.1532 242.337 76.0249 242.274 75.8747C242.212 75.7245 242.196 75.5593 242.228 75.3999C242.259 75.2405 242.338 75.0941 242.453 74.9791C242.568 74.8642 242.714 74.7859 242.873 74.7542C243.033 74.7225 243.198 74.7388 243.348 74.801C243.498 74.8632 243.627 74.9685 243.717 75.1037C243.807 75.2388 243.855 75.3977 243.855 75.5602C243.855 75.6681 243.834 75.775 243.793 75.8747C243.752 75.9744 243.691 76.065 243.615 76.1413C243.538 76.2176 243.448 76.2781 243.348 76.3194C243.248 76.3607 243.142 76.382 243.034 76.382ZM243.034 72.1984C242.871 72.1984 242.712 72.1502 242.577 72.0599C242.442 71.9696 242.337 71.8413 242.274 71.6911C242.212 71.541 242.196 71.3758 242.228 71.2163C242.259 71.0569 242.338 70.9105 242.453 70.7956C242.568 70.6807 242.714 70.6024 242.873 70.5707C243.033 70.539 243.198 70.5552 243.348 70.6174C243.498 70.6796 243.627 70.785 243.717 70.9201C243.807 71.0553 243.855 71.2141 243.855 71.3767C243.855 71.4846 243.834 71.5914 243.793 71.6911C243.752 71.7908 243.691 71.8814 243.615 71.9577C243.538 72.034 243.448 72.0946 243.348 72.1359C243.248 72.1772 243.142 72.1984 243.034 72.1984ZM243.034 68.0149C242.871 68.0149 242.712 67.9667 242.577 67.8764C242.442 67.7861 242.337 67.6577 242.274 67.5076C242.212 67.3574 242.196 67.1922 242.228 67.0328C242.259 66.8734 242.338 66.727 242.453 66.612C242.568 66.4971 242.714 66.4188 242.873 66.3871C243.033 66.3554 243.198 66.3717 243.348 66.4339C243.498 66.4961 243.627 66.6014 243.717 66.7366C243.807 66.8717 243.855 67.0306 243.855 67.1931C243.855 67.301 243.834 67.4079 243.793 67.5076C243.752 67.6073 243.691 67.6979 243.615 67.7742C243.538 67.8505 243.448 67.911 243.348 67.9523C243.248 67.9936 243.142 68.0149 243.034 68.0149ZM243.034 63.8313C242.871 63.8313 242.712 63.7831 242.577 63.6928C242.442 63.6025 242.337 63.4742 242.274 63.324C242.212 63.1739 242.196 63.0086 242.228 62.8492C242.259 62.6898 242.338 62.5434 242.453 62.4285C242.568 62.3135 242.714 62.2353 242.873 62.2036C243.033 62.1719 243.198 62.1881 243.348 62.2503C243.498 62.3125 243.627 62.4179 243.717 62.553C243.807 62.6881 243.855 62.847 243.855 63.0096C243.855 63.1175 243.834 63.2243 243.793 63.324C243.752 63.4237 243.691 63.5143 243.615 63.5906C243.538 63.6669 243.448 63.7275 243.348 63.7688C243.248 63.8101 243.142 63.8313 243.034 63.8313ZM243.034 59.6478C242.871 59.6478 242.712 59.5996 242.577 59.5093C242.442 59.419 242.337 59.2906 242.274 59.1405C242.212 58.9903 242.196 58.8251 242.228 58.6657C242.259 58.5063 242.338 58.3598 242.453 58.2449C242.568 58.13 242.714 58.0517 242.873 58.02C243.033 57.9883 243.198 58.0046 243.348 58.0668C243.498 58.129 243.627 58.2343 243.717 58.3694C243.807 58.5046 243.855 58.6635 243.855 58.826C243.855 58.9339 243.834 59.0408 243.793 59.1405C243.752 59.2402 243.691 59.3308 243.615 59.4071C243.538 59.4834 243.448 59.5439 243.348 59.5852C243.248 59.6265 243.142 59.6478 243.034 59.6478ZM243.034 55.4642C242.871 55.4642 242.712 55.416 242.577 55.3257C242.442 55.2354 242.337 55.1071 242.274 54.9569C242.212 54.8068 242.196 54.6415 242.228 54.4821C242.259 54.3227 242.338 54.1763 242.453 54.0614C242.568 53.9464 242.714 53.8682 242.873 53.8365C243.033 53.8048 243.198 53.821 243.348 53.8832C243.498 53.9454 243.627 54.0508 243.717 54.1859C243.807 54.321 243.855 54.4799 243.855 54.6424C243.855 54.7504 243.834 54.8572 243.793 54.9569C243.752 55.0566 243.691 55.1472 243.615 55.2235C243.538 55.2998 243.448 55.3604 243.348 55.4017C243.248 55.443 243.142 55.4642 243.034 55.4642ZM243.034 51.2807C242.871 51.2807 242.712 51.2325 242.577 51.1422C242.442 51.0519 242.337 50.9235 242.274 50.7734C242.212 50.6232 242.196 50.458 242.228 50.2986C242.259 50.1392 242.338 49.9927 242.453 49.8778C242.568 49.7629 242.714 49.6846 242.873 49.6529C243.033 49.6212 243.198 49.6375 243.348 49.6997C243.498 49.7619 243.627 49.8672 243.717 50.0023C243.807 50.1375 243.855 50.2964 243.855 50.4589C243.855 50.5668 243.834 50.6737 243.793 50.7734C243.752 50.8731 243.691 50.9637 243.615 51.04C243.538 51.1163 243.448 51.1768 243.348 51.2181C243.248 51.2594 243.142 51.2807 243.034 51.2807ZM243.034 47.0971C242.871 47.0971 242.712 47.0489 242.577 46.9586C242.442 46.8683 242.337 46.74 242.274 46.5898C242.212 46.4397 242.196 46.2744 242.228 46.115C242.259 45.9556 242.338 45.8092 242.453 45.6943C242.568 45.5793 242.714 45.5011 242.873 45.4694C243.033 45.4376 243.198 45.4539 243.348 45.5161C243.498 45.5783 243.627 45.6836 243.717 45.8188C243.807 45.9539 243.855 46.1128 243.855 46.2753C243.855 46.3832 243.834 46.4901 243.793 46.5898C243.752 46.6895 243.691 46.7801 243.615 46.8564C243.538 46.9327 243.448 46.9933 243.348 47.0346C243.248 47.0759 243.142 47.0971 243.034 47.0971ZM243.034 42.9135C242.871 42.9135 242.712 42.8654 242.577 42.7751C242.442 42.6848 242.337 42.5564 242.274 42.4063C242.212 42.2561 242.196 42.0909 242.228 41.9315C242.259 41.7721 242.338 41.6256 242.453 41.5107C242.568 41.3958 242.714 41.3175 242.873 41.2858C243.033 41.2541 243.198 41.2704 243.348 41.3326C243.498 41.3948 243.627 41.5001 243.717 41.6352C243.807 41.7704 243.855 41.9292 243.855 42.0918C243.855 42.1997 243.834 42.3066 243.793 42.4063C243.752 42.506 243.691 42.5965 243.615 42.6729C243.538 42.7492 243.448 42.8097 243.348 42.851C243.248 42.8923 243.142 42.9135 243.034 42.9135Z" fill="#6C63FF"/>
<path d="M241.166 42.5402C240.945 42.5402 239 42.5297 239 42.1666C239 41.8036 240.945 41.7931 241.166 41.7931V41.9425C240.021 41.9425 239.278 42.0707 239.159 42.1666C239.278 42.2625 240.021 42.3907 241.166 42.3907C242.309 42.3907 243.051 42.2631 243.173 42.1673C243.115 42.1262 242.878 42.0402 242.241 41.9852L242.254 41.8364C243.333 41.9296 243.333 42.1018 243.333 42.1666C243.333 42.5297 241.388 42.5402 241.166 42.5402Z" fill="#2F2E41"/>
<path d="M241.166 46.649C240.945 46.649 239 46.6386 239 46.2755C239 45.9124 240.945 45.902 241.166 45.902V46.0514C240.021 46.0514 239.278 46.1796 239.159 46.2755C239.278 46.3714 240.021 46.4996 241.166 46.4996C242.309 46.4996 243.051 46.372 243.173 46.2762C243.115 46.2351 242.878 46.1491 242.241 46.0941L242.254 45.9452C243.333 46.0385 243.333 46.2107 243.333 46.2755C243.333 46.6386 241.388 46.649 241.166 46.649Z" fill="#2F2E41"/>
<path d="M241.166 50.8325C240.945 50.8325 239 50.822 239 50.459C239 50.0959 240.945 50.0854 241.166 50.0854V50.2349C240.021 50.2349 239.278 50.3631 239.159 50.459C239.278 50.5549 240.021 50.6831 241.166 50.6831C242.309 50.6831 243.051 50.5554 243.173 50.4596C243.115 50.4186 242.878 50.3326 242.241 50.2775L242.254 50.1287C243.333 50.222 243.333 50.3942 243.333 50.459C243.333 50.822 241.388 50.8325 241.166 50.8325Z" fill="#2F2E41"/>
<path d="M241.166 55.016C240.945 55.016 239 55.0055 239 54.6425C239 54.2794 240.945 54.2689 241.166 54.2689V54.4183C240.021 54.4183 239.278 54.5466 239.159 54.6425C239.278 54.7384 240.021 54.8666 241.166 54.8666C242.309 54.8666 243.051 54.7389 243.173 54.6431C243.115 54.6021 242.878 54.5161 242.241 54.461L242.254 54.3122C243.333 54.4054 243.333 54.5776 243.333 54.6425C243.333 55.0055 241.388 55.016 241.166 55.016Z" fill="#2F2E41"/>
<path d="M241.166 59.1996C240.945 59.1996 239 59.1891 239 58.826C239 58.463 240.945 58.4525 241.166 58.4525V58.6019C240.021 58.6019 239.278 58.7301 239.159 58.826C239.278 58.9219 240.021 59.0502 241.166 59.0502C242.309 59.0502 243.051 58.9225 243.173 58.8267C243.115 58.7857 242.878 58.6997 242.241 58.6446L242.254 58.4958C243.333 58.589 243.333 58.7612 243.333 58.826C243.333 59.1891 241.388 59.1996 241.166 59.1996Z" fill="#2F2E41"/>
<path d="M241.166 63.383C240.945 63.383 239 63.3726 239 63.0095C239 62.6465 240.945 62.636 241.166 62.636V62.7854C240.021 62.7854 239.278 62.9136 239.159 63.0095C239.278 63.1054 240.021 63.2336 241.166 63.2336C242.309 63.2336 243.051 63.106 243.173 63.0102C243.115 62.9691 242.878 62.8831 242.241 62.8281L242.254 62.6792C243.333 62.7725 243.333 62.9447 243.333 63.0095C243.333 63.3726 241.388 63.383 241.166 63.383Z" fill="#2F2E41"/>
<path d="M241.166 67.5665C240.945 67.5665 239 67.5561 239 67.193C239 66.8299 240.945 66.8195 241.166 66.8195V66.9689C240.021 66.9689 239.278 67.0971 239.159 67.193C239.278 67.2889 240.021 67.4171 241.166 67.4171C242.309 67.4171 243.051 67.2894 243.173 67.1937C243.115 67.1526 242.878 67.0666 242.241 67.0116L242.254 66.8627C243.333 66.956 243.333 67.1282 243.333 67.193C243.333 67.5561 241.388 67.5665 241.166 67.5665Z" fill="#2F2E41"/>
<path d="M241.166 71.75C240.945 71.75 239 71.7395 239 71.3765C239 71.0134 240.945 71.0029 241.166 71.0029V71.1523C240.021 71.1523 239.278 71.2806 239.159 71.3765C239.278 71.4724 240.021 71.6006 241.166 71.6006C242.309 71.6006 243.051 71.4729 243.173 71.3771C243.115 71.3361 242.878 71.2501 242.241 71.195L242.254 71.0462C243.333 71.1394 243.333 71.3116 243.333 71.3765C243.333 71.7395 241.388 71.75 241.166 71.75Z" fill="#2F2E41"/>
<path d="M241.166 75.9336C240.945 75.9336 239 75.9231 239 75.5601C239 75.197 240.945 75.1865 241.166 75.1865V75.3359C240.021 75.3359 239.278 75.4642 239.159 75.5601C239.278 75.656 240.021 75.7842 241.166 75.7842C242.309 75.7842 243.051 75.6565 243.173 75.5607C243.115 75.5197 242.878 75.4337 242.241 75.3786L242.254 75.2298C243.333 75.323 243.333 75.4952 243.333 75.5601C243.333 75.9231 241.388 75.9336 241.166 75.9336Z" fill="#2F2E41"/>
<path d="M241.166 80.1175C240.945 80.1175 239 80.1071 239 79.744C239 79.381 240.945 79.3705 241.166 79.3705V79.5199C240.021 79.5199 239.278 79.6481 239.159 79.744C239.278 79.8399 240.021 79.9681 241.166 79.9681C242.309 79.9681 243.051 79.8405 243.173 79.7447C243.115 79.7036 242.878 79.6176 242.241 79.5626L242.254 79.4137C243.333 79.507 243.333 79.6792 243.333 79.744C243.333 80.1071 241.388 80.1175 241.166 80.1175Z" fill="#2F2E41"/>
<path d="M241.166 84.301C240.945 84.301 239 84.2905 239 83.9275C239 83.5644 240.945 83.554 241.166 83.554V83.7034C240.021 83.7034 239.278 83.8316 239.159 83.9275C239.278 84.0234 240.021 84.1516 241.166 84.1516C242.309 84.1516 243.051 84.0239 243.173 83.9281C243.115 83.8871 242.878 83.8011 242.241 83.746L242.254 83.5972C243.333 83.6905 243.333 83.8627 243.333 83.9275C243.333 84.2905 241.388 84.301 241.166 84.301Z" fill="#2F2E41"/>
<path d="M267.5 57.5936H251.065C250.936 57.5934 250.813 57.5422 250.721 57.4512C250.63 57.3601 250.579 57.2367 250.579 57.108V50.6832C250.579 50.5545 250.63 50.4311 250.721 50.34C250.813 50.249 250.936 50.1978 251.065 50.1976H267.5C267.629 50.1978 267.752 50.249 267.843 50.34C267.934 50.4311 267.986 50.5545 267.986 50.6832V57.108C267.986 57.2367 267.934 57.3601 267.843 57.4512C267.752 57.5422 267.629 57.5934 267.5 57.5936Z" fill="white"/>
<path d="M261.374 52.4012H257.191C257.092 52.4012 256.997 52.3619 256.927 52.2918C256.857 52.2218 256.817 52.1268 256.817 52.0277C256.817 51.9286 256.857 51.8336 256.927 51.7636C256.997 51.6935 257.092 51.6542 257.191 51.6542H261.374C261.474 51.6542 261.569 51.6935 261.639 51.7636C261.709 51.8336 261.748 51.9286 261.748 52.0277C261.748 52.1268 261.709 52.2218 261.639 52.2918C261.569 52.3619 261.474 52.4012 261.374 52.4012H261.374Z" fill="#6C63FF"/>
<path d="M263.691 54.2689H254.875C254.776 54.2689 254.681 54.2296 254.611 54.1595C254.541 54.0895 254.502 53.9944 254.502 53.8954C254.502 53.7963 254.541 53.7013 254.611 53.6313C254.681 53.5612 254.776 53.5219 254.875 53.5219H263.691C263.79 53.5219 263.885 53.5612 263.955 53.6313C264.025 53.7013 264.064 53.7963 264.064 53.8954C264.064 53.9944 264.025 54.0895 263.955 54.1595C263.885 54.2296 263.79 54.2689 263.691 54.2689Z" fill="#6C63FF"/>
<path d="M263.691 56.1366H254.875C254.776 56.1366 254.681 56.0972 254.611 56.0272C254.541 55.9571 254.502 55.8621 254.502 55.7631C254.502 55.664 254.541 55.569 254.611 55.4989C254.681 55.4289 254.776 55.3895 254.875 55.3895H263.691C263.79 55.3895 263.885 55.4289 263.955 55.4989C264.025 55.569 264.064 55.664 264.064 55.7631C264.064 55.8621 264.025 55.9571 263.955 56.0272C263.885 56.0972 263.79 56.1366 263.691 56.1366Z" fill="#6C63FF"/>
<path d="M306.384 55.5106C306.617 55.5107 306.846 55.4448 307.044 55.3205C307.241 55.1963 307.4 55.0188 307.501 54.8084C307.602 54.598 307.642 54.3633 307.615 54.1314C307.589 53.8995 307.497 53.6798 307.352 53.4975C306.741 52.7349 305.405 52.8517 304.871 52.0341C304.418 51.3413 304.836 50.3899 305.439 49.8231C306.62 48.7134 308.511 48.4407 309.957 49.1714C311.403 49.9021 312.305 51.5855 312.113 53.1945C312.04 53.8073 311.87 54.5511 312.345 54.9445C312.767 55.2936 313.391 55.0954 313.921 54.958C314.708 54.7598 315.528 54.734 316.325 54.8824C317.122 55.0308 317.878 55.3499 318.54 55.8179C319.667 56.6251 320.487 57.9288 320.488 59.3144C320.489 60.7001 319.545 62.0965 318.194 62.4068C316.87 62.7109 315.506 61.9715 314.57 60.9876C313.633 60.0037 312.99 58.78 312.137 57.7233C311.283 56.6666 310.102 55.7359 308.744 55.7114C307.957 55.6972 307.096 55.9741 306.428 55.5577" fill="#2F2E41"/>
<path d="M306.967 56.0623C308.419 56.0623 309.596 54.8854 309.596 53.4337C309.596 51.982 308.419 50.8052 306.967 50.8052C305.516 50.8052 304.339 51.982 304.339 53.4337C304.339 54.8854 305.516 56.0623 306.967 56.0623Z" fill="#FFB8B8"/>
<path d="M301.376 70.8713C301.33 70.7209 301.317 70.5622 301.338 70.4064C301.36 70.2506 301.415 70.1013 301.501 69.9693C301.586 69.8372 301.7 69.7255 301.833 69.642C301.967 69.5586 302.117 69.5053 302.273 69.4861L303.076 65.7469L304.468 67.1649L303.492 70.4983C303.507 70.7628 303.425 71.0235 303.26 71.2312C303.096 71.4388 302.861 71.5788 302.6 71.6248C302.339 71.6708 302.07 71.6195 301.845 71.4806C301.619 71.3417 301.452 71.1249 301.376 70.8713Z" fill="#FFB8B8"/>
<path d="M314.877 87.1118L313.588 87.3536L309.7 74.585L312.46 74.2279L314.877 87.1118Z" fill="#FFB8B8"/>
<path d="M312.597 87.158L315.084 86.6914L315.378 88.2573L311.325 89.0177C311.286 88.812 311.289 88.6008 311.332 88.3961C311.375 88.1913 311.458 87.9971 311.576 87.8244C311.694 87.6517 311.845 87.504 312.02 87.3896C312.195 87.2753 312.392 87.1966 312.597 87.158Z" fill="#2F2E41"/>
<path d="M306.427 87.7992L305.115 87.7991L304.919 75.9746L307.712 75.9747L306.427 87.7992Z" fill="#FFB8B8"/>
<path d="M304.177 87.4244H306.708V89.0176H302.584C302.584 88.8084 302.625 88.6013 302.705 88.408C302.785 88.2147 302.903 88.039 303.051 87.8911C303.199 87.7431 303.374 87.6258 303.568 87.5457C303.761 87.4656 303.968 87.4244 304.177 87.4244Z" fill="#2F2E41"/>
<path d="M304.315 77.5841L304.435 71.8053C304.426 71.7239 303.478 62.9689 303.125 60.7318C302.766 58.4585 304.621 57.2929 304.64 57.2814C304.723 57.2473 304.798 57.2186 304.873 57.1909C305.75 56.859 306.703 56.7819 307.623 56.9687C308.542 57.1555 309.389 57.5985 310.067 58.2465C310.77 58.8944 311.277 59.7253 311.533 60.6457C311.789 61.5662 311.784 62.5398 311.517 63.4572L310.863 65.7222C314.214 71.7817 314.902 74.3893 314.909 74.4149L314.911 74.4228L314.91 74.4309C314.79 76.8341 304.799 77.5507 304.373 77.5801L304.315 77.5841Z" fill="#6C63FF"/>
<path d="M303.536 59.6508L301.271 68.5886L305.323 69.0653L303.536 59.6508Z" fill="#6C63FF"/>
<path d="M309.009 67.0385C309.037 66.8836 309.098 66.7367 309.189 66.6081C309.28 66.4795 309.397 66.3723 309.534 66.2941C309.67 66.2159 309.822 66.1686 309.979 66.1555C310.136 66.1425 310.294 66.1639 310.441 66.2184L312.869 63.2629L313.456 65.1614L311.061 67.6769C310.953 67.9188 310.76 68.1126 310.519 68.2218C310.278 68.3309 310.005 68.3477 309.752 68.269C309.499 68.1904 309.284 68.0216 309.147 67.7948C309.01 67.568 308.961 67.2989 309.009 67.0385Z" fill="#FFB8B8"/>
<path d="M312.179 67.0457L310.066 65.6789L312.077 63.5497L306.625 61.8903L308.028 57.8038L309.753 58.0503L314.14 61.2996C314.698 61.7159 315.07 62.3343 315.176 63.0221C315.283 63.7098 315.116 64.4119 314.71 64.9776L314.701 64.9877L312.179 67.0457Z" fill="#6C63FF"/>
<path d="M304.601 51.9398C305.732 52.6303 307.007 53.0505 308.327 53.1676L307.934 52.697C308.22 52.8027 308.521 52.8625 308.826 52.8741C309.13 52.8693 309.449 52.7521 309.622 52.5015C309.699 52.3769 309.744 52.2356 309.755 52.0895C309.766 51.9434 309.741 51.7969 309.682 51.6625C309.563 51.3945 309.376 51.1615 309.141 50.9858C308.724 50.656 308.232 50.4345 307.709 50.341C307.186 50.2475 306.648 50.2849 306.142 50.4499C305.796 50.5534 305.485 50.7526 305.247 51.0244C305.02 51.3037 304.527 51.5548 304.642 51.8951L304.601 51.9398Z" fill="#2F2E41"/>
<path d="M323.873 89.1045H291.307C291.273 89.1045 291.241 89.091 291.217 89.0671C291.193 89.0432 291.18 89.0108 291.18 88.977C291.18 88.9432 291.193 88.9108 291.217 88.8869C291.241 88.863 291.273 88.8496 291.307 88.8496H323.873C323.907 88.8497 323.939 88.8632 323.963 88.8871C323.987 88.9109 324 88.9433 324 88.977C324 89.0108 323.987 89.0431 323.963 89.067C323.939 89.0909 323.907 89.1044 323.873 89.1045Z" fill="#3F3D56"/>
</g>
</g>
<defs>
<clipPath id="clip0">
<rect width="324" height="94.9979" fill="white"/>
</clipPath>
<clipPath id="clip1">
<rect width="85" height="49.1044" fill="white" transform="translate(239 40)"/>
</clipPath>
</defs>
</svg>
