<svg width="324" height="95" viewBox="0 0 324 95" fill="none" xmlns="http://www.w3.org/2000/svg">
<g clip-path="url(#clip0)">
<rect width="324" height="94.9979" rx="8" fill="#FFADAD"/>
<g clip-path="url(#clip1)">
<path d="M272.542 97.9937C271.737 97.9931 270.965 97.6731 270.397 97.1039C269.828 96.5348 269.509 95.7631 269.509 94.9585C269.509 94.1539 269.828 93.3823 270.397 92.8131C270.965 92.244 271.737 91.924 272.542 91.9234H317.624C317.398 91.5072 317.063 91.1597 316.655 90.9174C316.248 90.6752 315.783 90.5472 315.309 90.5469H225.696C224.527 90.5482 223.406 91.0136 222.58 91.8408C221.754 92.668 221.29 93.7894 221.29 94.9585C221.291 96.1274 221.755 97.2484 222.581 98.0755C223.407 98.9025 224.527 99.3682 225.696 99.3702H315.309C315.783 99.3699 316.248 99.2418 316.655 98.9996C317.063 98.7574 317.398 98.4099 317.624 97.9936L272.542 97.9937Z" fill="#CCCCCC"/>
<path d="M317.684 93.5959H274.82C274.755 93.5957 274.692 93.5695 274.646 93.5231C274.599 93.4766 274.573 93.4137 274.573 93.3481C274.573 93.2825 274.599 93.2196 274.646 93.1731C274.692 93.1267 274.755 93.1005 274.82 93.1003H317.684C317.749 93.1005 317.812 93.1267 317.858 93.1731C317.905 93.2196 317.931 93.2825 317.931 93.3481C317.931 93.4137 317.905 93.4766 317.858 93.5231C317.812 93.5695 317.749 93.5957 317.684 93.5959Z" fill="#CCCCCC"/>
<path d="M317.684 95.2065H274.821C274.755 95.2065 274.692 95.1804 274.646 95.1339C274.599 95.0874 274.573 95.0244 274.573 94.9587C274.573 94.893 274.599 94.83 274.646 94.7835C274.692 94.737 274.755 94.7109 274.821 94.7109H317.684C317.75 94.7109 317.813 94.737 317.859 94.7835C317.906 94.83 317.932 94.893 317.932 94.9587C317.932 95.0244 317.906 95.0874 317.859 95.1339C317.813 95.1804 317.75 95.2065 317.684 95.2065Z" fill="#CCCCCC"/>
<path d="M260.896 89.4458C260.091 89.4453 259.32 89.1252 258.751 88.5561C258.183 87.987 257.863 87.2153 257.863 86.4107C257.863 85.6061 258.183 84.8344 258.751 84.2653C259.32 83.6961 260.091 83.3761 260.896 83.3756H305.979C305.752 82.9593 305.417 82.6118 305.01 82.3696C304.603 82.1274 304.137 81.9994 303.663 81.999H214.051C212.882 82.0003 211.761 82.4657 210.935 83.293C210.108 84.1202 209.644 85.2415 209.645 86.4107C209.645 87.5796 210.109 88.7006 210.935 89.5276C211.761 90.3547 212.882 90.8203 214.051 90.8224H303.663C304.137 90.822 304.603 90.694 305.01 90.4518C305.417 90.2095 305.752 89.862 305.979 89.4458L260.896 89.4458Z" fill="#FF6C6C"/>
<path d="M306.039 85.048H263.176C263.11 85.0479 263.047 85.0217 263.001 84.9752C262.955 84.9288 262.929 84.8659 262.929 84.8002C262.929 84.7346 262.955 84.6717 263.001 84.6253C263.047 84.5788 263.11 84.5526 263.176 84.5525H306.039C306.105 84.5525 306.168 84.5786 306.214 84.6251C306.261 84.6715 306.287 84.7345 306.287 84.8002C306.287 84.866 306.261 84.929 306.214 84.9754C306.168 85.0219 306.105 85.048 306.039 85.048Z" fill="#CCCCCC"/>
<path d="M306.039 86.6584H263.176C263.11 86.6584 263.047 86.6323 263 86.5858C262.954 86.5393 262.928 86.4763 262.928 86.4106C262.928 86.3449 262.954 86.2819 263 86.2354C263.047 86.1889 263.11 86.1628 263.176 86.1628H306.039C306.104 86.1628 306.167 86.1889 306.214 86.2354C306.26 86.2819 306.286 86.3449 306.286 86.4106C306.286 86.4763 306.26 86.5393 306.214 86.5858C306.167 86.6323 306.104 86.6584 306.039 86.6584Z" fill="#CCCCCC"/>
<path d="M306.039 88.2687H263.176C263.11 88.2686 263.047 88.2424 263.001 88.1959C262.955 88.1495 262.929 88.0866 262.929 88.021C262.929 87.9553 262.955 87.8924 263.001 87.846C263.047 87.7995 263.11 87.7734 263.176 87.7732H306.039C306.072 87.7731 306.104 87.7795 306.134 87.7919C306.164 87.8043 306.192 87.8225 306.215 87.8456C306.238 87.8686 306.256 87.8959 306.269 87.926C306.281 87.9561 306.287 87.9884 306.287 88.021C306.287 88.0535 306.281 88.0858 306.269 88.1159C306.256 88.146 306.238 88.1733 306.215 88.1964C306.192 88.2194 306.164 88.2376 306.134 88.25C306.104 88.2624 306.072 88.2688 306.039 88.2687Z" fill="#CCCCCC"/>
<path d="M249.252 80.6128C248.447 80.6123 247.675 80.2922 247.107 79.7231C246.538 79.154 246.218 78.3823 246.218 77.5777C246.218 76.7731 246.538 76.0014 247.107 75.4323C247.675 74.8631 248.447 74.5431 249.252 74.5426H294.334C294.108 74.1263 293.773 73.7788 293.365 73.5366C292.958 73.2944 292.493 73.1664 292.019 73.166H202.406C201.237 73.1673 200.116 73.6327 199.29 74.4599C198.464 75.2872 198 76.4085 198 77.5777C198.001 78.7466 198.465 79.8675 199.291 80.6946C200.117 81.5217 201.237 81.9873 202.406 81.9893H292.019C292.493 81.989 292.958 81.861 293.365 81.6188C293.773 81.3765 294.108 81.0291 294.334 80.6128L249.252 80.6128Z" fill="#CCCCCC"/>
<path d="M294.395 76.215H251.531C251.466 76.2149 251.403 76.1887 251.357 76.1422C251.31 76.0958 251.284 76.0329 251.284 75.9673C251.284 75.9016 251.31 75.8387 251.357 75.7923C251.403 75.7458 251.466 75.7196 251.531 75.7195H294.395C294.46 75.7195 294.523 75.7456 294.57 75.7921C294.616 75.8385 294.642 75.9015 294.642 75.9673C294.642 76.033 294.616 76.096 294.57 76.1424C294.523 76.1889 294.46 76.215 294.395 76.215Z" fill="#CCCCCC"/>
<path d="M294.394 77.8251H251.531C251.498 77.8251 251.466 77.8187 251.436 77.8063C251.406 77.7938 251.379 77.7756 251.356 77.7526C251.333 77.7295 251.315 77.7022 251.302 77.6722C251.29 77.6421 251.283 77.6099 251.283 77.5774C251.283 77.5448 251.29 77.5126 251.302 77.4825C251.315 77.4525 251.333 77.4252 251.356 77.4022C251.379 77.3792 251.406 77.3609 251.436 77.3485C251.466 77.336 251.498 77.3296 251.531 77.3296H294.394C294.427 77.3296 294.459 77.336 294.489 77.3485C294.519 77.3609 294.546 77.3792 294.569 77.4022C294.592 77.4252 294.611 77.4525 294.623 77.4825C294.636 77.5126 294.642 77.5448 294.642 77.5774C294.642 77.6099 294.636 77.6421 294.623 77.6722C294.611 77.7022 294.592 77.7295 294.569 77.7526C294.546 77.7756 294.519 77.7938 294.489 77.8063C294.459 77.8187 294.427 77.8251 294.394 77.8251Z" fill="#CCCCCC"/>
<path d="M294.394 79.4357H251.531C251.465 79.4357 251.402 79.4096 251.356 79.3631C251.309 79.3167 251.283 79.2537 251.283 79.1879C251.283 79.1222 251.309 79.0592 251.356 79.0128C251.402 78.9663 251.465 78.9402 251.531 78.9402H294.394C294.427 78.9402 294.459 78.9466 294.489 78.959C294.519 78.9715 294.546 78.9897 294.569 79.0128C294.592 79.0358 294.611 79.0631 294.623 79.0931C294.636 79.1232 294.642 79.1554 294.642 79.1879C294.642 79.2205 294.636 79.2527 294.623 79.2828C294.611 79.3128 294.592 79.3401 294.569 79.3631C294.546 79.3861 294.519 79.4044 294.489 79.4169C294.459 79.4293 294.427 79.4357 294.394 79.4357Z" fill="#CCCCCC"/>
<path d="M295.384 61.7689C295.149 61.7686 294.923 61.6789 294.752 61.518C294.58 61.3572 294.476 61.1372 294.461 60.9026L294.323 58.8023C294.307 58.557 294.389 58.3153 294.551 58.1305C294.713 57.9457 294.942 57.8328 295.188 57.8167L311.643 56.7391C311.902 56.7221 312.162 56.7564 312.408 56.8399C312.654 56.9235 312.882 57.0547 313.077 57.2261C313.273 57.3975 313.432 57.6057 313.547 57.8389C313.662 58.072 313.73 58.3255 313.747 58.5849C313.764 58.8443 313.73 59.1045 313.646 59.3506C313.563 59.5967 313.431 59.824 313.26 60.0194C313.089 60.2148 312.88 60.3746 312.647 60.4895C312.414 60.6045 312.161 60.6724 311.901 60.6894L295.446 61.7669C295.426 61.7683 295.405 61.7689 295.384 61.7689Z" fill="#FF6C6C"/>
<path d="M298.629 62.0401C298.389 62.0397 298.159 61.9466 297.986 61.7803C297.814 61.6139 297.712 61.3873 297.703 61.1477L297.586 58.0107C297.581 57.889 297.601 57.7677 297.643 57.6536C297.685 57.5395 297.75 57.4348 297.832 57.3456C297.915 57.2563 298.015 57.1843 298.125 57.1336C298.236 57.0828 298.356 57.0544 298.477 57.0498L312.009 56.5441C312.254 56.5349 312.494 56.6237 312.674 56.791C312.854 56.9582 312.96 57.1901 312.97 57.4358L313.087 60.5729C313.091 60.6945 313.072 60.8158 313.03 60.93C312.987 61.0441 312.923 61.1488 312.84 61.238C312.757 61.3272 312.658 61.3992 312.547 61.45C312.436 61.5007 312.317 61.5292 312.195 61.5337L298.664 62.0394C298.652 62.0399 298.64 62.0401 298.629 62.0401Z" fill="#2F2E41"/>
<path d="M314.485 90.9577H312.38C312.134 90.9575 311.899 90.8597 311.725 90.6859C311.551 90.5122 311.453 90.2766 311.453 90.0308V72.4882C311.453 72.2425 311.551 72.0069 311.725 71.8331C311.899 71.6593 312.134 71.5616 312.38 71.5613H314.485C314.731 71.5616 314.966 71.6593 315.14 71.8331C315.314 72.0069 315.412 72.2425 315.412 72.4882V90.0308C315.412 90.2766 315.314 90.5122 315.14 90.6859C314.966 90.8597 314.731 90.9575 314.485 90.9577Z" fill="#2F2E41"/>
<path d="M305.143 81.6847L303.343 80.5937C303.133 80.466 302.982 80.2603 302.923 80.0216C302.865 79.783 302.903 79.5308 303.03 79.3205L312.124 64.3186C312.251 64.1086 312.457 63.9578 312.696 63.8993C312.934 63.8407 313.186 63.8793 313.397 64.0064L315.197 65.0974C315.407 65.2251 315.557 65.4308 315.616 65.6695C315.675 65.9081 315.636 66.1603 315.509 66.3706L306.416 81.3725C306.288 81.5825 306.082 81.7333 305.844 81.7918C305.605 81.8504 305.353 81.8118 305.143 81.6847Z" fill="#2F2E41"/>
<path d="M311.289 53.2536C315.305 53.2536 318.561 49.9974 318.561 45.9807C318.561 41.964 315.305 38.7078 311.289 38.7078C307.272 38.7078 304.016 41.964 304.016 45.9807C304.016 49.9974 307.272 53.2536 311.289 53.2536Z" fill="#FF6C6C"/>
<path d="M307.352 48.464C307.118 48.3871 306.903 48.261 306.722 48.0942C306.602 47.9752 306.509 47.8313 306.451 47.6726C306.392 47.514 306.369 47.3445 306.383 47.176C306.39 47.0559 306.426 46.9393 306.486 46.8351C306.546 46.7309 306.629 46.6421 306.73 46.5755C306.99 46.4086 307.338 46.4082 307.692 46.5642L307.678 43.725L307.964 43.7236L307.979 47.0615L307.76 46.9232C307.505 46.7632 307.141 46.6506 306.884 46.8156C306.82 46.8592 306.768 46.9168 306.73 46.9841C306.692 47.0513 306.671 47.1263 306.667 47.2033C306.657 47.3288 306.675 47.455 306.718 47.5731C306.762 47.6912 306.83 47.7986 306.919 47.8879C307.234 48.1888 307.693 48.2828 308.217 48.3669L308.172 48.6485C307.894 48.6116 307.619 48.5499 307.352 48.464Z" fill="#2F2E41"/>
<path d="M304.739 43.5815L304.701 43.8643L306.224 44.0654L306.261 43.7827L304.739 43.5815Z" fill="#2F2E41"/>
<path d="M309.545 44.2163L309.508 44.499L311.031 44.7001L311.068 44.4174L309.545 44.2163Z" fill="#2F2E41"/>
<path d="M317.361 77.195H305.097C304.776 77.1947 304.467 77.0668 304.24 76.8396C304.013 76.6124 303.885 76.3042 303.885 75.9829L306.452 56.294C306.454 55.9741 306.583 55.668 306.81 55.4426C307.037 55.2172 307.344 55.0908 307.664 55.0911H312.016C313.755 55.093 315.421 55.7845 316.651 57.0137C317.88 58.243 318.571 59.9097 318.573 61.6481V75.9829C318.573 76.3042 318.445 76.6124 318.218 76.8396C317.991 77.0668 317.682 77.1947 317.361 77.195Z" fill="#2F2E41"/>
<path d="M327.913 69.4366C327.989 69.5987 328.016 69.7793 327.992 69.9566C327.967 70.1338 327.892 70.3003 327.775 70.4358L326.399 72.0285C326.319 72.1206 326.222 72.1962 326.114 72.2508C326.005 72.3055 325.886 72.3381 325.765 72.347C325.644 72.3559 325.522 72.3407 325.406 72.3024C325.291 72.2642 325.184 72.2035 325.092 72.1239L312.613 61.3433C312.417 61.1734 312.255 60.9664 312.139 60.7341C312.022 60.5018 311.952 60.2488 311.933 59.9896C311.914 59.7303 311.946 59.4698 312.028 59.223C312.11 58.9763 312.239 58.748 312.409 58.5513C312.579 58.3546 312.786 58.1933 313.019 58.0766C313.251 57.9599 313.504 57.8901 313.763 57.8712C314.022 57.8523 314.283 57.8847 314.53 57.9665C314.776 58.0482 315.005 58.1778 315.201 58.3478L327.68 69.1284C327.778 69.2134 327.858 69.3185 327.913 69.4366Z" fill="#FF6C6C"/>
<path d="M325.159 65.8791C325.235 66.0412 325.262 66.2218 325.238 66.3991C325.213 66.5763 325.138 66.7428 325.021 66.8783L322.671 69.5988C322.51 69.7845 322.282 69.8989 322.037 69.9168C321.792 69.9347 321.549 69.8546 321.363 69.6941L311.117 60.8417C311.025 60.7621 310.949 60.6652 310.895 60.5564C310.84 60.4476 310.807 60.3292 310.798 60.2078C310.789 60.0864 310.805 59.9644 310.843 59.8488C310.881 59.7333 310.942 59.6264 311.021 59.5343L313.372 56.8139C313.451 56.7218 313.548 56.6462 313.657 56.5916C313.766 56.5369 313.884 56.5042 314.006 56.4954C314.127 56.4865 314.249 56.5017 314.365 56.5399C314.48 56.5782 314.587 56.6389 314.679 56.7185L324.926 65.5709C325.024 65.656 325.104 65.761 325.159 65.8791Z" fill="#2F2E41"/>
<path d="M311.425 41.6672C310.453 40.8626 309.153 41.6236 308.053 41.5156C307.002 41.4123 306.155 40.4866 305.924 39.4904C305.655 38.3282 306.238 37.1477 307.117 36.4032C308.08 35.5878 309.372 35.3344 310.604 35.4585C312.016 35.6007 313.316 36.2327 314.487 37.0048C315.616 37.7263 316.659 38.5761 317.593 39.5373C318.43 40.4273 319.146 41.4936 319.391 42.708C319.613 43.8117 319.483 45.0419 318.846 45.9925C318.508 46.48 318.05 46.8721 317.516 47.1311C316.96 47.4174 316.365 47.6259 315.827 47.9479C315.013 48.4348 314.233 49.4271 314.51 50.4391C314.569 50.6602 314.682 50.8633 314.838 51.0305C315.026 51.2313 315.353 50.9551 315.165 50.7537C314.834 50.4002 314.837 49.9202 315.002 49.4874C315.198 48.9995 315.554 48.5927 316.012 48.3337C316.575 47.9973 317.2 47.7845 317.778 47.4769C318.331 47.1954 318.808 46.7845 319.168 46.2789C319.848 45.2951 320.033 44.028 319.853 42.8626C319.657 41.6014 318.986 40.4647 318.153 39.5173C317.247 38.4862 316.141 37.6199 315.014 36.8442C313.804 36.0118 312.472 35.314 311.008 35.0803C309.739 34.8777 308.371 35.0432 307.278 35.7535C306.258 36.4164 305.487 37.5381 305.432 38.7762C305.415 39.3394 305.547 39.8971 305.817 40.3919C306.086 40.8867 306.483 41.3007 306.966 41.5914C307.461 41.875 308.032 41.996 308.6 41.9374C309.207 41.887 309.811 41.6894 310.424 41.7294C310.701 41.7409 310.966 41.8425 311.181 42.0186C311.393 42.1944 311.636 41.8415 311.425 41.6672Z" fill="#2F2E41"/>
<path d="M302.872 79.5741C302.875 79.558 302.878 79.5419 302.882 79.5259C302.907 79.4068 302.956 79.2939 303.025 79.1937C303.094 79.0936 303.183 79.0082 303.285 78.9425L305.054 77.8016C305.261 77.6687 305.512 77.6231 305.752 77.6749C305.992 77.7268 306.202 77.8718 306.335 78.0781L311.792 86.5375C311.925 86.7441 311.971 86.9952 311.919 87.2355C311.867 87.4757 311.722 87.6856 311.515 87.8189L309.746 88.9597C309.54 89.0927 309.289 89.1383 309.048 89.0864C308.808 89.0346 308.598 88.8896 308.465 88.6832L303.009 80.2239C302.884 80.0318 302.835 79.8001 302.872 79.5741Z" fill="#2F2E41"/>
</g>
</g>
<defs>
<clipPath id="clip0">
<rect width="324" height="94.9979" fill="white"/>
</clipPath>
<clipPath id="clip1">
<rect width="130" height="64.3702" fill="white" transform="translate(198 35)"/>
</clipPath>
</defs>
</svg>
