<svg width="324" height="95" viewBox="0 0 324 95" fill="none" xmlns="http://www.w3.org/2000/svg">
<g clip-path="url(#clip0)">
<rect width="324" height="94.9979" rx="8" fill="#FEC89A"/>
<path d="M276.472 80.6387H253.689C253.478 80.6387 253.307 80.8098 253.307 81.0209C253.307 81.232 253.478 81.4032 253.689 81.4032H276.472C276.683 81.4032 276.854 81.232 276.854 81.0209C276.854 80.8098 276.683 80.6387 276.472 80.6387Z" fill="#F4F4F4"/>
<path d="M276.472 82.0149H253.689C253.478 82.0149 253.307 82.186 253.307 82.3972C253.307 82.6083 253.478 82.7794 253.689 82.7794H276.472C276.683 82.7794 276.854 82.6083 276.854 82.3972C276.854 82.186 276.683 82.0149 276.472 82.0149Z" fill="#F4F4F4"/>
<path d="M276.472 83.3909H253.689C253.478 83.3909 253.307 83.562 253.307 83.7731C253.307 83.9842 253.478 84.1554 253.689 84.1554H276.472C276.683 84.1554 276.854 83.9842 276.854 83.7731C276.854 83.562 276.683 83.3909 276.472 83.3909Z" fill="#F4F4F4"/>
<path d="M279.682 87.825H258.887C258.676 87.825 258.505 87.9961 258.505 88.2072C258.505 88.4183 258.676 88.5895 258.887 88.5895H279.682C279.893 88.5895 280.064 88.4183 280.064 88.2072C280.064 87.9961 279.893 87.825 279.682 87.825Z" fill="#F4F4F4"/>
<path d="M279.682 89.2012H258.887C258.676 89.2012 258.505 89.3723 258.505 89.5834C258.505 89.7945 258.676 89.9657 258.887 89.9657H279.682C279.893 89.9657 280.064 89.7945 280.064 89.5834C280.064 89.3723 279.893 89.2012 279.682 89.2012Z" fill="#F4F4F4"/>
<path d="M279.682 90.5774H258.887C258.676 90.5774 258.505 90.7485 258.505 90.9597C258.505 91.1708 258.676 91.3419 258.887 91.3419H279.682C279.893 91.3419 280.064 91.1708 280.064 90.9597C280.064 90.7485 279.893 90.5774 279.682 90.5774Z" fill="#F4F4F4"/>
<path d="M225.109 79.1726C225.109 79.1726 222 79.4157 222 82.4738C222 85.5319 225.211 85.6848 225.211 85.6848L279.339 85.8377V84.9203H255.18C255.18 84.9203 254.416 85.0732 254.569 83.85V80.639C254.56 80.4559 254.625 80.277 254.749 80.1417C254.872 80.0063 255.045 79.9256 255.228 79.9173H255.296C256.38 79.905 279.033 80.1803 279.033 80.1803V78.957L225.109 79.1726Z" fill="url(#paint0_linear)"/>
<path d="M225.364 85.6969C225.364 85.6969 222 86.0531 222 89.4476C222 92.3528 224.358 93.0179 225.032 93.1494C225.133 93.1687 225.235 93.1785 225.338 93.1785L280.59 93.2427L280.542 92.1081L259.117 92.047C259.117 92.047 257.741 92.0302 257.894 90.6861V87.8131C257.894 87.8131 257.741 86.755 258.965 86.755C260.035 86.755 280.218 86.9797 280.218 86.9797V85.5317L225.364 85.6969Z" fill="url(#paint1_linear)"/>
<path d="M256.563 80.6387H258.398C258.924 81.0063 259.303 81.5478 259.469 82.1677C259.774 83.238 259.469 83.5438 260.08 84.7671C260.441 85.4873 260.865 85.9643 261.151 86.449C261.21 86.5515 261.288 87.2487 261.304 87.3665L261.456 89.2013L260.692 88.7426L259.927 89.5071C259.927 89.5071 259.927 87.0606 259.622 86.6019C259.316 86.1432 258.109 84.4613 258.245 83.238C258.398 81.8619 257.94 81.4032 256.563 80.6387Z" fill="#F8246A"/>
<path d="M290.515 47H286.335C285.321 47 284.5 47.8215 284.5 48.8348V92.4125C284.5 93.4259 285.321 94.2474 286.335 94.2474H290.515C291.529 94.2474 292.35 93.4259 292.35 92.4125V48.8348C292.35 47.8215 291.529 47 290.515 47Z" fill="url(#paint2_linear)"/>
<path d="M304.018 64.0146L301.012 65.7501C300.134 66.2567 299.834 67.3789 300.34 68.2565L314.872 93.4267C315.379 94.3043 316.501 94.605 317.379 94.0983L320.385 92.3628C321.262 91.8561 321.563 90.734 321.056 89.8564L306.524 64.6862C306.018 63.8086 304.895 63.5079 304.018 64.0146Z" fill="url(#paint3_linear)"/>
<path d="M298.261 53.7275H294.081C293.068 53.7275 292.246 54.549 292.246 55.5624V92.4123C292.246 93.4256 293.068 94.2471 294.081 94.2471H298.261C299.275 94.2471 300.096 93.4256 300.096 92.4123V55.5624C300.096 54.549 299.275 53.7275 298.261 53.7275Z" fill="url(#paint4_linear)"/>
</g>
<defs>
<linearGradient id="paint0_linear" x1="222" y1="82.3974" x2="279.339" y2="82.3974" gradientUnits="userSpaceOnUse">
<stop stop-color="#E5A4ED"/>
<stop offset="1" stop-color="#7A5BF5"/>
</linearGradient>
<linearGradient id="paint1_linear" x1="222.005" y1="89.3865" x2="280.594" y2="89.3865" gradientUnits="userSpaceOnUse">
<stop stop-color="#F71F68"/>
<stop offset="1" stop-color="#F9C448"/>
</linearGradient>
<linearGradient id="paint2_linear" x1="4336.49" y1="12068.6" x2="8360.61" y2="11234.4" gradientUnits="userSpaceOnUse">
<stop stop-color="#E5A4ED"/>
<stop offset="1" stop-color="#7A5BF5"/>
</linearGradient>
<linearGradient id="paint3_linear" x1="16519.2" y1="10166.5" x2="18563.6" y2="7855.16" gradientUnits="userSpaceOnUse">
<stop stop-color="#E5A4ED"/>
<stop offset="1" stop-color="#7A5BF5"/>
</linearGradient>
<linearGradient id="paint4_linear" x1="4822.22" y1="10737.9" x2="8270.85" y2="9904.3" gradientUnits="userSpaceOnUse">
<stop stop-color="#F71F68"/>
<stop offset="1" stop-color="#F9C448"/>
</linearGradient>
<clipPath id="clip0">
<rect width="324" height="94.9979" fill="white"/>
</clipPath>
</defs>
</svg>
