<svg width="324" height="95" viewBox="0 0 324 95" fill="none" xmlns="http://www.w3.org/2000/svg">
<g clip-path="url(#clip0)">
<rect width="324" height="94.9979" rx="8" fill="#89CE8F"/>
<g opacity="0.8">
<path d="M324.827 64.4887L293.219 87.1294C292.354 87.753 291.134 87.5564 290.512 86.6843L260.433 44.8514C259.809 43.9897 260.009 42.772 260.885 42.1495L292.493 19.5089C293.358 18.8853 294.578 19.0819 295.2 19.954L325.274 61.7841C325.891 62.6579 325.693 63.8651 324.827 64.4887Z" fill="#D6D7F0"/>
<path d="M325.907 68.5662L298.807 96.4186C298.058 97.1906 296.831 97.208 296.067 96.4589L259.028 60.6266C258.255 59.8808 258.241 58.6571 258.993 57.8939L286.093 30.0415C286.842 29.2695 288.069 29.2521 288.833 30.0012L325.868 65.8351C326.631 66.5693 326.647 67.7974 325.907 68.5662Z" fill="#E8E8F7"/>
<path d="M286.427 2.85136C289.904 4.4968 292.377 6.84243 295.136 9.43967C295.911 10.1645 297.951 7.38186 297.426 6.60944C295.325 3.496 291.96 1.35038 288.558 -0.121294C287.449 -0.601293 285.507 2.41709 286.427 2.85136Z" fill="#F3E9E1"/>
<path d="M301.593 -3.14431C302.688 0.0505766 303.132 3.24579 303.664 6.56947C303.892 8.02636 305.926 5.46213 305.936 4.65763C305.981 1.20022 305.032 -2.36152 303.804 -5.57271C303.433 -6.51788 301.26 -4.10876 301.593 -3.14431Z" fill="#F3E9E1"/>
<path d="M312.723 7.60776C314.333 5.92681 315.963 4.25861 317.621 2.62531C318.217 2.04097 318.84 0.857848 318.312 0.0511452C317.782 -0.764411 316.683 -0.265694 316.146 0.261263C314.486 1.90064 312.855 3.55391 311.249 5.24372C310.671 5.85132 310.015 6.99677 310.557 7.81788C311.084 8.60965 312.211 8.14583 312.723 7.60776Z" fill="#F3E9E1"/>
<path d="M306.217 30.5677C306.292 29.715 304.54 28.8694 302.304 28.6792C300.068 28.4889 298.195 29.0259 298.12 29.8786C298.045 30.7313 299.797 31.5769 302.033 31.7671C304.269 31.9574 306.142 31.4204 306.217 30.5677Z" fill="#D4BFA9"/>
<path d="M298.321 28.427C298.501 26.9096 298.559 25.3919 298.269 23.9028C297.64 20.6856 295.425 17.5537 296.368 14.4177C297.051 12.1593 299.267 10.641 301.55 10.0651C304.339 9.36692 307.497 9.88151 309.68 11.7455C311.856 13.6172 312.836 16.8953 311.691 19.5272C310.728 21.7386 308.537 23.2171 307.463 25.3741C306.862 26.5849 306.651 27.9375 306.367 29.2673L306.262 29.679C300.912 31.2528 298.321 28.427 298.321 28.427Z" fill="#EBDBCD"/>
<path d="M305.455 20.1304C304.908 19.4215 304.251 19.7464 303.74 20.2635C303.414 19.9012 302.956 19.4314 302.43 19.4452C301.849 19.4595 301.407 20.037 301.144 20.4871C300.56 21.5 300.291 22.7485 300.304 23.9125C300.317 25.0764 300.569 26.232 300.618 27.3977C300.638 27.8738 301.372 27.7824 301.352 27.3063C301.278 25.8276 300.871 24.3366 301.111 22.8619C301.248 22.0455 301.506 21.038 302.098 20.415C302.297 20.2152 302.451 20.1276 302.707 20.2995C302.905 20.4376 303.08 20.6094 303.225 20.7822C303.241 20.7966 303.249 20.8187 303.264 20.8331C303.197 20.9237 303.14 21.0154 303.095 21.0977C302.604 21.8995 302.061 23.2144 302.447 24.159C302.626 24.5863 303.048 24.8376 303.503 24.6887C304.008 24.5216 304.336 23.9511 304.498 23.4732C304.796 22.5764 304.638 21.6327 304.162 20.8422C304.28 20.6975 304.422 20.5745 304.557 20.504C304.966 20.2969 305.071 21.0691 305.094 21.3373C305.185 22.1951 305.031 23.0584 304.862 23.8969C304.738 24.5275 304.663 25.1848 304.449 25.7932C304.214 26.4651 303.789 27.0509 303.38 27.6212C303.103 28.006 303.689 28.4535 303.965 28.0686C304.439 27.3989 304.935 26.706 305.176 25.9113C305.431 25.0758 305.57 24.1682 305.718 23.302C305.889 22.3618 306.089 20.9528 305.455 20.1304ZM303.891 22.1266C303.953 22.5116 303.921 22.9268 303.786 23.2992C303.707 23.5097 303.276 24.3349 303.111 23.7966C303.011 23.4712 303.118 23.0534 303.201 22.7307C303.311 22.3068 303.478 21.8974 303.702 21.5219C303.785 21.7178 303.852 21.9247 303.891 22.1266Z" fill="#2E7C46"/>
<path d="M302.031 31.7742C300.016 31.6009 298.403 30.9053 298.159 30.1396L298.15 30.1429L298.523 33.4602C298.46 34.1484 299.882 34.8342 301.687 34.985C303.495 35.1446 305.006 34.7092 305.074 34.0193C305.08 33.9817 305.075 33.9535 305.072 33.9192L306.145 30.8205L306.136 30.8238C305.759 31.5231 304.048 31.937 302.031 31.7742Z" fill="#2E7C46"/>
<path d="M298.873 52.2305C297.461 51.0676 295.881 50.3394 294.017 50.669C292.445 50.9406 291.077 52.0736 290.036 53.231C289.956 53.3159 289.888 53.4065 289.816 53.4838C289.381 52.6125 288.873 51.7887 288.278 51.0427C287.39 49.9317 286.178 48.7095 284.644 48.7705C283.21 48.8295 282.017 49.9727 281.079 50.9711C279.185 52.9893 278.041 55.8572 278.022 58.6097C278.014 59.9627 278.567 61.48 279.457 62.4998C279.678 62.7551 279.965 63.0112 280.254 63.1506C280.333 63.2121 280.402 63.2769 280.49 63.3352C282.869 65.1266 285.231 66.9544 287.49 68.9009C287.844 69.3086 288.295 69.7607 288.738 69.9889C288.754 70.0033 288.764 70.0044 288.775 70.0205C289.609 70.7686 290.433 71.5306 291.247 72.3064C290.784 73.345 291.194 74.9001 291.505 75.8324C291.796 76.7116 292.191 77.6231 292.762 78.358C293.197 78.9168 293.823 79.732 294.588 79.8055C297.707 80.1182 300.51 76.9412 301.875 74.4646C303.686 71.2027 304.397 67.5232 304.157 63.8291C303.886 59.7385 302.131 54.9194 298.873 52.2305ZM299.225 59.52C299.227 59.5244 299.227 59.5244 299.225 59.52C299.227 59.5244 299.227 59.5244 299.225 59.52ZM283.784 58.2831C284.434 57.5684 285.175 56.9251 286.043 56.4973C286.387 56.3238 286.703 56.2067 287.081 56.2578C287.106 56.3944 287.142 56.5725 287.151 56.6245C287.162 56.7213 287.174 56.8076 287.173 56.833C287.182 56.9104 287.199 56.9696 287.201 57.0039C287.206 57.1936 287.212 57.3728 287.208 57.5657C287.207 57.5912 287.204 57.6227 287.203 57.6481C286.611 58.9811 286.16 60.378 285.861 61.7786C284.847 61.0217 283.812 60.303 282.755 59.6224C283.061 59.1663 283.391 58.7213 283.784 58.2831ZM299.293 61.5654C299.249 62.4279 298.701 64.5053 298.177 65.6671C297.609 66.926 296.672 68.2965 295.623 69.3361C295.475 69.4818 295.317 69.6158 295.159 69.7349C293.971 68.4536 292.659 67.2632 291.321 66.1231C291.467 65.55 291.583 64.9779 291.658 64.3908C292.246 63.1701 292.999 62.0138 293.915 60.9534C294.83 59.8931 296.165 58.7778 297.658 58.8782C297.835 58.8929 298.023 58.9237 298.194 58.9611C298.481 59.0662 298.538 59.0702 298.367 58.9775C298.461 59.0131 298.982 59.3536 299.03 59.3609C299.09 59.429 299.163 59.5027 299.233 59.5676C299.236 59.5764 299.239 59.5853 299.244 59.5986C299.248 59.6074 299.248 59.6074 299.251 59.6163C299.28 59.817 299.308 60.0134 299.319 60.2208C299.317 60.2418 299.318 60.2462 299.316 60.2672C299.326 60.7018 299.313 61.1298 299.293 61.5654Z" fill="#D6D7F0"/>
<path d="M262.687 78.4259C262.668 78.443 262.644 78.4618 262.622 78.47C262.524 78.5063 262.412 78.4475 262.384 78.3468C262.269 77.9816 262.178 77.6021 262.145 77.2117C262.131 77.106 262.209 77.0166 262.315 77.0024C262.421 76.9883 262.51 77.0659 262.524 77.1715C262.557 77.5321 262.633 77.8867 262.749 78.2264C262.769 78.2945 262.745 78.379 262.687 78.4259Z" fill="#2E7C46"/>
<path d="M293.094 66.8147C293.079 66.8301 293.06 66.8472 293.038 66.8555L292.772 66.9545C292.162 67.191 291.53 67.4358 290.852 67.6777C290.754 67.714 290.644 67.664 290.605 67.5577C290.569 67.4603 290.619 67.351 290.726 67.3114C291.395 67.0728 292.027 66.828 292.637 66.5915L292.903 66.4925C293.001 66.4562 293.111 66.5062 293.156 66.6003C293.169 66.6761 293.15 66.7634 293.094 66.8147ZM288.685 68.3213C288.666 68.3384 288.633 68.3604 288.608 68.3598C287.797 68.5705 287.037 68.7166 286.303 68.808C286.197 68.8221 286.107 68.7445 286.093 68.6389C286.079 68.5333 286.157 68.4439 286.263 68.4297C286.989 68.3416 287.724 68.1993 288.518 67.9953C288.619 67.9678 288.723 68.03 288.749 68.1262C288.766 68.2004 288.739 68.2761 288.685 68.3213ZM284.083 68.8466C284.05 68.8791 284.001 68.8973 283.945 68.8977C283.148 68.8463 282.362 68.7303 281.618 68.5231C281.516 68.4952 281.457 68.3911 281.485 68.29C281.514 68.1889 281.618 68.1299 281.719 68.1578C282.444 68.3522 283.193 68.4771 283.969 68.5262C284.073 68.533 284.152 68.6244 284.145 68.7278C284.145 68.7682 284.125 68.8107 284.083 68.8466ZM279.635 67.6221C279.581 67.6674 279.492 67.6854 279.417 67.6477C278.714 67.2791 278.055 66.8387 277.453 66.3321C277.371 66.2617 277.364 66.1484 277.435 66.0667C277.506 65.985 277.619 65.978 277.701 66.0484C278.274 66.5306 278.909 66.9599 279.592 67.3157C279.681 67.3635 279.719 67.4802 279.666 67.5702C279.67 67.594 279.66 67.6078 279.635 67.6221ZM278.946 64.9512C278.632 65.2342 278.29 65.4972 277.92 65.7403C277.831 65.7987 277.714 65.7714 277.652 65.6839C277.593 65.5948 277.612 65.482 277.709 65.4159C278.062 65.1838 278.387 64.9273 278.691 64.6581C278.953 64.4248 279.2 64.177 279.415 63.9259C279.485 63.8442 279.599 63.8372 279.681 63.9076C279.763 63.978 279.769 64.0914 279.699 64.1731C279.472 64.4485 279.223 64.7024 278.946 64.9512ZM275.881 66.795C275.866 66.8105 275.844 66.8187 275.83 66.8342C275.194 67.0955 274.514 67.333 273.617 67.6005C273.516 67.6279 273.407 67.5779 273.378 67.4728C273.35 67.3721 273.401 67.2627 273.506 67.2336C274.398 66.9678 275.069 66.7336 275.687 66.4789C275.785 66.4426 275.9 66.4804 275.94 66.5867C275.959 66.6652 275.942 66.7421 275.881 66.795ZM280.866 62.2131C280.817 62.2567 280.744 62.2786 280.677 62.2481C280.583 62.2125 280.522 62.104 280.563 62.0084C280.696 61.6316 280.783 61.2414 280.821 60.8544C280.856 60.5244 280.841 60.1721 280.777 59.8231C280.759 59.7191 280.829 59.6225 280.932 59.5995C281.036 59.5809 281.133 59.6508 281.155 59.7531C281.226 60.1348 281.239 60.523 281.205 60.8934C281.168 61.3102 281.066 61.7308 280.924 62.1363C280.907 62.1728 280.889 62.1943 280.866 62.2131ZM276.148 64.6303C276.139 64.6336 276.134 64.6457 276.129 64.6474C276.04 64.7058 275.927 64.6873 275.864 64.5998C275.385 63.9215 275.04 63.1981 274.842 62.4606C274.815 62.36 274.877 62.2561 274.974 62.2303C275.07 62.2046 275.179 62.265 275.204 62.3613C275.397 63.0556 275.725 63.7348 276.173 64.3843C276.225 64.4557 276.217 64.5696 276.148 64.6303ZM271.45 68.2037C271.432 68.2208 271.408 68.2396 271.374 68.2423C271.11 68.3202 270.856 68.3993 270.592 68.4773C270.086 68.64 269.625 68.801 269.181 68.966C269.083 69.0023 268.974 68.9523 268.929 68.8582C268.893 68.7608 268.943 68.6514 269.037 68.6063C269.483 68.4308 269.956 68.2753 270.475 68.1077C270.739 68.0297 271.001 67.9473 271.266 67.8694C271.367 67.8419 271.479 67.9008 271.505 67.997C271.521 68.0817 271.498 68.1557 271.45 68.2037ZM262.675 75.0345C262.626 75.078 262.562 75.0967 262.498 75.075C262.397 75.0472 262.338 74.9431 262.366 74.842C262.585 74.0959 262.916 73.3684 263.372 72.6903C263.43 72.6031 263.548 72.5795 263.635 72.6378C263.723 72.696 263.746 72.8133 263.687 72.9005C263.259 73.5433 262.937 74.2271 262.732 74.9428C262.726 74.9804 262.702 75.0096 262.675 75.0345ZM267.118 69.9034C267.104 69.9189 267.099 69.9205 267.081 69.9271C266.376 70.315 265.749 70.7494 265.201 71.2199C265.115 71.2872 265.004 71.2732 264.926 71.2011C264.862 71.1241 264.873 71.0042 264.949 70.9358C265.518 70.4525 266.171 70.0082 266.9 69.6016C266.991 69.5476 267.112 69.5882 267.156 69.6779C267.208 69.7493 267.193 69.8455 267.118 69.9034ZM280.059 57.8886C279.981 57.9526 279.864 57.9507 279.796 57.8753C279.342 57.4143 278.804 57.1506 278.223 57.1096C278.098 57.1005 277.981 57.0986 277.858 57.1089C277.752 57.123 277.66 57.0366 277.655 56.9276C277.641 56.822 277.727 56.7293 277.837 56.724C277.977 56.7071 278.115 56.7113 278.256 56.7243C278.932 56.7754 279.561 57.0808 280.073 57.6011C280.151 57.688 280.146 57.8108 280.059 57.8886C280.067 57.8853 280.067 57.8853 280.059 57.8886ZM275.014 60.2559C274.972 60.2917 274.914 60.3132 274.847 60.2976C274.74 60.2819 274.677 60.1795 274.693 60.0728C274.845 59.2708 275.208 58.5062 275.709 57.9073C275.779 57.8256 275.893 57.8187 275.971 57.8802C276.053 57.9506 276.06 58.064 275.998 58.1424C275.533 58.6877 275.2 59.3959 275.064 60.1316C275.066 60.1913 275.047 60.2233 275.014 60.2559Z" fill="#2E7C46"/>
<path d="M296.414 65.8739C296.38 65.9065 296.331 65.9246 296.285 65.9218C296 65.9168 295.653 65.9752 295.229 66.0871C295.128 66.1146 295.024 66.0524 294.999 65.9562C294.973 65.8599 295.034 65.7517 295.13 65.7259C295.589 65.6007 295.967 65.5412 296.294 65.5508C296.394 65.5488 296.482 65.6368 296.487 65.7458C296.472 65.7867 296.453 65.8292 296.414 65.8739Z" fill="#2E7C46"/>
<path d="M288.984 15.4921C289.001 15.4836 289.021 15.4723 289.031 15.4585C289.078 15.3979 289.048 15.2961 288.969 15.2441C288.684 15.0435 288.384 14.8568 288.065 14.7083C287.98 14.6646 287.892 14.6939 287.863 14.7676C287.833 14.8412 287.883 14.9318 287.968 14.9755C288.263 15.1137 288.545 15.282 288.808 15.4751C288.861 15.5115 288.935 15.5204 288.984 15.4921Z" fill="#2E7C46"/>
<path d="M274.248 34.2502C274.263 34.2444 274.28 34.2358 274.291 34.2221L274.418 34.0568C274.716 33.6818 275.026 33.2931 275.34 32.8691C275.387 32.8085 275.363 32.7119 275.282 32.6492C275.207 32.5917 275.107 32.5943 275.057 32.6604C274.746 33.0789 274.437 33.4676 274.139 33.8425L274.012 34.0078C273.965 34.0684 273.989 34.165 274.059 34.228C274.12 34.2616 274.196 34.2758 274.248 34.2502ZM276.238 31.4742C276.255 31.4657 276.279 31.4489 276.282 31.4299C276.593 30.898 276.842 30.3839 277.04 29.8711C277.07 29.7974 277.02 29.7069 276.935 29.6632C276.849 29.6195 276.762 29.6487 276.733 29.7224C276.538 30.2297 276.297 30.7274 275.994 31.2482C275.955 31.3141 275.989 31.4104 276.065 31.4598C276.123 31.4961 276.191 31.4997 276.238 31.4742ZM277.444 28.2458C277.476 28.2315 277.5 28.2012 277.509 28.1604C277.6 27.5559 277.635 26.9393 277.587 26.3248C277.581 26.2412 277.504 26.1649 277.416 26.1537C277.327 26.1425 277.26 26.2009 277.267 26.2844C277.307 26.8802 277.286 27.4722 277.197 28.0605C277.185 28.1391 277.248 28.2266 277.335 28.254C277.368 28.2667 277.407 28.2657 277.444 28.2458ZM277.17 24.5775C277.217 24.552 277.247 24.4919 277.228 24.4248C277.039 23.7897 276.783 23.1643 276.463 22.5596C276.418 22.477 276.325 22.4362 276.245 22.4626C276.165 22.4889 276.141 22.5706 276.185 22.6531C276.49 23.2286 276.741 23.8324 276.922 24.4489C276.947 24.5293 277.038 24.5944 277.122 24.5842C277.141 24.5945 277.154 24.5915 277.17 24.5775ZM275.065 23.2248C275.353 23.0823 275.629 22.9132 275.893 22.7174C275.956 22.6698 275.953 22.5754 275.891 22.5014C275.826 22.4301 275.729 22.4083 275.658 22.4588C275.406 22.6462 275.139 22.8043 274.864 22.9437C274.626 23.0632 274.379 23.1668 274.134 23.246C274.055 23.2724 274.03 23.354 274.075 23.4366C274.12 23.5191 274.213 23.5599 274.292 23.5336C274.559 23.4538 274.812 23.3501 275.065 23.2248ZM277.11 21.5464C277.126 21.5407 277.136 21.5269 277.152 21.5211C277.475 21.1347 277.786 20.7081 278.158 20.1314C278.198 20.0656 278.175 19.969 278.092 19.9144C278.013 19.8624 277.914 19.865 277.872 19.9336C277.502 20.5075 277.195 20.9286 276.88 21.3039C276.833 21.3645 276.846 21.4614 276.927 21.5242C276.989 21.5631 277.056 21.5748 277.11 21.5464ZM272.468 23.775C272.513 23.7522 272.543 23.7055 272.529 23.6465C272.515 23.5658 272.435 23.4869 272.349 23.4864C272.013 23.4653 271.674 23.4065 271.346 23.3123C271.066 23.2331 270.776 23.111 270.496 22.9534C270.413 22.907 270.321 22.9283 270.285 22.9967C270.252 23.0678 270.294 23.1612 270.375 23.2104C270.68 23.3835 271.001 23.5157 271.314 23.6075C271.667 23.7119 272.034 23.7699 272.395 23.7931C272.428 23.7922 272.449 23.7863 272.468 23.775ZM275.266 21.0592C275.271 21.0537 275.282 21.0534 275.284 21.0507C275.347 21.0031 275.351 20.9139 275.289 20.8399C274.805 20.2717 274.261 19.7888 273.681 19.4095C273.602 19.3575 273.505 19.3708 273.468 19.4339C273.43 19.497 273.462 19.5961 273.538 19.6454C274.083 20.0068 274.593 20.4635 275.058 20.9998C275.108 21.0606 275.204 21.0905 275.266 21.0592ZM279.022 18.7239C279.04 18.7153 279.059 18.704 279.067 18.6795C279.176 18.5093 279.284 18.3472 279.393 18.1769C279.613 17.8553 279.824 17.5663 280.036 17.2909C280.082 17.2303 280.059 17.1336 279.988 17.0706C279.913 17.0132 279.814 17.0157 279.761 17.0711C279.54 17.3441 279.332 17.6438 279.106 17.9737C278.997 18.1439 278.884 18.3116 278.775 18.4818C278.736 18.5476 278.766 18.6495 278.841 18.6988C278.909 18.7376 278.974 18.744 279.022 18.7239ZM286.168 14.411C286.212 14.3882 286.238 14.3471 286.231 14.2932C286.225 14.2097 286.148 14.1334 286.059 14.1221C285.403 14.0472 284.743 14.0615 284.103 14.1833C284.021 14.1989 283.981 14.2782 284.015 14.3611C284.049 14.4439 284.142 14.4982 284.225 14.4826C284.831 14.3698 285.453 14.3484 286.082 14.424C286.114 14.4313 286.143 14.4224 286.168 14.411ZM281.16 16.0656C281.175 16.0598 281.177 16.0571 281.186 16.0461C281.626 15.6486 282.092 15.3233 282.575 15.0679C282.645 15.0255 282.652 14.9389 282.605 14.8591C282.552 14.7876 282.45 14.7578 282.381 14.792C281.884 15.0586 281.405 15.4004 280.945 15.8092C280.885 15.8594 280.899 15.9616 280.966 16.022C281.017 16.0828 281.099 16.1023 281.16 16.0656ZM269.009 21.8116C269.075 21.7748 269.093 21.6879 269.041 21.6136C268.734 21.1328 268.605 20.6527 268.668 20.2109C268.681 20.1161 268.699 20.0292 268.728 19.942C268.758 19.8683 268.702 19.7726 268.612 19.7344C268.526 19.6907 268.435 19.7254 268.412 19.8043C268.375 19.9025 268.355 20.0056 268.342 20.114C268.272 20.6289 268.42 21.1895 268.767 21.7314C268.826 21.8163 268.929 21.8515 269.009 21.8116C269.004 21.8171 269.004 21.8171 269.009 21.8116ZM271.82 18.839C271.857 18.8191 271.884 18.7833 271.883 18.7294C271.887 18.6455 271.813 18.5664 271.721 18.5445C271.029 18.4029 270.333 18.429 269.752 18.6087C269.672 18.635 269.647 18.7167 269.685 18.794C269.73 18.8766 269.823 18.9174 269.899 18.8965C270.43 18.7262 271.074 18.7043 271.708 18.8365C271.758 18.8568 271.787 18.8533 271.82 18.839Z" fill="#2E7C46"/>
<path d="M272.909 36.4021C272.942 36.3877 272.965 36.3574 272.971 36.3222C273.014 36.1104 273.121 35.8727 273.285 35.5958C273.325 35.5299 273.29 35.4336 273.215 35.3843C273.139 35.3349 273.039 35.3456 273.001 35.4086C272.82 35.7077 272.708 35.9671 272.661 36.2113C272.643 36.2847 272.701 36.3777 272.791 36.4159C272.827 36.4177 272.866 36.4167 272.909 36.4021Z" fill="#2E7C46"/>
<path d="M331.448 81.4848L332.139 79.8882C332.376 79.3419 332.123 78.7154 331.571 78.4821L305.667 67.4595L304.137 71.03L330.041 82.0526C330.581 82.2804 331.22 82.0279 331.448 81.4848Z" fill="#176734"/>
<path d="M304.137 71.0152L305.666 67.4447L300.171 66.7755L299.854 67.513L304.137 71.0152Z" fill="#EBDBCD"/>
<path d="M302.59 67.5849L302.093 68.0313L302.049 68.4962L301.628 68.9697L299.854 67.513L300.171 66.7755L302.389 67.0449L302.59 67.5849Z" fill="#176734"/>
<path d="M249.129 75.6079C251.348 71.3964 249.758 66.2013 245.577 64.0043C241.396 61.8073 236.207 63.4403 233.988 67.6518C231.77 71.8633 233.36 77.0584 237.541 79.2554C241.722 81.4524 246.911 79.8194 249.129 75.6079Z" fill="#176734"/>
<path d="M251.996 79.1196L243.592 74.7043C242.728 74.2517 242.388 73.1758 242.843 72.3063L242.849 72.2884C243.301 71.4279 244.379 71.091 245.252 71.5466L253.657 75.9618C254.521 76.4145 254.86 77.4904 254.405 78.3599L254.4 78.3778C253.944 79.2473 252.869 79.5752 251.996 79.1196Z" fill="#176734"/>
<path d="M247.208 74.5983C248.867 71.4507 247.682 67.5699 244.562 65.9304C241.441 64.2908 237.568 65.5134 235.909 68.661C234.251 71.8087 235.436 75.6895 238.556 77.329C241.676 78.9686 245.55 77.746 247.208 74.5983Z" fill="#ECCAD6"/>
<path d="M237.888 70.9925C237.902 70.5846 238.059 70.1688 238.461 69.9926C238.873 69.8149 239.211 70.0154 239.49 70.3207C240.04 70.9238 240.56 71.8153 241.52 71.6731C242.385 71.5446 242.764 70.6948 243.044 69.9768C243.186 69.6208 243.349 69.187 243.722 68.9915C244.11 68.796 244.496 69.1114 244.71 69.4154C244.992 69.8162 245.568 69.3093 245.279 68.9115C244.707 68.1023 243.64 67.9058 242.931 68.6372C242.534 69.0389 242.388 69.5772 242.169 70.0769C242.015 70.439 241.726 70.9553 241.261 70.9121C240.774 70.8615 240.45 70.2681 240.176 69.9344C239.847 69.5382 239.427 69.1916 238.895 69.156C237.861 69.0849 237.168 70.0105 237.13 70.9622C237.106 71.4463 237.868 71.493 237.888 70.9925Z" fill="#176734"/>
<path d="M238.235 74.1431C238.437 73.255 239.63 73.8903 240.086 74.1397C240.708 74.4781 241.459 75.0775 242.212 74.9569C242.891 74.847 243.306 74.2376 243.591 73.675C243.936 73.003 244.342 72.4355 245.179 72.4968C245.671 72.534 245.707 71.7705 245.216 71.7333C244.448 71.6702 243.718 72.0268 243.287 72.6557C242.938 73.1723 242.611 74.4417 241.764 74.1638C241.35 74.0278 240.955 73.7438 240.577 73.5404C240.191 73.3341 239.801 73.0965 239.376 72.9919C238.641 72.8151 237.699 73.0873 237.522 73.914C237.399 74.3805 238.13 74.6304 238.235 74.1431Z" fill="#176734"/>
</g>
</g>
<defs>
<clipPath id="clip0">
<rect width="324" height="94.9979" fill="white"/>
</clipPath>
</defs>
</svg>
