<svg width="324" height="95" viewBox="0 0 324 95" fill="none" xmlns="http://www.w3.org/2000/svg">
<g clip-path="url(#clip0)">
<rect width="324" height="94.9979" rx="8" fill="#BE95C4"/>
<path d="M231.564 60.9668H236.438C236.438 60.9668 237.955 61.1834 238.063 62.2665C238.171 63.3496 238.027 77.4387 238.027 77.4387L247.811 77.3218C247.811 77.3218 248.786 77.6467 248.786 78.7298C248.786 79.8129 248.028 80.2462 248.028 80.2462L233.163 80.179L231.564 60.9668Z" fill="#BAC6F2"/>
<path d="M231.564 60.9668C231.564 60.9668 230.156 61.1834 230.048 63.3496C229.94 65.5159 230.048 80.1379 230.048 80.1379L244.899 80.2462C245.005 80.2468 245.11 80.2251 245.208 80.1826C245.306 80.14 245.393 80.0776 245.465 79.9992C245.682 79.7609 245.97 79.3883 245.97 79.0569C245.97 78.4731 245.753 77.5406 244.562 77.5406C243.37 77.5406 233.297 77.4323 233.297 77.4323L233.081 62.2687C233.081 62.2687 233.081 61.1834 231.564 60.9668Z" fill="#B1C1F2"/>
<path d="M237.783 80.2092C237.783 80.2092 237.521 81.4375 238.388 81.4375H239.796C239.904 81.4375 240.365 80.7876 240.081 80.246C239.796 79.7045 237.784 80.2081 237.784 80.2081" fill="#BAC6F2"/>
<path d="M238.388 81.4439L238.496 93.6766H239.471L239.525 81.3735L238.388 81.4439Z" fill="#E9EDFA"/>
<path d="M234.381 93.4602L243.696 93.5685V94.435L234.381 94.3267V93.4602Z" fill="#E9EDFA"/>
<path d="M252.794 94.5433L252.36 71.9062H254.635L254.527 94.5433H252.794Z" fill="white"/>
<path d="M302.292 72.0144H304.783L303.917 94.6514L302.292 94.7597V72.0144Z" fill="white"/>
<path d="M250.627 68.0071L250.735 71.6896L305.866 72.0146L305.924 67.8955L250.627 68.0071Z" fill="#E9EDFA"/>
<path d="M247.27 65.9492L309.223 66.1658V68.2238L247.378 68.1154L247.27 65.9492Z" fill="#BAC6F2"/>
<path d="M260.13 33L260.21 53.7654L317.999 53.6853V33.1614L260.13 33Z" fill="white"/>
<path d="M270.472 39.4985V42.0547L294.138 41.9431V39.4985H270.472Z" fill="#BAC6F2"/>
<path d="M270.472 46.6094V49.1655L294.138 49.054V46.6094H270.472Z" fill="#BAC6F2"/>
<path d="M266.472 42.9461C267.453 42.9461 268.249 42.1504 268.249 41.1687C268.249 40.1871 267.453 39.3914 266.472 39.3914C265.49 39.3914 264.694 40.1871 264.694 41.1687C264.694 42.1504 265.49 42.9461 266.472 42.9461Z" fill="#BAC6F2"/>
<path d="M266.472 49.5846C267.453 49.5846 268.249 48.7888 268.249 47.8072C268.249 46.8255 267.453 46.0298 266.472 46.0298C265.49 46.0298 264.694 46.8255 264.694 47.8072C264.694 48.7888 265.49 49.5846 266.472 49.5846Z" fill="#BAC6F2"/>
<path d="M314.648 42.2952H300.598V49.1491H314.648V42.2952Z" fill="#E9EDFA"/>
<path d="M300.379 48.822C300.379 48.822 301.473 46.4262 302.514 46.6872C303.555 46.9482 303.813 48.0411 304.597 47.5721C305.38 47.1031 305.885 45.2185 306.645 44.9239C307.728 44.5026 308.085 44.9672 309.544 45.8012C311.003 46.6352 311.623 46.4511 312.224 45.8359C312.773 45.2727 313.794 43.7444 314.925 43.0642" stroke="#BAC6F2" stroke-width="0.324933" stroke-linecap="round" stroke-linejoin="round"/>
<path d="M255.629 33.2686H234.725V53.1404H255.629V33.2686Z" fill="white"/>
<path d="M244.903 50.7066C247.89 50.7066 250.311 48.2853 250.311 45.2986C250.311 42.3119 247.89 39.8906 244.903 39.8906C241.916 39.8906 239.495 42.3119 239.495 45.2986C239.495 48.2853 241.916 50.7066 244.903 50.7066Z" stroke="#BAC6F2" stroke-width="0.108311" stroke-linecap="round" stroke-linejoin="round"/>
<path d="M241.416 34.9844H236.098V36.2419H241.416V34.9844Z" fill="#BAC6F2"/>
<path d="M241.416 36.9568H236.098V38.2143H241.416V36.9568Z" fill="#BAC6F2"/>
</g>
<defs>
<clipPath id="clip0">
<rect width="324" height="94.9979" fill="white"/>
</clipPath>
</defs>
</svg>
