<svg width="324" height="95" viewBox="0 0 324 95" fill="none" xmlns="http://www.w3.org/2000/svg">
<g clip-path="url(#clip0)">
<rect width="324" height="94.9979" rx="8" fill="#A0C4FF"/>
<path d="M258.887 88.5876C263.877 88.5876 268.867 88.5876 273.851 88.5876C274.108 88.5876 274.108 88.1926 273.851 88.1926C268.861 88.1926 263.87 88.1926 258.887 88.1926C258.63 88.1926 258.63 88.5876 258.887 88.5876Z" fill="#E8E8E8"/>
<path d="M263.765 87.0405C268.768 87.0405 273.771 87.0405 278.781 87.0405C280.203 87.0405 281.625 87.0405 283.041 87.0405C283.298 87.0405 283.298 86.6455 283.041 86.6455C278.037 86.6455 273.034 86.6455 268.024 86.6455C266.602 86.6455 265.18 86.6455 263.765 86.6455C263.515 86.6455 263.515 87.0405 263.765 87.0405Z" fill="#E8E8E8"/>
<path d="M282.719 84.6047C286.109 84.6047 289.5 84.6047 292.884 84.6047C293.14 84.6047 293.14 84.2097 292.884 84.2097C289.493 84.2097 286.103 84.2097 282.719 84.2097C282.462 84.2097 282.462 84.6047 282.719 84.6047Z" fill="#E8E8E8"/>
<path d="M291.422 90.1347C298.479 90.1347 305.537 90.1347 312.587 90.1347C314.562 90.1347 316.531 90.1347 318.506 90.1347C318.763 90.1347 318.763 89.7397 318.506 89.7397C311.449 89.7397 304.391 89.7397 297.34 89.7397C295.365 89.7397 293.397 89.7397 291.422 89.7397C291.165 89.7397 291.165 90.1347 291.422 90.1347Z" fill="#E8E8E8"/>
<path d="M308.097 88.5876C312.758 88.5876 317.425 88.5876 322.086 88.5876C322.343 88.5876 322.343 88.1926 322.086 88.1926C317.425 88.1926 312.758 88.1926 308.097 88.1926C307.84 88.1926 307.84 88.5876 308.097 88.5876Z" fill="#E8E8E8"/>
<path d="M271.237 40.6613C270.895 40.7205 270.355 40.8588 269.789 41.2077C269.433 41.4249 268.709 41.9516 268.255 42.9193C268.09 43.2617 267.722 44.0583 267.906 45.0458C268.176 46.5073 269.46 47.238 269.664 47.3499C270.315 46.3558 270.961 45.3552 271.612 44.3611C271.481 43.13 271.356 41.8989 271.237 40.6613Z" fill="#707070"/>
<path d="M271.724 44.2426C272.685 43.7225 273.639 43.2024 274.601 42.6758C274.811 42.9391 275.206 43.525 275.2 44.315C275.2 44.4928 275.18 44.6574 275.147 44.8088C274.001 44.6179 272.863 44.4269 271.724 44.2426Z" fill="#3480FC"/>
<path d="M261.414 48.7851C261.533 50.3322 261.644 51.8858 261.763 53.4329C262.184 53.4066 262.606 53.3737 263.02 53.3473C262.882 51.7739 262.744 50.2071 262.606 48.6337C262.204 48.6863 261.809 48.7324 261.414 48.7851Z" fill="#3480FC"/>
<path d="M263.765 50.3981C263.83 51.3526 263.896 52.3006 263.969 53.2552C264.39 53.2157 264.811 53.1828 265.226 53.1433C265.134 52.1887 265.048 51.2407 264.956 50.2861C264.555 50.319 264.16 50.3586 263.765 50.3981Z" fill="#707070"/>
<path d="M278.742 56.2968C272.211 56.8959 265.687 57.4884 259.156 58.0875C258.557 48.5285 257.952 38.9695 257.353 29.4039C263.863 29.1735 270.381 28.9431 276.892 28.7126C277.511 37.9096 278.13 47.1065 278.742 56.2968Z" stroke="#161616" stroke-width="0.131667" stroke-miterlimit="10"/>
<path d="M264.087 27.5935C264.16 28.1136 264.239 28.6337 264.311 29.1538C264.331 29.2789 264.522 29.2262 264.502 29.1011C264.43 28.581 264.351 28.061 264.278 27.5409C264.259 27.4158 264.068 27.4685 264.087 27.5935Z" fill="#E8E8E8"/>
<path d="M264.226 27.5802C265.707 27.4814 267.195 27.4222 268.676 27.3893C268.801 27.3893 268.801 27.1918 268.676 27.1918C267.188 27.2247 265.707 27.2905 264.226 27.3827C264.101 27.3893 264.101 27.5868 264.226 27.5802Z" fill="#E8E8E8"/>
<path d="M268.617 27.3104C268.682 27.8699 268.735 28.4229 268.768 28.9825C268.775 29.1076 268.972 29.1076 268.966 28.9825C268.933 28.4229 268.88 27.8634 268.814 27.3104C268.794 27.1853 268.597 27.1853 268.617 27.3104Z" fill="#E8E8E8"/>
<path d="M264.232 27.5735C264.278 28.0607 264.324 28.5545 264.37 29.0416C264.377 29.0943 264.41 29.1404 264.469 29.1404C265.884 29.1535 267.293 28.9297 268.715 28.9758C268.84 28.9824 268.84 28.7849 268.715 28.7783C267.3 28.7322 265.891 28.9495 264.469 28.9429C264.502 28.9758 264.535 29.0087 264.568 29.0416C264.522 28.5545 264.476 28.0607 264.43 27.5735C264.416 27.4485 264.219 27.4485 264.232 27.5735Z" fill="#E8E8E8"/>
<path d="M264.337 27.6396C264.554 27.7713 264.837 27.7054 265.074 27.6923C265.469 27.6725 265.864 27.6528 266.259 27.633C267.049 27.5935 267.833 27.5474 268.623 27.5079C268.59 27.475 268.557 27.4421 268.524 27.4092C268.544 27.8371 268.564 28.265 268.583 28.6995C268.59 28.8246 268.787 28.8246 268.781 28.6995C268.761 28.2716 268.741 27.8437 268.722 27.4092C268.722 27.3565 268.675 27.3104 268.623 27.3104C267.925 27.3499 267.221 27.3828 266.523 27.4223C266.174 27.4421 265.825 27.4618 265.469 27.475C265.193 27.4882 264.679 27.6198 264.436 27.4684C264.33 27.4026 264.232 27.5738 264.337 27.6396Z" fill="#E8E8E8"/>
<path d="M264.331 27.6791C264.429 28.0807 264.495 28.4889 264.535 28.9036C264.601 28.897 264.666 28.8839 264.726 28.8773C264.653 28.5218 264.673 28.1729 264.739 27.8108C264.673 27.8042 264.607 27.791 264.548 27.7844C264.561 28.1794 264.587 28.5547 264.739 28.9168C264.785 29.0221 264.95 28.9431 264.917 28.8378C264.805 28.4164 264.699 28.0017 264.811 27.5672C264.745 27.5672 264.686 27.5672 264.62 27.5672C264.68 27.9622 264.739 28.3572 264.798 28.7522C264.818 28.8773 265.009 28.8246 264.989 28.6995C264.93 28.3045 264.871 27.9095 264.811 27.5145C264.798 27.4158 264.64 27.4289 264.62 27.5145C264.502 27.9819 264.607 28.4362 264.726 28.8904C264.785 28.8641 264.844 28.8378 264.903 28.8114C264.765 28.4823 264.752 28.1268 264.739 27.7779C264.739 27.6725 264.568 27.6396 264.548 27.7515C264.476 28.1465 264.449 28.5284 264.535 28.9234C264.555 29.0287 264.739 29.0089 264.726 28.897C264.686 28.4691 264.614 28.0412 264.515 27.6199C264.489 27.5014 264.304 27.554 264.331 27.6791Z" fill="#E8E8E8"/>
<path d="M264.838 28.0279C264.91 27.9094 264.983 27.7909 265.055 27.6724C264.996 27.6395 264.943 27.6066 264.884 27.5737C264.798 27.7646 264.719 27.9555 264.634 28.1464C264.594 28.2386 264.713 28.3637 264.792 28.2649C264.923 28.1004 265.049 27.9292 265.18 27.7646C265.128 27.7317 265.068 27.6988 265.016 27.6659C264.963 27.8239 264.897 27.9687 264.805 28.1135C264.746 28.2057 264.891 28.3242 264.963 28.232C265.062 28.1069 265.16 27.9819 265.266 27.8568C265.213 27.8173 265.16 27.7778 265.108 27.7383C264.976 28.0477 264.844 28.3505 264.713 28.6599C264.673 28.7521 264.792 28.8772 264.871 28.7784C265.108 28.4822 265.351 28.1794 265.588 27.8831C265.536 27.8436 265.483 27.8041 265.43 27.7646C265.253 28.0543 265.075 28.3505 264.897 28.6402C264.851 28.7126 264.923 28.8114 265.009 28.785C265.114 28.7521 265.128 28.7389 265.207 28.6731C265.154 28.6402 265.095 28.6073 265.042 28.5744C265.002 28.6863 264.937 28.7719 264.838 28.8443C264.739 28.9167 264.825 29.0813 264.937 29.0154C265.042 28.9562 265.141 28.9167 265.259 28.9035C265.22 28.864 265.18 28.8245 265.141 28.785C264.97 28.6994 264.917 28.5809 264.983 28.4229C265.002 28.3374 265.035 28.2584 265.075 28.1859C265.128 28.0938 265.226 27.8699 265.325 28.0674C265.397 28.2123 265.095 29.022 265.055 28.5217C265.049 28.39 265.062 28.2584 265.101 28.1399C265.128 28.0477 265.167 27.9621 265.213 27.8765C265.279 27.7449 265.312 27.7449 265.318 27.8765C265.444 28.1399 265.292 28.5546 265.167 28.785C265.226 28.7916 265.286 28.7982 265.345 28.8114C265.292 28.627 265.272 28.4493 265.312 28.2649C265.325 28.1925 265.391 27.8436 265.463 27.9555C265.615 28.1728 265.365 28.6665 265.259 28.8574C265.318 28.8772 265.384 28.8904 265.444 28.9101C265.424 28.7324 265.417 28.5612 265.45 28.3834C265.47 28.2649 265.542 27.8831 265.667 27.8699C265.845 27.8502 265.503 28.6599 265.424 28.7784C265.483 28.785 265.542 28.7916 265.602 28.8048C265.542 28.5085 265.542 27.8765 265.944 27.7778C265.904 27.758 265.865 27.7317 265.825 27.7119C265.898 28.1135 265.786 28.5019 265.509 28.7982C265.562 28.8114 265.621 28.8245 265.674 28.8443C265.628 28.6599 265.621 28.4822 265.667 28.2979C265.694 28.1991 265.832 27.7844 265.964 27.8173C266.056 27.837 265.937 28.2189 265.911 28.3044C265.839 28.5151 265.727 28.6994 265.562 28.8574C265.615 28.8706 265.674 28.8838 265.727 28.9035C265.621 28.4624 265.806 28.0214 266.194 27.7844C266.148 27.7646 266.095 27.7449 266.049 27.7251C266.201 28.1267 265.812 28.6468 265.555 28.9167C265.608 28.9299 265.667 28.943 265.72 28.9628C265.674 28.7719 265.674 28.5875 265.733 28.3966C265.753 28.3374 265.95 27.8897 266.043 27.9226C266.174 27.9687 265.95 28.3703 265.911 28.4295C265.865 28.5151 265.779 28.6665 265.694 28.7192C265.595 28.785 265.602 28.7982 265.595 28.6534C265.588 28.4559 265.72 28.232 265.832 28.0872C265.891 28.0082 265.99 27.8831 266.082 27.8502C266.187 27.8041 266.174 27.7909 266.161 27.9292C266.115 28.3374 265.885 28.706 265.595 28.9891C265.648 29.0023 265.707 29.0154 265.76 29.0352C265.7 28.6468 265.832 28.2452 266.122 27.9753C266.207 27.8963 266.306 27.8436 266.339 28.0082C266.352 28.074 266.273 28.232 266.247 28.2913C266.155 28.5085 266.023 28.6929 265.858 28.8574C265.904 28.8574 265.95 28.8574 265.997 28.8574C265.878 28.7192 266.029 28.4164 266.102 28.2847C266.135 28.2254 266.418 27.7909 266.497 27.8304C266.589 27.8765 266.385 28.3176 266.359 28.3637C266.266 28.5414 266.148 28.6994 266.01 28.8443C266.069 28.8706 266.122 28.8904 266.181 28.9167C266.187 28.4361 266.411 28.0279 266.819 27.7712C266.767 27.7449 266.721 27.7119 266.668 27.6856C266.675 28.1267 266.517 28.5151 266.201 28.8245C266.26 28.8509 266.313 28.8706 266.372 28.8969C266.411 28.4164 266.635 28.0016 267.004 27.6922C266.951 27.6856 266.898 27.679 266.846 27.6724C267.056 27.9884 266.596 28.5809 266.411 28.8179C266.471 28.8443 266.523 28.864 266.582 28.8904C266.589 28.706 266.622 28.5349 266.694 28.3637C266.734 28.2584 266.898 27.8963 267.017 27.8699C267.175 27.837 267.01 28.1399 266.958 28.2518C266.866 28.4427 266.74 28.6073 266.596 28.7587C266.648 28.7916 266.708 28.8245 266.76 28.8574C266.819 28.4493 266.984 27.9094 267.412 27.758C267.372 27.7251 267.326 27.6922 267.287 27.6659C267.234 28.1135 267.037 28.4954 266.708 28.7982C266.767 28.8245 266.819 28.8443 266.879 28.8706C266.898 28.6599 266.945 28.4559 267.037 28.2584C267.096 28.1333 267.254 27.8041 267.399 27.7778C267.471 27.7646 267.399 27.8765 267.372 27.9489C267.333 28.0543 267.28 28.153 267.228 28.2452C267.122 28.4295 266.991 28.5941 266.839 28.7455C266.898 28.7719 266.951 28.7916 267.01 28.8179C267.037 28.3966 267.234 28.0345 267.563 27.7778C267.517 27.7383 267.465 27.7054 267.419 27.6659C267.366 27.9753 267.208 28.2189 266.997 28.4493C266.872 28.5875 266.833 28.5546 266.819 28.3703C266.806 28.1201 266.958 27.8699 267.208 27.8041C267.168 27.7712 267.122 27.7383 267.083 27.7119C267.063 28.1069 266.945 28.4624 266.734 28.7916C266.793 28.8114 266.859 28.8245 266.918 28.8443C266.938 28.6468 266.991 28.4559 267.083 28.2781C267.142 28.1596 267.293 27.8634 267.425 27.8304C267.616 27.7778 267.425 28.153 267.379 28.2452C267.287 28.4295 267.162 28.5875 267.017 28.7389C267.076 28.7653 267.129 28.785 267.188 28.8114C267.162 28.3308 267.451 27.9094 267.906 27.7646C267.866 27.7317 267.82 27.6988 267.781 27.6724C267.728 28.1399 267.504 28.5349 267.142 28.8377C267.201 28.864 267.254 28.8838 267.313 28.9101C267.366 28.4559 267.596 28.0674 267.972 27.8041C267.925 27.7844 267.873 27.7646 267.827 27.7449C267.932 28.0872 267.57 28.5349 267.372 28.7784C267.432 28.8048 267.484 28.8245 267.544 28.8509C267.57 28.5151 267.761 27.9029 268.162 27.8436C268.123 27.8041 268.083 27.7646 268.044 27.7251C267.972 28.1004 267.82 28.4361 267.577 28.7324C267.636 28.7587 267.688 28.7784 267.748 28.8048C267.767 28.4032 267.925 28.0543 268.202 27.7712C268.149 27.7646 268.097 27.758 268.044 27.7514C268.195 28.0279 267.886 28.5151 267.748 28.7587C267.807 28.785 267.866 28.8114 267.925 28.8377C267.991 28.5217 268.044 27.9884 268.34 27.7975C268.301 27.7909 268.261 27.7844 268.222 27.7844C268.386 27.9687 268.07 28.5875 267.998 28.7719C268.064 28.7916 268.123 28.8048 268.189 28.8245C268.281 28.4888 268.367 28.1596 268.459 27.8239C268.393 27.8173 268.327 27.8041 268.268 27.7975C268.281 28.1135 268.235 28.4098 268.13 28.7126C268.195 28.7192 268.261 28.7324 268.32 28.7389C268.353 28.4427 268.32 27.9819 268.492 27.7317C268.432 27.7251 268.373 27.7185 268.314 27.7054C268.406 28.0279 268.373 28.3374 268.327 28.6731C268.393 28.6797 268.459 28.6929 268.518 28.6994C268.492 28.3308 268.465 27.9555 268.439 27.5869C268.38 27.6132 268.327 27.6329 268.268 27.6593C268.518 27.916 268.419 28.2518 268.307 28.548C268.367 28.5414 268.426 28.5349 268.485 28.5217C268.413 28.3834 268.268 28.153 268.274 27.9884C268.209 27.8831 268.235 27.8304 268.36 27.837C268.419 27.9424 268.439 28.0543 268.413 28.1662C268.472 28.1399 268.525 28.1201 268.584 28.0938C268.478 27.9687 268.426 27.8502 268.393 27.6988C268.347 27.7383 268.294 27.7712 268.248 27.8107C268.274 27.8831 268.301 27.9621 268.327 28.0345C268.386 28.0411 268.446 28.0477 268.505 28.0609C268.459 27.9292 268.439 27.8107 268.446 27.6724C268.406 27.7054 268.36 27.7383 268.32 27.7646C268.577 27.8699 268.399 28.5546 268.367 28.7324C268.399 28.706 268.432 28.6863 268.459 28.6599C267.958 28.6731 267.458 28.6863 266.958 28.6994C266.833 28.706 266.833 28.8904 266.958 28.8969C267.399 28.9101 267.833 28.8443 268.268 28.7784C268.248 28.7126 268.235 28.6534 268.215 28.5875C267.702 28.7258 267.188 28.8179 266.661 28.8574C266.536 28.864 266.536 29.0484 266.661 29.0549C267.175 29.0747 267.675 28.8969 268.189 28.9167C268.182 28.8509 268.169 28.785 268.162 28.7258C267.767 28.8574 267.372 28.8969 266.958 28.8509C266.958 28.9167 266.958 28.9825 266.958 29.0484C267.432 29.0023 267.906 28.9562 268.38 28.9101C268.373 28.8443 268.36 28.7784 268.353 28.7192C268.037 28.8114 267.728 28.8443 267.399 28.8311C267.399 28.8969 267.399 28.9628 267.399 29.0286C267.721 29.0286 268.031 28.9891 268.34 28.9101C268.465 28.8772 268.413 28.6929 268.288 28.7192C267.919 28.7982 267.55 28.8377 267.175 28.8377C267.175 28.9035 267.175 28.9694 267.175 29.0352C267.623 28.9759 268.07 28.9035 268.518 28.8114C268.623 28.7916 268.604 28.6073 268.492 28.6204C268.064 28.6731 267.642 28.6665 267.221 28.6007C267.096 28.5809 267.043 28.7719 267.168 28.7916C267.609 28.8574 268.051 28.8706 268.492 28.8179C268.485 28.7521 268.472 28.6863 268.465 28.627C268.037 28.7126 267.609 28.7916 267.175 28.8443C267.05 28.8574 267.043 29.0418 267.175 29.0418C267.57 29.0418 267.952 29.0023 268.34 28.9167C268.32 28.8509 268.307 28.7916 268.288 28.7258C267.991 28.7982 267.702 28.8377 267.399 28.8377C267.274 28.8377 267.274 29.0286 267.399 29.0352C267.741 29.0484 268.07 29.0089 268.406 28.9167C268.511 28.8838 268.492 28.7126 268.38 28.7258C267.906 28.7719 267.432 28.8179 266.958 28.864C266.833 28.8772 266.833 29.0484 266.958 29.0615C267.392 29.1076 267.807 29.0615 268.215 28.9299C268.32 28.8969 268.301 28.7389 268.189 28.7389C267.675 28.7192 267.175 28.8969 266.661 28.8772C266.661 28.943 266.661 29.0089 266.661 29.0747C267.208 29.0352 267.741 28.943 268.268 28.7982C268.393 28.7653 268.34 28.5875 268.215 28.6073C267.794 28.6731 267.379 28.7324 266.958 28.7192C266.958 28.785 266.958 28.8509 266.958 28.9167C267.458 28.9035 267.958 28.8904 268.459 28.8772C268.498 28.8772 268.544 28.8443 268.551 28.8048C268.617 28.4361 268.821 27.7844 268.367 27.5934C268.301 27.5671 268.248 27.6329 268.241 27.6856C268.228 27.8502 268.248 27.9753 268.307 28.1267C268.334 28.1991 268.446 28.232 268.485 28.153C268.577 27.9621 268.525 27.7712 268.334 27.6593C268.255 27.6132 268.169 27.6856 268.189 27.7712C268.228 27.9621 268.307 28.1069 268.432 28.2584C268.492 28.3308 268.597 28.2649 268.604 28.1859C268.623 27.9753 268.439 27.3499 268.103 27.5408C267.8 27.7185 268.202 28.4361 268.301 28.6402C268.34 28.7258 268.452 28.6863 268.478 28.6139C268.623 28.2386 268.689 27.8436 268.386 27.5342C268.327 27.4749 268.209 27.5144 268.215 27.6066C268.241 27.9753 268.268 28.3505 268.294 28.7192C268.301 28.8245 268.472 28.864 268.485 28.7455C268.538 28.3834 268.577 28.0345 268.472 27.6724C268.446 27.5869 268.34 27.5803 268.294 27.6461C268.09 27.9358 268.13 28.4164 268.097 28.7521C268.083 28.8706 268.255 28.8772 268.288 28.7784C268.399 28.4624 268.446 28.1464 268.432 27.8107C268.426 27.6988 268.268 27.6724 268.241 27.7844C268.149 28.1201 268.064 28.4493 267.972 28.785C267.939 28.9101 268.116 28.9562 268.162 28.8377C268.281 28.5349 268.597 27.9555 268.334 27.6527C268.307 27.6198 268.248 27.6132 268.215 27.6395C267.853 27.8765 267.787 28.4098 267.708 28.7982C267.688 28.9035 267.833 28.9759 267.886 28.8772C268.064 28.5546 268.38 28.0345 268.182 27.6659C268.149 27.6132 268.07 27.6 268.024 27.6461C267.708 27.9753 267.537 28.3637 267.511 28.8179C267.504 28.8969 267.623 28.9562 267.682 28.8904C267.952 28.5678 268.123 28.2057 268.202 27.7975C268.215 27.7185 268.156 27.6659 268.083 27.679C267.59 27.7514 267.353 28.4493 267.32 28.8772C267.313 28.9628 267.432 29.0089 267.491 28.9496C267.748 28.6402 268.13 28.153 267.998 27.7251C267.978 27.6659 267.906 27.6264 267.853 27.6659C267.419 27.9687 267.155 28.4098 267.096 28.9364C267.083 29.0286 267.208 29.0549 267.267 29.0089C267.669 28.6731 267.899 28.2189 267.958 27.7054C267.965 27.6395 267.893 27.5934 267.833 27.6132C267.293 27.7844 266.938 28.2847 266.971 28.8509C266.977 28.9364 267.076 28.9825 267.142 28.9233C267.293 28.7719 268.083 27.6988 267.59 27.5803C267.386 27.5276 267.155 27.8436 267.056 27.9753C266.852 28.2452 266.747 28.5546 266.708 28.8904C266.694 28.9957 266.846 29.0154 266.892 28.943C267.129 28.5875 267.254 28.1925 267.274 27.7646C267.274 27.6988 267.208 27.6527 267.149 27.6724C266.879 27.7449 266.714 27.9424 266.648 28.2123C266.602 28.3834 266.556 28.706 266.74 28.8179C266.918 28.9299 267.063 28.7324 267.162 28.6139C267.372 28.3703 267.544 28.1069 267.596 27.7844C267.609 27.7119 267.53 27.6132 267.451 27.6724C267.056 27.9753 266.833 28.39 266.8 28.8838C266.793 28.9694 266.912 29.0089 266.971 28.9562C267.129 28.7982 267.972 27.758 267.517 27.5869C267.313 27.5079 267.096 27.837 267.004 27.9687C266.8 28.2584 266.701 28.5809 266.668 28.9299C266.661 29.022 266.78 29.0549 266.839 29.0023C267.208 28.6599 267.425 28.232 267.478 27.7317C267.484 27.6724 267.412 27.6198 267.353 27.6395C266.852 27.8173 266.635 28.39 266.563 28.8772C266.55 28.9694 266.655 29.0549 266.727 28.9759C266.885 28.8114 267.636 27.7778 267.175 27.6461C266.964 27.5869 266.734 27.9489 266.642 28.0938C266.471 28.3571 266.392 28.6599 266.378 28.9694C266.372 29.0484 266.49 29.1076 266.55 29.0418C266.8 28.7324 267.287 28.074 267.017 27.6593C266.977 27.6 266.912 27.6 266.859 27.6395C266.451 27.9819 266.214 28.4559 266.168 28.9891C266.161 29.0747 266.28 29.1142 266.339 29.0615C266.688 28.7126 266.866 28.2715 266.859 27.7844C266.859 27.7119 266.773 27.6593 266.708 27.6988C266.24 27.9884 265.977 28.469 265.97 29.0154C265.97 29.101 266.082 29.1471 266.141 29.0879C266.392 28.8245 266.596 28.5085 266.681 28.153C266.721 28.0016 266.747 27.7054 266.503 27.7185C266.247 27.7317 265.977 28.1794 265.885 28.3769C265.786 28.6007 265.681 28.8904 265.858 29.0944C265.891 29.1339 265.964 29.1274 265.997 29.0944C266.26 28.8377 266.457 28.5151 266.53 28.153C266.563 27.9884 266.576 27.7119 266.339 27.7119C266.089 27.7119 265.819 28.0806 265.72 28.2715C265.562 28.5546 265.523 28.864 265.575 29.18C265.588 29.259 265.694 29.2722 265.74 29.2261C266.036 28.9364 266.253 28.5744 266.345 28.1662C266.385 27.9884 266.438 27.6856 266.174 27.6922C265.72 27.7054 265.095 28.8443 265.523 29.1405C265.555 29.1603 265.595 29.1537 265.621 29.1405C265.852 29.0286 266.668 27.9226 266.168 27.7778C265.957 27.7119 265.72 28.0674 265.641 28.2189C265.49 28.5019 265.457 28.8114 265.529 29.1142C265.542 29.1866 265.648 29.2129 265.694 29.1603C266.003 28.8311 266.418 28.2452 266.24 27.7778C266.22 27.7185 266.155 27.6856 266.095 27.7185C265.628 28.0016 265.411 28.5349 265.536 29.0615C265.555 29.1339 265.648 29.1537 265.7 29.1076C265.964 28.8509 266.108 28.5283 266.174 28.1662C266.201 28.0082 266.26 27.7185 266.056 27.6527C265.839 27.5869 265.634 27.9555 265.562 28.1135C265.43 28.3966 265.411 28.706 265.483 29.0154C265.503 29.0879 265.595 29.1142 265.648 29.0615C265.977 28.706 266.108 28.2584 266.016 27.7844C266.003 27.7317 265.944 27.7054 265.898 27.7185C265.384 27.8436 265.332 28.5678 265.417 28.9891C265.437 29.0813 265.555 29.0747 265.595 29.0154C265.766 28.7719 265.878 28.5019 265.904 28.1991C265.918 28.0543 265.957 27.7514 265.76 27.6988C265.562 27.6461 265.444 27.9358 265.384 28.074C265.246 28.3834 265.213 28.7126 265.253 29.0484C265.266 29.1405 265.384 29.1932 265.437 29.101C265.641 28.7455 265.812 28.2123 265.628 27.8173C265.615 27.7844 265.575 27.7646 265.542 27.7712C265.055 27.7778 265.081 28.706 265.167 29.0154C265.187 29.0944 265.305 29.1142 265.345 29.0418C265.529 28.7192 265.648 28.2452 265.49 27.8831C265.378 27.6264 265.174 27.7449 265.049 27.9358C264.871 28.2123 264.759 28.7324 264.937 29.0352C265.075 29.2722 265.253 29.0944 265.351 28.9167C265.47 28.6994 265.661 28.1662 265.463 27.9358C265.286 27.7317 265.055 28.0148 264.956 28.1596C264.805 28.39 264.66 28.8114 264.851 29.0615C264.996 29.2524 265.259 29.2129 265.338 28.9957C265.371 28.9167 265.286 28.864 265.22 28.8772C265.081 28.8969 264.97 28.9364 264.851 29.0089C264.884 29.0681 264.917 29.1208 264.95 29.18C265.088 29.0747 265.18 28.9562 265.246 28.7916C265.286 28.6929 265.147 28.6402 265.081 28.6929C265.042 28.7126 265.009 28.7324 264.97 28.7521C265.009 28.7982 265.042 28.8509 265.081 28.8969C265.259 28.6073 265.437 28.311 265.615 28.0214C265.674 27.9292 265.529 27.8107 265.457 27.9029C265.22 28.1991 264.976 28.5019 264.739 28.7982C264.792 28.8377 264.844 28.8772 264.897 28.9167C265.029 28.6073 265.16 28.3044 265.292 27.995C265.332 27.9029 265.213 27.7778 265.134 27.8765C265.035 28.0016 264.937 28.1267 264.831 28.2518C264.884 28.2913 264.937 28.3308 264.989 28.3703C265.088 28.2123 265.16 28.0543 265.22 27.8765C265.246 27.7844 265.114 27.6988 265.055 27.7778C264.923 27.9424 264.798 28.1135 264.667 28.2781C264.719 28.3176 264.772 28.3571 264.825 28.3966C264.91 28.2057 264.989 28.0148 265.075 27.8239C265.128 27.7119 264.97 27.6132 264.904 27.7251C264.831 27.8436 264.759 27.9621 264.686 28.0806C264.601 28.0411 264.772 28.1399 264.838 28.0279Z" fill="#E8E8E8"/>
<path d="M268.413 27.4683C268.413 27.6921 268.42 27.9225 268.426 28.1463C268.433 28.3109 268.505 28.6598 268.4 28.7849C268.334 28.8639 268.42 29.0022 268.518 28.9429C268.564 28.91 268.578 28.9034 268.617 28.8639C268.657 28.8113 268.65 28.7191 268.571 28.6993C268.452 28.673 268.367 28.673 268.248 28.7125C268.13 28.752 268.176 28.9429 268.301 28.9034C268.373 28.8968 268.446 28.8968 268.518 28.8903C268.505 28.8376 268.492 28.7783 268.472 28.7257C268.452 28.7454 268.433 28.7586 268.42 28.7783C268.459 28.831 268.499 28.8837 268.538 28.9363C268.683 28.7652 268.643 28.6467 268.63 28.4163C268.617 28.1068 268.61 27.7908 268.61 27.4814C268.61 27.3366 268.413 27.3366 268.413 27.4683Z" fill="#E8E8E8"/>
<path d="M258.676 33.2023C261.382 33.0509 264.094 32.9916 266.806 33.0246C266.931 33.0246 266.931 32.8271 266.806 32.8271C264.094 32.7941 261.382 32.8534 258.676 33.0048C258.551 33.0114 258.551 33.2089 258.676 33.2023Z" fill="#E8E8E8"/>
<path d="M259.025 35.0062C260.967 34.8021 262.916 34.6968 264.864 34.6968C264.99 34.6968 264.99 34.4993 264.864 34.4993C262.916 34.4993 260.967 34.598 259.025 34.8087C258.9 34.8219 258.893 35.0194 259.025 35.0062Z" fill="#E8E8E8"/>
<path d="M259.202 38.3704C261.796 38.1005 264.396 37.9491 267.003 37.9293C267.129 37.9293 267.129 37.7318 267.003 37.7318C264.396 37.7516 261.796 37.903 259.202 38.1729C259.077 38.1861 259.077 38.3836 259.202 38.3704Z" fill="#E8E8E8"/>
<path d="M269.854 47.3762C268.577 46.8825 267.82 45.4671 267.945 44.1241C268.076 42.7613 269.09 41.5961 270.308 41.0496C271.144 40.6744 272.066 40.5954 272.889 41.0365C273.534 41.3788 274.087 41.9055 274.475 42.5243C275.285 43.8146 275.226 45.3749 274.37 46.6389C273.857 47.396 272.889 47.6132 272.04 47.7449C271.197 47.8766 270.308 47.8305 269.597 47.3104C269.492 47.238 269.393 47.4091 269.498 47.4816C270.157 47.9621 270.967 48.0609 271.757 47.9819C272.54 47.9029 273.468 47.7317 274.1 47.2314C274.726 46.7376 275.101 45.8028 275.233 45.0391C275.358 44.3084 275.219 43.5711 274.91 42.8996C274.219 41.4051 272.626 40.207 270.934 40.6217C269.472 40.9772 268.182 42.1556 267.826 43.6369C267.444 45.2103 268.267 46.9681 269.795 47.5606C269.92 47.6132 269.972 47.4223 269.854 47.3762Z" fill="#E8E8E8"/>
<path d="M271.243 40.6548C271.322 41.8728 271.401 43.0907 271.487 44.3086C271.493 44.4337 271.691 44.4337 271.684 44.3086C271.605 43.0907 271.526 41.8728 271.441 40.6548C271.434 40.5298 271.237 40.5298 271.243 40.6548Z" fill="#E8E8E8"/>
<path d="M271.671 44.4269C272.672 43.8805 273.66 43.3078 274.634 42.7021C274.739 42.6363 274.641 42.4651 274.535 42.5309C273.567 43.1366 272.58 43.7093 271.573 44.2558C271.461 44.3216 271.56 44.4928 271.671 44.4269Z" fill="#E8E8E8"/>
<path d="M271.711 44.46C272.843 44.46 273.962 44.7299 275.075 44.9208C275.2 44.9405 275.253 44.7496 275.128 44.7299C274.002 44.539 272.863 44.2625 271.711 44.2625C271.586 44.2625 271.586 44.46 271.711 44.46Z" fill="#E8E8E8"/>
<path d="M271.539 44.3283C270.907 45.3751 270.275 46.4153 269.637 47.462C269.571 47.5739 269.742 47.6727 269.808 47.5608C270.44 46.514 271.072 45.4738 271.711 44.4271C271.776 44.3218 271.605 44.2164 271.539 44.3283Z" fill="#E8E8E8"/>
<path d="M260.328 53.657C263.192 53.4397 266.049 53.1896 268.9 52.8933C269.025 52.8802 269.025 52.6827 268.9 52.6958C266.043 52.9855 263.185 53.2422 260.328 53.4595C260.203 53.4727 260.203 53.6702 260.328 53.657Z" fill="#E8E8E8"/>
<path d="M261.302 48.8049C261.408 50.319 261.52 51.8398 261.625 53.354C261.632 53.479 261.829 53.479 261.822 53.354C261.717 51.8398 261.605 50.319 261.5 48.8049C261.487 48.6798 261.289 48.6798 261.302 48.8049Z" fill="#E8E8E8"/>
<path d="M261.493 48.8246C261.869 48.7587 262.244 48.739 262.626 48.7587C262.593 48.7258 262.56 48.6929 262.527 48.66C262.626 50.2005 262.771 51.7344 262.948 53.2617C262.962 53.3868 263.159 53.3868 263.146 53.2617C262.962 51.7344 262.823 50.1939 262.725 48.66C262.718 48.6073 262.685 48.5612 262.626 48.5612C262.224 48.5415 261.836 48.5678 261.441 48.6336C261.316 48.66 261.375 48.8509 261.493 48.8246Z" fill="#E8E8E8"/>
<path d="M263.567 50.3652C263.718 51.2802 263.81 52.2085 263.843 53.1367C263.85 53.2618 264.047 53.2618 264.041 53.1367C264.008 52.1887 263.916 51.2473 263.758 50.3125C263.738 50.1874 263.547 50.2401 263.567 50.3652Z" fill="#E8E8E8"/>
<path d="M263.804 50.4638C264.186 50.4638 264.561 50.444 264.936 50.3914C264.903 50.3584 264.87 50.3255 264.837 50.2926C264.93 51.2077 265.028 52.1162 265.12 53.0313C265.134 53.1564 265.331 53.1564 265.318 53.0313C265.226 52.1162 265.127 51.2077 265.035 50.2926C265.028 50.2465 264.995 50.1873 264.936 50.1939C264.561 50.2399 264.179 50.2663 263.804 50.2663C263.679 50.2663 263.679 50.4638 263.804 50.4638Z" fill="#E8E8E8"/>
<path d="M265.911 48.7918C266.069 50.2138 266.168 51.6358 266.207 53.071C266.214 53.1961 266.411 53.1961 266.405 53.071C266.358 51.6424 266.26 50.2138 266.108 48.7918C266.095 48.6667 265.898 48.6667 265.911 48.7918Z" fill="#E8E8E8"/>
<path d="M266.01 48.8708C266.22 48.884 266.438 48.8906 266.648 48.9037C266.945 48.9169 266.951 48.9235 266.958 49.2197C266.977 49.6477 266.997 50.069 267.024 50.4969C267.083 51.3132 267.175 52.123 267.326 52.9262C267.353 53.0512 267.537 52.9986 267.517 52.8735C267.326 51.8597 267.234 50.8261 267.182 49.7925C267.168 49.5555 267.162 49.3251 267.149 49.0881C267.142 48.9959 267.155 48.8577 267.083 48.7787C267.004 48.6997 266.866 48.7128 266.767 48.7062C266.51 48.6931 266.26 48.6799 266.003 48.6667C265.885 48.6667 265.885 48.8642 266.01 48.8708Z" fill="#E8E8E8"/>
<path d="M268.57 55.0591C271.112 54.8813 273.646 54.5587 276.148 54.0913C276.273 54.065 276.22 53.8807 276.095 53.9004C273.607 54.3678 271.092 54.6838 268.57 54.8616C268.439 54.8682 268.439 55.0657 268.57 55.0591Z" fill="#E8E8E8"/>
<path d="M272.441 53.8016C273.521 53.6897 274.607 53.5777 275.687 53.4658C275.812 53.4527 275.812 53.2552 275.687 53.2683C274.607 53.3802 273.521 53.4922 272.441 53.6041C272.316 53.6172 272.316 53.8147 272.441 53.8016Z" fill="#E8E8E8"/>
<path d="M274.285 52.4851C274.779 52.4653 275.279 52.4456 275.773 52.4258C275.898 52.4192 275.898 52.2217 275.773 52.2283C275.279 52.2481 274.779 52.2678 274.285 52.2876C274.154 52.2941 274.154 52.4916 274.285 52.4851Z" fill="#E8E8E8"/>
<path d="M269.071 30.3453C269.196 30.7074 269.248 31.076 269.229 31.4579C269.222 31.583 269.42 31.583 269.426 31.4579C269.446 31.0563 269.393 30.6745 269.262 30.2926C269.215 30.1741 269.025 30.2268 269.071 30.3453Z" fill="#E8E8E8"/>
<path d="M269.235 30.365C271.046 30.1807 272.856 30.0622 274.673 30.003C274.798 29.9964 274.798 29.7989 274.673 29.8055C272.856 29.8647 271.039 29.9832 269.235 30.1675C269.11 30.1807 269.11 30.3782 269.235 30.365Z" fill="#E8E8E8"/>
<path d="M269.427 31.5632C271.231 31.4316 273.028 31.2999 274.832 31.1682C274.957 31.1617 274.957 30.9642 274.832 30.9707C273.028 31.1024 271.231 31.2341 269.427 31.3657C269.302 31.3723 269.302 31.5698 269.427 31.5632Z" fill="#E8E8E8"/>
<path d="M274.7 30.0358C274.759 30.444 274.818 30.8456 274.877 31.2537C274.897 31.3788 275.088 31.3261 275.068 31.2011C275.009 30.7929 274.95 30.3913 274.891 29.9831C274.871 29.8581 274.68 29.9107 274.7 30.0358Z" fill="#E8E8E8"/>
<path d="M306.537 35.3946C306.544 35.6448 306.557 35.8883 306.59 36.1385C306.61 36.2636 306.807 36.2636 306.787 36.1385C306.754 35.8949 306.735 35.6448 306.735 35.3946C306.735 35.2695 306.537 35.2695 306.537 35.3946Z" fill="#E8E8E8"/>
<path d="M306.682 35.4934C310.941 35.4934 315.201 35.4934 319.46 35.4934C319.585 35.4934 319.585 35.2959 319.46 35.2959C315.201 35.2959 310.941 35.2959 306.682 35.2959C306.557 35.2959 306.557 35.4934 306.682 35.4934Z" fill="#E8E8E8"/>
<path d="M319.342 35.4735C319.342 35.6183 319.342 35.7632 319.342 35.908C319.342 36.0331 319.539 36.0331 319.539 35.908C319.539 35.7632 319.539 35.6183 319.539 35.4735C319.539 35.3418 319.342 35.3418 319.342 35.4735Z" fill="#E8E8E8"/>
<path d="M306.8 36.2108C311.007 36.2108 315.213 36.2108 319.414 36.2108C319.539 36.2108 319.539 36.0133 319.414 36.0133C315.207 36.0133 311 36.0133 306.8 36.0133C306.668 36.0133 306.668 36.2108 306.8 36.2108Z" fill="#E8E8E8"/>
<path d="M306.781 33.1233C306.945 33.8673 307.084 34.6178 307.196 35.3683C307.215 35.4933 307.406 35.4407 307.387 35.3156C307.268 34.5651 307.13 33.8146 306.972 33.0707C306.939 32.9456 306.755 32.9983 306.781 33.1233Z" fill="#E8E8E8"/>
<path d="M306.899 33.1103C307.762 33.1366 308.664 33.2419 309.526 33.1366C309.651 33.1234 309.651 32.9259 309.526 32.9391C308.664 33.0444 307.762 32.9391 306.899 32.9128C306.774 32.9062 306.774 33.1037 306.899 33.1103Z" fill="#E8E8E8"/>
<path d="M309.427 33.176C309.335 33.887 309.249 34.598 309.157 35.3155C309.144 35.4406 309.341 35.4406 309.354 35.3155C309.447 34.6045 309.532 33.8935 309.624 33.176C309.637 33.0509 309.44 33.0509 309.427 33.176Z" fill="#E8E8E8"/>
<path d="M307.881 32.8929C307.749 32.8337 307.591 32.7744 307.492 32.6691C307.321 32.4979 307.334 32.2675 307.308 32.0437C307.268 31.7474 307.104 31.4841 307.084 31.1813C307.031 31.2076 306.985 31.2405 306.933 31.2668C307.545 31.6618 308.085 32.2214 308.065 32.9983C308.058 33.1233 308.256 33.1233 308.262 32.9983C308.289 32.149 307.703 31.5302 307.031 31.0957C306.972 31.0562 306.88 31.1088 306.88 31.1813C306.893 31.359 306.946 31.517 307.005 31.6882C307.091 31.9252 307.091 32.1556 307.137 32.3992C307.209 32.7613 307.459 32.9193 307.775 33.0641C307.894 33.1102 307.992 32.9456 307.881 32.8929Z" fill="#E8E8E8"/>
<path d="M308.071 32.0504C307.998 31.55 308.328 31.0694 308.512 30.6284C308.657 30.2794 308.762 29.9239 308.742 29.5421C308.676 29.5487 308.611 29.5619 308.551 29.5684C308.795 30.7074 309.098 31.787 308.578 32.9062C308.525 33.0181 308.696 33.1234 308.749 33.0049C308.986 32.4914 309.111 31.9384 309.085 31.3723C309.052 30.7469 308.874 30.128 308.742 29.5158C308.723 29.4039 308.545 29.4302 308.551 29.5421C308.591 30.4572 307.748 31.1945 307.886 32.103C307.9 32.2281 308.091 32.1754 308.071 32.0504Z" fill="#E8E8E8"/>
<path d="M311.29 28.2385C311.369 30.6349 311.395 33.0246 311.349 35.4209C311.349 35.546 311.547 35.546 311.547 35.4209C311.586 33.0246 311.567 30.6283 311.488 28.2385C311.488 28.1069 311.29 28.1069 311.29 28.2385Z" fill="#E8E8E8"/>
<path d="M311.442 28.2714C311.725 28.0344 312.205 28.1397 312.521 28.2385C312.64 28.278 312.693 28.0871 312.574 28.0476C312.172 27.9225 311.646 27.8435 311.304 28.1331C311.205 28.2121 311.343 28.3504 311.442 28.2714Z" fill="#E8E8E8"/>
<path d="M312.442 28.2385C312.456 30.6019 312.469 32.9588 312.482 35.3222C312.482 35.4473 312.679 35.4473 312.679 35.3222C312.666 32.9588 312.653 30.6019 312.64 28.2385C312.64 28.1069 312.442 28.1069 312.442 28.2385Z" fill="#E8E8E8"/>
<path d="M311.586 29.8317C311.85 29.6144 312.238 29.6342 312.482 29.8646C312.574 29.9502 312.712 29.8119 312.62 29.7263C312.291 29.4169 311.79 29.4103 311.448 29.6934C311.349 29.7724 311.488 29.9107 311.586 29.8317Z" fill="#E8E8E8"/>
<path d="M311.501 29.0746C311.79 28.8244 312.205 28.8178 312.508 29.0482C312.613 29.1272 312.705 28.9495 312.607 28.8771C312.225 28.594 311.711 28.6335 311.356 28.9363C311.264 29.0219 311.408 29.1602 311.501 29.0746Z" fill="#E8E8E8"/>
<path d="M312.647 29.9303C312.943 29.9303 313.233 29.9633 313.522 30.0357C313.496 30.0028 313.476 29.9698 313.45 29.9435C313.489 31.721 313.47 33.4919 313.377 35.2694C313.371 35.3945 313.568 35.3945 313.575 35.2694C313.667 33.4985 313.687 31.721 313.647 29.9435C313.647 29.904 313.614 29.8579 313.575 29.8513C313.265 29.7723 312.963 29.7394 312.647 29.7394C312.515 29.7328 312.515 29.9303 312.647 29.9303Z" fill="#E8E8E8"/>
<path d="M312.693 31.8002C312.956 31.629 313.272 31.6225 313.542 31.7805C313.654 31.8463 313.753 31.6751 313.641 31.6093C313.311 31.4118 312.91 31.4184 312.594 31.629C312.489 31.6949 312.587 31.866 312.693 31.8002Z" fill="#E8E8E8"/>
<path d="M312.66 30.8586C312.89 30.7467 313.153 30.7401 313.39 30.8388C313.509 30.8849 313.608 30.7203 313.489 30.6677C313.18 30.536 312.864 30.5426 312.561 30.6874C312.449 30.7467 312.548 30.9178 312.66 30.8586Z" fill="#E8E8E8"/>
<path d="M314.082 35.2894C314.082 35.1775 314.01 34.7693 314.075 34.6903C314.168 34.5784 314.675 34.6179 314.806 34.6113C315.26 34.585 315.721 34.5652 316.176 34.5586C317.091 34.5455 318.006 34.5784 318.914 34.6508C318.881 34.6179 318.848 34.585 318.815 34.552C318.855 34.8483 318.875 35.1445 318.868 35.4474C318.868 35.5725 319.066 35.5725 319.066 35.4474C319.066 35.1445 319.052 34.8483 319.013 34.552C319.006 34.4928 318.973 34.4599 318.914 34.4533C317.788 34.3677 316.65 34.3414 315.524 34.3809C315.26 34.3875 315.004 34.4006 314.74 34.4204C314.549 34.4335 314.194 34.394 314.016 34.4796C313.759 34.5981 313.878 35.0787 313.885 35.296C313.885 35.4145 314.082 35.421 314.082 35.2894Z" fill="#E8E8E8"/>
<path d="M314.759 34.3873C314.746 34.3149 314.68 34.0976 314.693 34.0252C314.74 33.8277 314.93 33.8738 315.075 33.8738C315.312 33.8672 315.556 33.8672 315.793 33.8606C316.293 33.854 316.793 33.8409 317.3 33.8343C317.781 33.8277 318.262 33.8145 318.742 33.8079C319.006 33.8014 319.269 33.8014 319.526 33.7948C319.71 33.7948 319.815 33.7289 319.874 33.9659C319.901 34.0713 319.881 34.2095 319.874 34.3149C319.868 34.4399 320.065 34.4399 320.072 34.3149C320.079 34.1437 320.131 33.8079 319.993 33.6631C319.868 33.538 319.611 33.5973 319.46 33.6039C318.716 33.617 317.978 33.6302 317.235 33.6434C316.517 33.6565 315.793 33.6697 315.075 33.6829C314.93 33.6829 314.621 33.6236 314.516 33.7553C314.391 33.9067 314.542 34.2819 314.568 34.4465C314.595 34.565 314.786 34.5124 314.759 34.3873Z" fill="#E8E8E8"/>
<path d="M318.874 34.644C319.17 34.6506 319.473 34.6572 319.769 34.6375C319.914 34.6243 320.059 34.5716 320.046 34.4005C320.033 34.2754 319.835 34.2754 319.848 34.4005C319.855 34.4729 318.96 34.4531 318.874 34.4465C318.749 34.44 318.749 34.6375 318.874 34.644Z" fill="#E8E8E8"/>
<path d="M315.339 33.7223C315.333 33.6104 315.3 33.459 315.313 33.3471C315.326 33.2154 315.293 33.1957 315.445 33.1759C315.655 33.1496 315.925 33.222 316.136 33.2352C316.577 33.2681 317.025 33.2878 317.466 33.2944C317.907 33.301 318.354 33.301 318.795 33.2813C318.993 33.2747 319.23 33.222 319.427 33.2483C319.52 33.2088 319.592 33.2352 319.638 33.3208C319.711 33.3537 319.737 33.4129 319.73 33.4853C319.75 33.538 319.757 33.6038 319.776 33.6631C319.822 33.7816 320.013 33.7289 319.967 33.6104C319.908 33.4656 319.948 33.2483 319.829 33.1233C319.724 33.0113 319.572 33.0377 319.427 33.0443C318.776 33.0772 318.117 33.0969 317.466 33.0903C316.834 33.0772 316.202 33.0443 315.57 32.985C315.438 32.9718 315.234 32.9192 315.142 33.0508C315.036 33.2088 315.129 33.5446 315.142 33.7158C315.155 33.8474 315.352 33.8474 315.339 33.7223Z" fill="#E8E8E8"/>
<path d="M320.389 40.2399C320.389 41.2143 320.389 42.1952 320.389 43.1695C320.389 43.2946 320.586 43.2946 320.586 43.1695C320.586 42.1952 320.586 41.2143 320.586 40.2399C320.586 40.1148 320.389 40.1148 320.389 40.2399Z" fill="#E8E8E8"/>
<path d="M320.553 40.24C322.264 40.24 323.976 40.24 325.688 40.24C325.813 40.24 325.813 40.0425 325.688 40.0425C323.976 40.0425 322.264 40.0425 320.553 40.0425C320.428 40.0425 320.428 40.24 320.553 40.24Z" fill="#E8E8E8"/>
<path d="M320.487 43.3342C322.199 43.3342 323.911 43.3342 325.622 43.3342C325.747 43.3342 325.747 43.1367 325.622 43.1367C323.911 43.1367 322.199 43.1367 320.487 43.1367C320.362 43.1367 320.362 43.3342 320.487 43.3342Z" fill="#E8E8E8"/>
<path d="M322.726 40.0425C322.726 39.8713 322.739 39.7133 322.785 39.5487C322.805 39.4763 322.831 39.3644 322.877 39.3117C322.897 39.2459 322.943 39.2261 323.022 39.2525C323.127 39.2064 323.18 39.2393 323.186 39.3578C323.265 39.6343 323.279 39.9503 323.318 40.24C323.338 40.3651 323.529 40.3124 323.509 40.1873C323.469 39.8976 323.456 39.5882 323.377 39.3051C323.338 39.1471 323.219 38.9825 323.042 38.9694C322.6 38.943 322.521 39.7462 322.521 40.0425C322.535 40.1676 322.732 40.1676 322.726 40.0425Z" fill="#E8E8E8"/>
<path d="M320.711 40.6679C320.711 41.3921 320.711 42.1162 320.711 42.8404C320.711 42.9655 320.908 42.9655 320.908 42.8404C320.908 42.1162 320.908 41.3921 320.908 40.6679C320.908 40.5428 320.711 40.5428 320.711 40.6679Z" fill="#E8E8E8"/>
<path d="M320.915 40.6677C322.41 40.6677 323.904 40.6677 325.392 40.6677C325.517 40.6677 325.517 40.4702 325.392 40.4702C323.897 40.4702 322.403 40.4702 320.915 40.4702C320.79 40.4702 320.79 40.6677 320.915 40.6677Z" fill="#E8E8E8"/>
<path d="M320.85 42.939C322.278 42.939 323.707 42.939 325.129 42.939C325.254 42.939 325.254 42.7415 325.129 42.7415C323.7 42.7415 322.272 42.7415 320.85 42.7415C320.725 42.7415 320.725 42.939 320.85 42.939Z" fill="#E8E8E8"/>
<path d="M321.033 42.0635C321.178 41.8529 321.31 41.8068 321.422 41.9121C321.441 41.9253 321.455 41.9385 321.474 41.9516C321.52 41.9714 321.553 42.0043 321.599 42.0175C321.678 42.0438 321.771 42.0372 321.85 42.0043C321.909 41.978 321.962 41.9319 321.981 41.866C322.014 41.7607 321.935 41.741 321.929 41.6488C321.896 41.6093 321.909 41.5698 321.968 41.5171C321.981 41.3657 322.073 41.3328 322.231 41.425C322.271 41.425 322.31 41.4381 322.343 41.4315C322.462 41.4118 322.475 41.3723 322.561 41.2999C322.837 41.076 323.147 41.188 323.219 41.5435C323.226 41.5895 323.258 41.8924 323.206 41.9253C323.153 41.8595 323.1 41.8002 323.048 41.7344C323.219 41.7607 323.344 41.8529 323.416 41.9977C323.456 42.0635 323.542 42.057 323.588 41.9977C323.719 41.8595 323.851 41.8529 323.983 41.9845C324.029 41.9385 324.075 41.8924 324.121 41.8463C324.068 41.8002 324.022 41.7541 323.969 41.708C323.798 41.5632 323.811 41.3986 324.016 41.2077C324.292 41.2209 324.437 41.4908 324.318 41.7344C324.167 42.0306 323.805 42.0701 323.509 42.0438C323.509 42.1096 323.509 42.1755 323.509 42.2413C323.937 42.2676 324.371 42.294 324.799 42.3203C324.924 42.3269 324.924 42.1294 324.799 42.1228C324.371 42.0965 323.937 42.0701 323.509 42.0438C323.384 42.0372 323.384 42.2281 323.509 42.2413C323.851 42.2742 324.226 42.2084 324.443 41.9055C324.615 41.662 324.601 41.2933 324.351 41.1024C324.16 40.9575 323.871 40.9839 323.713 41.1748C323.476 41.471 323.752 41.7936 323.976 41.9911C324.068 42.0767 324.206 41.945 324.114 41.8529C323.904 41.629 323.581 41.6685 323.41 41.9055C323.469 41.9055 323.522 41.9055 323.581 41.9055C323.416 41.6356 323.107 41.4381 322.798 41.6027C322.561 41.7344 322.475 42.0767 322.692 42.2742C322.916 42.4783 323.239 42.3203 323.357 42.0899C323.489 41.8265 323.463 41.4118 323.272 41.1748C323.081 40.9378 322.745 40.9115 322.508 41.0892C322.343 41.2143 322.442 41.234 322.166 41.2143C322.073 41.2077 321.994 41.188 321.902 41.2143C321.804 41.2406 321.711 41.2999 321.665 41.3986C321.632 41.471 321.619 41.5369 321.652 41.6159C321.659 41.6422 321.731 41.7015 321.725 41.7212C321.698 41.866 321.316 41.6027 321.251 41.5895C320.954 41.5435 320.757 41.8595 320.842 42.1162C320.882 42.2347 321.073 42.1886 321.033 42.0635Z" fill="#E8E8E8"/>
<path d="M290.585 75.4737C290.144 75.1182 289.545 75.0458 289.058 75.2894C288.485 75.579 288.176 76.2571 288.321 76.9352C288.439 77.8371 288.558 78.7456 288.676 79.6475C286.273 80.747 285.128 81.4645 285.227 81.7937C285.345 82.1953 287.294 82.0241 291.079 81.2934C290.915 79.3513 290.75 77.4158 290.585 75.4737Z" fill="#191919"/>
<path d="M288.979 54.1042C288.887 55.4275 288.736 57.5736 288.479 60.2333C288.163 63.5711 288.031 66.9351 287.584 70.2597C287.123 73.7094 286.616 76.0728 287.781 76.8957C288.203 77.192 288.71 77.192 289.072 77.1459C289.453 77.0471 289.835 76.9418 290.217 76.8431C290.592 77.0274 291.099 77.2051 291.507 76.9945C292.706 76.3822 291.573 73.242 291.659 68.739C291.718 65.7699 292.291 62.8074 293.055 58.9166C293.634 55.9476 294.075 54.4071 293.252 53.65C292.251 52.7217 290.033 53.6105 288.979 54.1042Z" fill="white" stroke="#161616" stroke-width="0.131667" stroke-miterlimit="10"/>
<path opacity="0.14" d="M290.868 53.4854C291.118 54.6507 291.401 56.415 291.382 58.5612C291.349 62.024 290.539 64.2097 289.953 66.8101C289.42 69.1669 288.906 72.6034 289.137 77.034C289.486 76.9682 289.841 76.8957 290.19 76.8299C290.269 76.8892 290.592 77.1064 291.039 77.0669C291.105 77.0603 291.54 77.0142 291.823 76.6917C292.172 76.2967 292.099 75.7107 292.06 75.4277C291.908 74.1966 291.875 72.9523 291.75 71.7147C291.619 70.4112 291.638 69.3973 291.645 68.7851C291.651 68.3242 291.684 67.4618 291.849 66.0596C292.139 63.6172 292.402 63.2024 292.975 59.654C293.409 56.9812 293.218 57.4683 293.383 56.8627C293.534 56.3228 293.791 55.5394 293.653 54.5453C293.587 54.0779 293.468 53.8146 293.278 53.6237C292.883 53.2352 292.297 53.2418 291.948 53.2484C291.48 53.255 291.098 53.3867 290.868 53.4854Z" fill="#6D6C6C"/>
<path opacity="0.1" d="M292.745 60.2004C292.251 61.2933 291.731 62.7284 291.415 64.4599C290.862 67.5145 291.409 69.0682 290.941 72.3335C290.77 73.5383 290.447 75.0524 289.815 76.7641C290.052 76.797 290.289 76.8299 290.533 76.8694C290.889 76.9945 291.336 77.0867 291.659 76.8694C292.238 76.481 292.041 75.3421 291.896 74.0057C291.896 74.0057 291.718 72.3599 291.692 69.2328C291.679 67.5014 291.837 66.2242 292.067 64.3611C292.271 62.6889 292.521 61.2735 292.745 60.2004Z" fill="#6D6C6C"/>
<path d="M298.894 74.9741C298.453 74.6186 297.854 74.5462 297.367 74.7897C296.794 75.0794 296.485 75.7575 296.629 76.4356C296.748 77.3375 296.866 78.246 296.985 79.1479C294.582 80.2473 293.436 80.9649 293.535 81.2941C293.654 81.6957 295.602 81.5245 299.388 80.7937C299.217 78.8517 299.052 76.9162 298.894 74.9741Z" fill="#191919"/>
<path d="M296.439 53.9007C296.82 57.0278 297.229 60.2537 297.663 63.6046C297.959 65.9087 298.032 66.4552 298.262 67.3505C298.657 68.9042 299.19 70.2274 299.651 72.6303C299.868 73.7495 299.98 74.658 299.46 75.3427C299.072 75.8562 298.315 76.2643 298.144 76.1063C298.071 76.0339 298.117 75.8496 298.183 75.685C298.025 75.8364 297.024 76.7778 296.228 76.4487C295.76 76.2577 295.57 75.7113 295.477 75.4151C294.543 72.5513 294.391 69.681 294.391 69.681C294.332 68.575 294.187 67.4427 293.904 65.1714C293.693 63.5058 293.298 61.0963 292.449 58.1667C292.324 58.0877 291.099 57.2714 291.02 55.7638C291.014 55.6519 290.968 54.513 291.685 53.7427C292.633 52.7223 294.661 52.6499 296.439 53.9007Z" fill="white" stroke="#161616" stroke-width="0.131667" stroke-miterlimit="10"/>
<path d="M291.125 54.6908C290.888 55.3755 290.822 56.1457 291.197 56.7975C291.52 57.3571 292.04 57.9693 292.672 58.1668C292.791 58.2063 292.843 58.0154 292.725 57.9759C292.145 57.7982 291.658 57.2122 291.369 56.6987C291.02 56.0931 291.099 55.3821 291.316 54.7435C291.362 54.625 291.171 54.5723 291.125 54.6908Z" fill="white"/>
<path d="M290.928 55.9151C290.987 56.9421 291.645 57.7979 292.646 58.081C292.771 58.1139 292.824 57.923 292.699 57.8901C291.79 57.6334 291.185 56.8565 291.125 55.9151C291.119 55.79 290.921 55.79 290.928 55.9151Z" fill="white"/>
<path opacity="0.14" d="M293.845 53.0449C294.016 53.5584 294.279 54.3879 294.569 55.4149C295.412 58.3906 296.866 63.5453 296.959 69.7468C296.972 70.7804 297.011 76.0405 297.485 76.0668C297.597 76.0734 297.782 75.7838 298.032 75.8496C298.203 75.8957 298.209 76.0537 298.361 76.1129C298.69 76.238 299.236 75.6718 299.5 75.2571C299.592 75.1123 299.803 74.7831 299.849 74.3157C299.875 74.105 299.855 73.9536 299.783 73.5059C299.678 72.8147 299.625 72.4723 299.585 72.3012C299.302 70.9648 298.795 69.681 298.381 67.8706C298.203 67.1069 298.084 66.4223 297.94 65.6323C297.893 65.3821 297.768 64.6513 297.63 63.7428C297.321 61.6625 297.222 60.2339 297.018 58.4103C296.906 57.4163 296.735 56.014 296.471 54.3089C296.406 54.1641 296.287 53.9403 296.076 53.7362C296.004 53.6703 295.78 53.4663 295.175 53.2753C294.878 53.17 294.424 53.0581 293.845 53.0449Z" fill="#6D6C6C"/>
<path opacity="0.2" d="M298.123 66.8896C298.485 68.575 298.729 70.0167 298.893 71.1491C299.157 72.9924 299.17 73.6639 298.828 74.3749C298.314 75.448 297.248 76.0866 297.313 76.1721C297.34 76.2051 297.511 76.1392 298.103 75.7574C298.123 75.9154 298.169 76.0931 298.301 76.1524C298.637 76.2972 299.381 75.5731 299.703 74.8818C300.144 73.9272 299.822 72.9463 299.525 72.0049C299.157 70.8133 298.663 69.1148 298.123 66.8896Z" fill="#6D6C6C"/>
<path d="M289.367 42.7087C288.722 42.6231 288.129 43.4658 286.977 45.1445C286.187 46.29 285.634 47.2973 285.272 47.9951C284.489 47.9556 283.705 47.9161 282.922 47.87C282.191 47.8305 281.46 47.791 280.73 47.7449C280.44 47.6462 280.006 47.5014 279.472 47.3763C278.61 47.1656 276.826 46.8167 276.714 47.1261C276.681 47.2249 276.799 47.4289 277.563 47.9095C277.51 48.0412 277.32 48.5942 277.563 49.2328C277.603 49.3315 277.82 49.8648 278.333 50.1413C278.992 50.4902 279.9 50.2993 280.565 49.6475C281.079 49.9569 283.863 51.583 286.484 50.4704C287.339 50.1083 287.938 49.5554 288.472 49.0682C289.439 48.1794 290.71 47.0142 290.743 45.3947C290.769 44.2229 290.15 42.814 289.367 42.7087Z" fill="white" stroke="#161616" stroke-width="0.131667" stroke-miterlimit="10"/>
<path d="M276.661 47.205C276.918 47.4618 277.168 47.7383 277.458 47.9555C277.741 48.1662 278.064 48.2847 278.393 48.3966C278.485 48.4295 278.525 48.2847 278.432 48.2518C278.083 48.1333 277.748 48.0016 277.458 47.7646C277.208 47.5605 276.991 47.3235 276.767 47.0997C276.701 47.0339 276.596 47.1392 276.661 47.205Z" fill="#161616"/>
<path d="M279.776 47.883C279.525 47.9752 279.295 48.12 279.117 48.3175C278.992 48.4558 278.808 48.673 278.854 48.8705C278.9 49.0943 279.176 49.0943 279.361 49.0943C279.657 49.0878 279.94 49.0022 280.197 48.8508C280.276 48.8047 280.203 48.673 280.124 48.7257C279.96 48.8244 279.782 48.8968 279.591 48.9298C279.427 48.9561 278.946 49.0153 279.032 48.7059C279.117 48.3899 279.539 48.1332 279.822 48.0278C279.901 47.9949 279.861 47.8501 279.776 47.883Z" fill="#161616"/>
<path d="M277.477 48.0279C277.339 48.469 277.339 48.8969 277.813 49.1076C278.162 49.2656 278.669 49.1866 278.847 48.8113C278.886 48.7258 278.761 48.6533 278.722 48.7389C278.577 49.0483 278.162 49.101 277.872 48.9693C277.471 48.7916 277.51 48.4295 277.622 48.0674C277.649 47.9753 277.51 47.9358 277.477 48.0279Z" fill="#161616"/>
<path d="M277.445 49.0024C277.471 49.3776 277.701 49.7463 278.096 49.8187C278.445 49.8845 278.768 49.6739 278.893 49.3579C278.926 49.2723 278.788 49.2328 278.748 49.3184C278.643 49.5817 278.346 49.7397 278.063 49.6607C277.774 49.5751 277.609 49.2854 277.589 49.0024C277.589 48.9102 277.438 48.9102 277.445 49.0024Z" fill="#161616"/>
<path d="M278.867 49.4302C279.38 49.338 279.209 50.2531 278.834 50.2202C278.742 50.2136 278.742 50.3584 278.834 50.3716C279.15 50.3979 279.321 50.0095 279.341 49.7462C279.36 49.4565 279.11 49.2458 278.827 49.2985C278.735 49.3051 278.775 49.4433 278.867 49.4302Z" fill="#161616"/>
<path d="M278.828 48.8969C278.828 48.8904 278.834 48.8904 278.834 48.8838C278.808 48.8904 278.788 48.8969 278.762 48.9035C278.815 48.9167 278.821 49.0879 278.815 49.1208C278.808 49.2064 278.775 49.2854 278.709 49.3512C278.643 49.417 278.749 49.5224 278.815 49.4565C278.913 49.3578 278.966 49.2195 278.959 49.0747C278.953 48.9694 278.92 48.785 278.795 48.7587C278.769 48.7521 278.742 48.7587 278.722 48.7784C278.722 48.785 278.716 48.785 278.716 48.7916C278.663 48.864 278.762 48.9694 278.828 48.8969Z" fill="#161616"/>
<path d="M278.472 48.4097C278.63 48.4163 278.728 48.5677 278.689 48.7191C278.663 48.8113 278.807 48.8508 278.834 48.7586C278.9 48.515 278.735 48.2714 278.478 48.2649C278.373 48.2583 278.373 48.4097 278.472 48.4097Z" fill="#161616"/>
<path opacity="0.12" d="M290.341 43.7684C290.15 44.328 289.834 45.0851 289.334 45.9146C288.82 46.7638 288.248 47.7053 287.135 48.4953C286.727 48.7849 285.496 49.6408 283.672 49.7066C281.954 49.7658 280.69 49.0944 280.19 48.7915C279.795 49.0878 279.525 49.1075 279.347 49.068C279.189 49.0285 279.13 48.9495 278.853 48.8639C278.616 48.7915 278.425 48.7783 278.32 48.7718C277.938 48.7454 277.543 48.7191 277.438 48.8969C277.3 49.1404 277.747 49.6605 278.096 49.9436C278.254 50.0687 278.531 50.2859 278.919 50.3452C279.834 50.49 280.512 49.6934 280.552 49.6474C280.776 49.7856 281.098 49.9765 281.506 50.1609C282.171 50.4703 283.113 50.8982 284.364 50.8916C285.786 50.8916 286.812 50.332 287.023 50.2135C287.273 50.0687 287.741 49.6605 288.669 48.8376C289.531 48.0739 289.847 47.7382 290.137 47.2774C290.308 47.0074 290.526 46.6585 290.651 46.1779C290.921 45.1509 290.558 44.2161 290.341 43.7684Z" fill="#6D6C6C"/>
<path opacity="0.15" d="M290.691 44.5586C290.566 44.9931 290.349 45.6053 289.973 46.2834C289.624 46.9154 288.703 48.5415 286.747 49.5422C286.168 49.8384 285.167 50.3388 283.778 50.3124C282.238 50.2795 281.132 49.6212 280.664 49.3052C280.401 49.4698 280.006 49.6804 279.493 49.8187C278.808 49.9964 278.314 49.9372 278.301 50.0359C278.288 50.1347 278.762 50.3453 279.256 50.3322C279.947 50.3124 280.434 49.8582 280.612 49.6738C281.066 50.003 282.765 51.1617 284.99 50.8654C286.708 50.635 287.794 49.6673 288.749 48.8114C289.46 48.1728 290.283 47.4158 290.599 46.1518C290.763 45.5066 290.737 44.9404 290.691 44.5586Z" fill="#6D6C6C"/>
<path d="M288.67 42.735C288.538 42.8864 288.307 43.209 288.11 44.7495C287.847 46.843 287.985 48.502 288.11 49.7397C288.255 51.2077 288.459 52.9786 288.755 54.9931C289.901 55.3486 291.803 55.7502 294.088 55.3881C295.121 55.2236 296.003 54.9405 296.714 54.6442C296.563 52.9984 296.583 51.6686 296.629 50.793C296.853 46.2702 297.057 45.0128 297.057 45.0128C297.208 44.1109 297.346 43.5513 297.011 43.0444C296.675 42.5243 296.036 42.3466 294.002 42.2149C290.914 42.0042 289.361 41.9187 288.67 42.735Z" fill="#3480FC"/>
<path opacity="0.14" d="M293.113 42.228C293.317 42.9522 293.489 43.7224 293.633 44.5388C294.384 48.8311 293.857 52.6363 293.113 55.4737C293.495 55.4474 293.897 55.4013 294.325 55.3289C295.233 55.1774 296.03 54.9404 296.688 54.6969C296.596 53.3868 296.57 52.2676 296.57 51.3789C296.576 48.8969 296.793 47.0009 296.886 46.2439C297.004 45.3222 297.129 44.5519 297.234 43.9924C297.261 43.8344 297.287 43.5447 297.149 43.2419C296.991 42.8929 296.695 42.7086 296.57 42.6362C296.142 42.3794 295.707 42.3794 295.47 42.3794C294.904 42.3597 294.153 42.3268 293.113 42.228Z" fill="#6D6C6C"/>
<path opacity="0.16" d="M297.182 43.7817C296.017 46.8035 295.773 48.9628 295.799 50.4177C295.806 50.9642 295.865 52.2742 295.167 53.6502C294.739 54.4862 294.18 55.0722 293.752 55.4408C294.147 55.3882 294.581 55.3092 295.049 55.1841C295.648 55.0261 296.168 54.8286 296.609 54.6377C296.55 52.9392 296.556 51.0958 296.668 49.1274C296.767 47.2051 296.951 45.421 297.182 43.7817Z" fill="#6D6C6C"/>
<path d="M296.286 42.7547C297.096 42.3992 298.195 43.4394 298.906 44.1043C299.683 44.8351 301.257 46.3163 301.336 48.739C301.402 50.7601 300.394 52.2216 299.894 52.8338C299.11 53.7884 298.222 54.2887 297.695 54.5323C297.689 54.7561 297.656 55.1116 297.504 55.5001C297.419 55.7107 296.984 56.8167 296.155 56.8628C296.043 56.8694 295.661 56.8694 295.22 56.4546C295.193 56.4546 295.062 56.4349 294.976 56.3164C294.897 56.2045 294.891 56.0399 294.97 55.9082C294.95 55.8951 294.779 55.8095 294.739 55.6054C294.693 55.3816 294.844 55.217 294.858 55.2104C294.864 55.0985 294.891 54.9536 294.996 54.8812C295.114 54.8022 295.239 54.8681 295.43 54.8549C295.555 54.8417 295.733 54.7956 295.944 54.6113C295.707 54.5455 295.174 54.3743 295.187 54.1834C295.193 53.9596 295.964 53.8279 296.135 53.795C296.556 53.7226 296.918 53.7357 297.162 53.7555C297.307 53.4921 297.517 53.1037 297.767 52.6363C298.189 51.8463 298.399 51.4513 298.525 51.1682C298.762 50.6416 299.025 49.845 299.097 48.7324C298.801 48.4427 298.347 48.028 297.767 47.5737C296.517 46.5994 296.095 46.5796 295.753 46.0266C295.108 44.9931 295.417 43.1366 296.286 42.7547Z" fill="white" stroke="#161616" stroke-width="0.131667" stroke-miterlimit="10"/>
<path d="M294.792 55.1313C294.897 55.6448 295.687 55.5263 296.003 55.342C296.082 55.2959 296.01 55.1642 295.931 55.2169C295.7 55.3552 295.016 55.5066 294.937 55.0984C294.917 54.9997 294.772 55.0392 294.792 55.1313Z" fill="#161616"/>
<path d="M294.871 55.9543C295.266 56.2374 295.845 56.1057 296.26 55.9148C296.345 55.8753 296.273 55.7502 296.187 55.7897C295.819 55.9543 295.299 56.0728 294.95 55.8292C294.871 55.77 294.798 55.9016 294.871 55.9543Z" fill="#161616"/>
<path d="M295.167 56.5335C295.575 56.731 296.049 56.7047 296.424 56.4414C296.503 56.3887 296.431 56.257 296.352 56.3163C296.023 56.5467 295.608 56.5862 295.246 56.4084C295.16 56.3624 295.081 56.4875 295.167 56.5335Z" fill="#161616"/>
<path opacity="0.18" d="M296.003 43.0048C295.872 43.4524 297.412 43.8804 298.762 45.3287C299.229 45.829 300.184 46.8494 300.408 48.3636C300.691 50.2399 299.71 51.7409 299.348 52.2807C298.65 53.3406 297.801 53.966 297.287 54.2886C297.287 54.4729 297.261 55.1444 296.747 55.7106C296.642 55.8291 296.227 56.2834 295.622 56.3492C295.273 56.3887 294.957 56.2899 294.943 56.3294C294.937 56.3689 295.18 56.4216 295.496 56.6389C295.701 56.7771 295.707 56.8364 295.806 56.8824C296.214 57.0734 296.859 56.494 296.932 56.4348C297.603 55.8225 297.682 54.914 297.695 54.5783C297.847 54.4927 298.051 54.3742 298.288 54.2162C298.531 54.0516 299.249 53.5776 299.815 52.9522C299.967 52.7876 300.737 51.912 301.112 50.5098C301.244 50.016 301.606 48.5874 301.026 47.0272C300.77 46.3491 300.441 45.908 299.848 45.1378C299.321 44.4465 298.933 44.1042 298.182 43.4393C297.643 42.9587 297.32 42.7349 296.886 42.7085C296.589 42.6888 296.076 42.7612 296.003 43.0048Z" fill="#6D6C6C"/>
<path opacity="0.18" d="M300.513 46.02C300.737 46.573 301.06 47.5803 301.013 48.864C300.967 50.2597 300.513 51.2735 300.335 51.6224C299.519 53.2683 298.229 54.1504 297.597 54.5191C298.11 54.3282 298.854 53.9661 299.559 53.288C301.619 51.2999 301.316 48.4954 301.29 48.2979C301.171 47.3104 300.816 46.5401 300.513 46.02Z" fill="#6D6C6C"/>
<path d="M292.968 37.6857C293.363 39.009 293.508 39.7792 294.067 40.9906C294.33 41.5567 294.581 42.0044 294.758 42.3007C294.186 42.5706 293.257 42.9195 292.066 42.9656C291.361 42.9919 290.756 42.8997 290.288 42.7944C290.334 42.4323 290.361 41.9781 290.328 41.4646C290.282 40.8194 290.143 40.273 290.012 39.8714C289.38 39.7924 288.741 39.7068 288.109 39.6278C287.984 39.3513 287.859 39.0682 287.734 38.7917C287.563 38.7852 287.385 38.7786 287.214 38.772C287.346 38.3902 287.543 37.7911 287.773 37.0472C288.201 35.6449 288.195 35.4474 288.425 35.1314C289.064 34.269 290.492 33.716 291.434 34.1834C291.993 34.4533 292.323 35.533 292.968 37.6857Z" fill="white" stroke="#161616" stroke-width="0.131667" stroke-miterlimit="10"/>
<path d="M287.228 38.8773C287.557 38.8839 287.879 38.8576 288.202 38.8115C288.327 38.7917 288.274 38.6008 288.149 38.6206C287.84 38.6667 287.537 38.6864 287.228 38.6798C287.103 38.6798 287.103 38.8773 287.228 38.8773Z" fill="#161616"/>
<path d="M287.102 36.3625C287.286 36.2637 287.53 36.3164 287.648 36.4876C287.721 36.5929 287.892 36.4941 287.82 36.3888C287.635 36.1255 287.286 36.0399 287.003 36.1913C286.891 36.2506 286.99 36.4217 287.102 36.3625Z" fill="#161616"/>
<path d="M288.656 36.593C288.893 36.5205 289.149 36.5995 289.288 36.8102C289.36 36.9155 289.531 36.8168 289.459 36.7115C289.268 36.435 288.925 36.3033 288.603 36.4086C288.484 36.4415 288.53 36.6325 288.656 36.593Z" fill="#161616"/>
<path d="M288.702 37.3304C288.695 37.2579 288.708 37.1855 288.748 37.1197C288.754 37.1065 288.767 37.0868 288.781 37.0736C288.754 37.0407 288.741 37.0341 288.748 37.067C288.735 37.0802 288.741 37.146 288.735 37.1658C288.728 37.1987 288.715 37.2316 288.702 37.2645C288.695 37.2777 288.688 37.2909 288.682 37.2974C288.715 37.3567 288.735 37.3633 288.748 37.3172C288.774 37.2909 288.787 37.2316 288.807 37.1987C288.827 37.1592 288.846 37.1197 288.866 37.0802C288.919 36.9814 288.794 36.8827 288.708 36.9617C288.662 37.0078 288.636 37.0539 288.616 37.1131C288.583 37.2382 288.774 37.2909 288.807 37.1658C288.814 37.1329 288.827 37.1197 288.846 37.0999C288.794 37.0604 288.741 37.0209 288.688 36.9814C288.642 37.0736 288.59 37.1658 288.55 37.2645C288.517 37.3369 288.524 37.4225 288.596 37.4686C288.774 37.5805 288.886 37.3501 288.919 37.2119C288.945 37.0802 288.945 36.8037 288.728 36.8629C288.557 36.9156 288.491 37.1658 288.498 37.3172C288.511 37.4554 288.708 37.4554 288.702 37.3304Z" fill="#161616"/>
<path d="M288.195 35.4738C288.241 35.1907 288.353 34.7167 288.663 34.2295C288.775 34.0583 289.005 33.6963 289.38 33.4527C290.098 32.9853 291.197 33.0248 291.994 33.5975C292.777 34.1571 293.166 35.1578 292.995 36.1584C291.401 35.9346 289.795 35.7042 288.195 35.4738Z" fill="#3480FC"/>
<path d="M285.575 35.4934C288.044 35.8028 290.506 36.1122 292.975 36.4216C293.35 36.4677 293.35 35.8752 292.975 35.8291C290.506 35.5197 288.044 35.2103 285.575 34.9009C285.193 34.8548 285.2 35.4473 285.575 35.4934Z" fill="#3480FC"/>
<path d="M291.401 36.0926C290.967 36.2506 290.71 36.5535 290.421 36.9024C289.802 37.6529 289.986 37.9294 289.552 38.3968C288.86 39.1407 288.156 38.6996 287.537 39.4304C287.01 40.0492 287.083 40.8853 287.103 41.0762C287.122 41.2605 287.214 42.0045 287.827 42.518C288.36 42.959 289.071 43.0578 289.117 42.959C289.13 42.9261 289.078 42.834 288.683 42.5706C288.794 42.6496 288.979 42.7484 289.209 42.7945C289.479 42.8405 289.736 42.7945 289.736 42.755C289.736 42.722 289.591 42.7286 289.479 42.6101C289.413 42.5377 289.387 42.4587 289.367 42.3863C289.584 42.5245 289.854 42.6496 290.111 42.5706C290.816 42.36 290.941 40.7997 290.98 40.2796C291.112 38.6075 290.631 37.6924 291.217 37.0999C291.263 37.0472 291.5 36.8102 291.764 36.8629C292.093 36.9221 292.343 37.429 292.238 37.7648C292.145 38.0545 291.816 38.1335 291.836 38.1927C291.869 38.2585 292.422 38.1532 292.889 37.7845C293.06 37.6529 293.199 37.541 293.271 37.3435C293.396 36.9945 293.251 36.5995 293.054 36.3625C292.646 35.8885 291.875 35.9215 291.401 36.0926Z" fill="#161616" stroke="#161616" stroke-width="0.131667" stroke-miterlimit="10"/>
<path opacity="0.22" d="M292.053 38.252C291.948 38.2651 291.797 38.2651 291.79 38.2322C291.783 38.2125 291.823 38.1861 291.823 38.1861C291.823 38.1861 291.698 38.3441 291.54 38.3639C291.467 38.3705 291.402 38.3507 291.355 38.3244C291.632 38.9103 291.915 39.6147 292.159 40.4311C292.422 41.3264 292.573 42.1361 292.659 42.834C292.942 42.834 293.344 42.8011 293.804 42.6562C294.18 42.5377 294.476 42.3797 294.7 42.2415C294.107 41.3132 293.804 40.5693 293.633 40.0624C293.554 39.8254 293.383 39.2658 293.304 38.9893C293.153 38.489 293.028 38.0742 292.949 37.7977C292.909 37.8372 292.837 37.8965 292.751 37.9557C292.626 38.0479 292.382 38.2191 292.053 38.252Z" fill="#6D6C6C"/>
<path d="M290.282 33.163C290.921 33.2881 291.401 33.8016 291.48 34.4007C291.566 35.1183 291.039 35.612 290.987 35.6515C291.671 35.7371 292.349 35.8161 293.034 35.9017C293.047 35.7437 293.054 35.5264 293.008 35.2763C292.876 34.4731 292.402 33.9728 292.303 33.874C292.145 33.716 291.586 33.1828 290.75 33.1367C290.559 33.1301 290.394 33.1499 290.282 33.163Z" fill="#A0C4FF"/>
<path d="M275.793 61.9783C275.826 62.3338 275.852 62.6959 275.885 63.0514C287.057 63.0711 298.229 63.0909 309.401 63.1106C309.5 62.7551 309.598 62.393 309.697 62.0375C298.4 62.0178 287.097 61.998 275.793 61.9783Z" fill="white"/>
<path d="M276.241 62.0244C276.36 62.0244 276.478 62.0244 276.597 62.0244C276.722 62.0244 276.722 61.8269 276.597 61.8269C276.478 61.8269 276.36 61.8269 276.241 61.8269C276.11 61.8269 276.11 62.0244 276.241 62.0244Z" fill="#161616"/>
<path d="M275.879 62.2154C280.283 62.2154 284.688 62.2154 289.092 62.2154C293.496 62.2154 297.9 62.2154 302.305 62.2154C304.8 62.2154 307.301 62.2154 309.796 62.2154C310.053 62.2154 310.053 61.8204 309.796 61.8204C305.392 61.8204 300.988 61.8204 296.584 61.8204C292.179 61.8204 287.775 61.8204 283.371 61.8204C280.876 61.8204 278.374 61.8204 275.879 61.8204C275.629 61.8204 275.629 62.2154 275.879 62.2154Z" fill="#161616"/>
<path d="M275.971 63.1897C284.641 63.1897 293.318 63.1897 301.988 63.1897C304.444 63.1897 306.893 63.1897 309.348 63.1897C309.605 63.1897 309.605 62.7947 309.348 62.7947C300.678 62.7947 292.001 62.7947 283.331 62.7947C280.875 62.7947 278.426 62.7947 275.971 62.7947C275.714 62.7947 275.714 63.1897 275.971 63.1897Z" fill="#161616"/>
<path d="M277.018 64.1506C277.018 69.6675 277.018 75.1843 277.018 80.6946C277.018 82.268 277.018 83.848 277.018 85.4214C277.018 85.6781 277.413 85.6781 277.413 85.4214C277.413 79.9046 277.413 74.3877 277.413 68.8775C277.413 67.3041 277.413 65.7241 277.413 64.1506C277.413 63.9005 277.018 63.9005 277.018 64.1506Z" fill="#161616"/>
<path d="M304.522 63.8875C304.522 68.8777 304.522 73.8744 304.522 78.8646C304.522 80.28 304.522 81.6954 304.522 83.1174C304.522 83.3742 304.917 83.3742 304.917 83.1174C304.917 78.1273 304.917 73.1305 304.917 68.1403C304.917 66.7249 304.917 65.3095 304.917 63.8875C304.917 63.6308 304.522 63.6308 304.522 63.8875Z" fill="#161616"/>
<path d="M249.809 80.8132C254.832 80.8132 259.848 80.8132 264.871 80.8132C269.914 80.8132 274.957 80.8132 280 80.8132C282.831 80.8132 285.655 80.8132 288.486 80.8132C288.743 80.8132 288.743 80.4182 288.486 80.4182C283.463 80.4182 278.446 80.4182 273.423 80.4182C268.38 80.4182 263.338 80.4182 258.295 80.4182C255.464 80.4182 252.64 80.4182 249.809 80.4182C249.552 80.4182 249.552 80.8132 249.809 80.8132Z" fill="#161616"/>
<path d="M296.057 80.9908C300.507 80.9908 304.951 80.9908 309.401 80.9908C313.825 80.9908 318.256 80.9908 322.68 80.9908C325.201 80.9908 327.716 80.9908 330.237 80.9908C330.494 80.9908 330.494 80.5958 330.237 80.5958C325.787 80.5958 321.343 80.5958 316.893 80.5958C312.469 80.5958 308.038 80.5958 303.614 80.5958C301.093 80.5958 298.578 80.5958 296.057 80.5958C295.8 80.5958 295.8 80.9908 296.057 80.9908Z" fill="#161616"/>
<path d="M277.097 64.1442C277.097 69.536 277.097 74.9343 277.097 80.3261C277.097 81.86 277.097 83.3939 277.097 84.9344C277.097 85.1911 277.492 85.1911 277.492 84.9344C277.492 79.5426 277.492 74.1443 277.492 68.7526C277.492 67.2186 277.492 65.6847 277.492 64.1442C277.492 63.8875 277.097 63.8875 277.097 64.1442Z" fill="#161616"/>
<path d="M277.183 64.2297C277.183 69.6017 277.183 74.9737 277.183 80.3457C277.183 81.8731 277.183 83.4004 277.183 84.9343C277.183 85.1911 277.578 85.1911 277.578 84.9343C277.578 79.5623 277.578 74.1903 277.578 68.8183C277.578 67.291 277.578 65.7637 277.578 64.2297C277.578 63.9796 277.183 63.9796 277.183 64.2297Z" fill="#161616"/>
<path d="M304.49 63.7887C304.49 68.6735 304.49 73.5649 304.49 78.4498C304.49 79.8454 304.49 81.2411 304.49 82.6368C304.49 82.8935 304.885 82.8935 304.885 82.6368C304.885 77.7519 304.885 72.8605 304.885 67.9757C304.885 66.58 304.885 65.1844 304.885 63.7887C304.885 63.5385 304.49 63.5385 304.49 63.7887Z" fill="#161616"/>
<path d="M304.582 63.8808C304.582 68.7261 304.582 73.5715 304.582 78.4168C304.582 79.7993 304.582 81.1818 304.582 82.5577C304.582 82.8145 304.977 82.8145 304.977 82.5577C304.977 77.7124 304.977 72.867 304.977 68.0217C304.977 66.6392 304.977 65.2567 304.977 63.8808C304.977 63.624 304.582 63.624 304.582 63.8808Z" fill="#161616"/>
<path d="M276.188 63.2226C276.531 63.6374 276.833 64.0719 277.103 64.5327C277.235 64.75 277.577 64.5525 277.446 64.3352C277.156 63.848 276.827 63.3872 276.465 62.9461C276.3 62.7486 276.024 63.0251 276.188 63.2226Z" fill="#161616"/>
<path d="M277.524 64.3942C278.011 63.9861 278.492 63.5713 278.979 63.1632C279.17 62.9986 278.894 62.7221 278.703 62.8867C278.215 63.2948 277.735 63.7096 277.248 64.1178C277.05 64.2823 277.333 64.5588 277.524 64.3942Z" fill="#161616"/>
<path d="M303.39 63.4268C303.798 63.6835 304.206 63.9403 304.615 64.197C304.832 64.3353 305.029 63.9929 304.812 63.8547C304.404 63.5979 303.996 63.3412 303.588 63.0844C303.37 62.9528 303.173 63.2951 303.39 63.4268Z" fill="#161616"/>
<path d="M305.767 62.9593C305.424 63.2358 305.095 63.532 304.786 63.8415C304.608 64.0192 304.885 64.3023 305.062 64.118C305.372 63.8085 305.701 63.5123 306.043 63.2358C306.241 63.0778 305.964 62.8013 305.767 62.9593Z" fill="#161616"/>
<path d="M303.7 63.4465C304.227 63.5255 304.74 63.5452 305.267 63.4926C305.234 63.3675 305.201 63.249 305.168 63.1239C304.951 63.2621 304.727 63.3016 304.47 63.328C304.326 63.3477 304.181 63.5452 304.332 63.6637C304.536 63.8283 304.74 63.881 304.997 63.8151C305.241 63.7559 305.142 63.3741 304.892 63.4333C304.793 63.4728 304.694 63.4531 304.609 63.3806C304.563 63.4926 304.516 63.6045 304.47 63.7164C304.786 63.6835 305.096 63.6374 305.366 63.4531C305.517 63.3543 305.478 63.0646 305.267 63.0844C304.78 63.1305 304.286 63.1239 303.799 63.0515C303.555 63.0251 303.45 63.407 303.7 63.4465Z" fill="#161616"/>
<path d="M305.609 63.0713C305.425 63.0318 305.241 63.0581 305.083 63.1634C304.997 63.2227 304.957 63.3346 305.01 63.4334C305.063 63.5189 305.194 63.565 305.28 63.5058C305.352 63.4531 305.425 63.4333 305.497 63.4531C305.603 63.4728 305.708 63.4202 305.741 63.3149C305.774 63.2161 305.715 63.091 305.609 63.0713Z" fill="#161616"/>
<path d="M276.636 63.4068C276.754 63.4858 277.195 63.6899 277.175 63.8611C277.241 63.7953 277.307 63.7294 277.373 63.6636C277.347 63.6636 277.268 63.3608 277.248 63.3081C277.189 63.4068 277.136 63.5056 277.077 63.6043C277.472 63.5846 277.847 63.5056 278.209 63.3608C278.143 63.2488 278.084 63.1435 278.018 63.0316C277.794 63.262 277.557 63.4793 277.301 63.6768C277.393 63.7689 277.478 63.8545 277.57 63.9467C277.807 63.5451 277.472 63.2159 277.129 63.0448C277.096 63.1698 277.064 63.2883 277.031 63.4134C277.301 63.4003 277.57 63.3937 277.84 63.4068C278.097 63.42 278.091 63.025 277.84 63.0118C277.57 62.9987 277.301 62.9987 277.031 63.0184C276.846 63.0316 276.748 63.2949 276.932 63.3871C277.05 63.4463 277.34 63.5714 277.235 63.7492C277.143 63.9072 277.34 64.1442 277.505 64.0191C277.788 63.8018 278.058 63.5714 278.301 63.3147C278.426 63.183 278.301 62.9065 278.11 62.9855C277.775 63.1172 277.439 63.1962 277.083 63.2159C276.925 63.2225 276.853 63.3739 276.912 63.5122C277.024 63.7623 277.017 64.0652 277.38 64.0586C277.498 64.0586 277.564 63.9664 277.577 63.8611C277.63 63.4661 277.11 63.2423 276.846 63.0711C276.622 62.9263 276.425 63.2686 276.636 63.4068Z" fill="#161616"/>
<path d="M278.795 61.7742C278.795 61.4516 278.795 61.129 278.795 60.7999C278.795 60.6748 278.598 60.6748 278.598 60.7999C278.598 61.1225 278.598 61.445 278.598 61.7742C278.598 61.9059 278.795 61.9059 278.795 61.7742Z" fill="#E8E8E8"/>
<path d="M278.696 60.8854C280.52 60.8854 282.337 60.8854 284.161 60.8854C284.286 60.8854 284.286 60.6879 284.161 60.6879C282.337 60.6879 280.52 60.6879 278.696 60.6879C278.571 60.6879 278.571 60.8854 278.696 60.8854Z" fill="#E8E8E8"/>
<path d="M284.062 60.7866C284.062 61.096 284.062 61.4055 284.062 61.7149C284.062 61.84 284.259 61.84 284.259 61.7149C284.259 61.4055 284.259 61.096 284.259 60.7866C284.259 60.6549 284.062 60.6549 284.062 60.7866Z" fill="#E8E8E8"/>
<path d="M278.946 61.2541C280.342 61.2541 281.731 61.2541 283.127 61.2541C283.252 61.2541 283.252 61.0566 283.127 61.0566C281.731 61.0566 280.342 61.0566 278.946 61.0566C278.821 61.0566 278.821 61.2541 278.946 61.2541Z" fill="#E8E8E8"/>
<path d="M279.875 61.6295C280.942 61.6295 282.015 61.6295 283.081 61.6295C283.206 61.6295 283.206 61.432 283.081 61.432C282.015 61.432 280.942 61.432 279.875 61.432C279.75 61.432 279.75 61.6295 279.875 61.6295Z" fill="#E8E8E8"/>
<path d="M280.099 60.7669C280.099 60.5431 280.099 60.3258 280.099 60.102C280.099 59.9769 279.901 59.9769 279.901 60.102C279.901 60.3258 279.901 60.5431 279.901 60.7669C279.901 60.892 280.099 60.892 280.099 60.7669Z" fill="#E8E8E8"/>
<path d="M280.125 60.1612C281.712 60.1612 283.298 60.1612 284.885 60.1612C285.01 60.1612 285.01 59.9637 284.885 59.9637C283.298 59.9637 281.712 59.9637 280.125 59.9637C280 59.9637 280 60.1612 280.125 60.1612Z" fill="#E8E8E8"/>
<path d="M284.22 60.8393C284.424 60.8393 284.635 60.8393 284.839 60.8393C284.964 60.8393 284.964 60.6418 284.839 60.6418C284.635 60.6418 284.424 60.6418 284.22 60.6418C284.095 60.6418 284.095 60.8393 284.22 60.8393Z" fill="#E8E8E8"/>
<path d="M284.786 60.0824C284.786 60.2931 284.786 60.5103 284.786 60.721C284.786 60.8461 284.984 60.8461 284.984 60.721C284.984 60.5103 284.984 60.2931 284.984 60.0824C284.984 59.9507 284.786 59.9507 284.786 60.0824Z" fill="#E8E8E8"/>
<path d="M281.079 60.4905C281.461 60.4905 281.836 60.4905 282.218 60.4905C282.343 60.4905 282.343 60.293 282.218 60.293C281.836 60.293 281.461 60.293 281.079 60.293C280.948 60.293 280.948 60.4905 281.079 60.4905Z" fill="#E8E8E8"/>
<path d="M283.041 60.6549C283.377 60.6549 283.719 60.6549 284.055 60.6549C284.18 60.6549 284.18 60.4574 284.055 60.4574C283.719 60.4574 283.377 60.4574 283.041 60.4574C282.916 60.4574 282.916 60.6549 283.041 60.6549Z" fill="#E8E8E8"/>
<path d="M281.204 59.8717C281.046 59.7203 281.013 59.4899 281.027 59.2792C281.053 58.9303 281.369 58.9171 281.632 59.0225C281.751 59.0685 281.803 58.8776 281.685 58.8315C281.389 58.713 281 58.7196 280.869 59.0685C280.757 59.3648 280.836 59.7927 281.066 60.01C281.158 60.1021 281.297 59.9573 281.204 59.8717Z" fill="#E8E8E8"/>
<path d="M281.6 58.9236C282.219 58.6471 282.476 59.6873 281.942 59.9506C281.831 60.0099 281.929 60.1745 282.041 60.1218C282.805 59.74 282.357 58.3706 281.501 58.7525C281.383 58.8051 281.488 58.9763 281.6 58.9236Z" fill="#E8E8E8"/>
<path d="M281.619 58.871C281.586 58.6603 281.507 58.4694 281.382 58.2982C281.31 58.1929 281.138 58.2916 281.211 58.397C281.323 58.555 281.395 58.7261 281.428 58.9236C281.448 59.0487 281.639 58.996 281.619 58.871Z" fill="#E8E8E8"/>
<path d="M281.527 58.5352C281.547 58.4825 281.574 58.4364 281.606 58.3903C281.62 58.3706 281.639 58.3443 281.659 58.3245C281.666 58.3113 281.679 58.3048 281.692 58.2916C281.659 58.2258 281.639 58.2126 281.626 58.2455C281.593 58.2784 281.56 58.364 281.541 58.4101C281.508 58.4693 281.468 58.522 281.429 58.5747C281.356 58.68 281.527 58.7788 281.6 58.6734C281.672 58.5747 281.738 58.4693 281.791 58.3574C281.837 58.2653 281.863 58.1468 281.745 58.1007C281.547 58.0283 281.396 58.3377 281.343 58.4759C281.29 58.601 281.481 58.6537 281.527 58.5352Z" fill="#E8E8E8"/>
<path d="M313.877 71.7873C313.903 72.0967 313.93 72.4127 313.956 72.7222C316.991 72.6958 320.026 72.6695 323.061 72.6432C323.028 72.3469 322.995 72.0507 322.962 71.761C319.927 71.7742 316.905 71.7807 313.877 71.7873Z" fill="white"/>
<path d="M313.936 72.8275C316.971 72.8275 319.999 72.8275 323.034 72.8275C323.291 72.8275 323.291 72.4325 323.034 72.4325C319.999 72.4325 316.971 72.4325 313.936 72.4325C313.686 72.4325 313.679 72.8275 313.936 72.8275Z" fill="#161616"/>
<path d="M313.996 71.9255C316.972 71.9255 319.948 71.9255 322.923 71.9255C323.18 71.9255 323.18 71.5305 322.923 71.5305C319.948 71.5305 316.972 71.5305 313.996 71.5305C313.74 71.5305 313.74 71.9255 313.996 71.9255Z" fill="#161616"/>
<path d="M313.687 71.7874C313.687 72.0112 313.687 72.2351 313.687 72.4589C313.687 72.7157 314.082 72.7157 314.082 72.4589C314.082 72.2351 314.082 72.0112 314.082 71.7874C314.082 71.5307 313.687 71.5307 313.687 71.7874Z" fill="#161616"/>
<path d="M322.837 71.7874C322.837 72.0837 322.837 72.3865 322.837 72.6827C322.837 72.9395 323.232 72.9395 323.232 72.6827C323.232 72.3865 323.232 72.0837 323.232 71.7874C323.232 71.5307 322.837 71.5307 322.837 71.7874Z" fill="#161616"/>
<path d="M318.4 72.7418C318.4 76.5206 318.4 80.2994 318.4 84.0848C318.4 84.3416 318.795 84.3416 318.795 84.0848C318.795 80.306 318.795 76.5272 318.795 72.7418C318.795 72.485 318.4 72.485 318.4 72.7418Z" fill="#161616"/>
<path d="M318.387 84.0257C317.709 84.4273 317.031 84.8289 316.346 85.2305C316.129 85.3621 316.326 85.7045 316.544 85.5728C317.222 85.1712 317.9 84.7696 318.585 84.368C318.808 84.2364 318.604 83.894 318.387 84.0257Z" fill="#161616"/>
<path d="M318.499 84.309C319.269 84.7369 320.033 85.1714 320.803 85.5993C321.027 85.7244 321.224 85.382 321.001 85.257C320.23 84.829 319.467 84.3945 318.696 83.9666C318.473 83.8415 318.275 84.1839 318.499 84.309Z" fill="#161616"/>
<path d="M316.465 85.7177C317.927 85.7045 319.381 85.6584 320.843 85.586C321.093 85.5728 321.1 85.1778 320.843 85.191C319.388 85.2634 317.927 85.3095 316.465 85.3227C316.208 85.3227 316.208 85.7177 316.465 85.7177Z" fill="#161616"/>
<path d="M316.681 72.8868C317.274 73.7295 317.814 74.6116 318.301 75.5201C318.419 75.744 318.762 75.5465 318.643 75.3226C318.156 74.4141 317.616 73.532 317.024 72.6893C316.879 72.4786 316.537 72.6761 316.681 72.8868Z" fill="#161616"/>
<path d="M320.639 72.6037C319.776 73.4266 319.039 74.3614 318.44 75.3884C318.308 75.6057 318.65 75.8098 318.782 75.5859C319.368 74.5853 320.086 73.6834 320.922 72.8868C321.106 72.709 320.823 72.4259 320.639 72.6037Z" fill="#161616"/>
<path d="M304.549 80.3457C304.496 81.2871 304.45 82.2285 304.398 83.17C301.883 84.2628 300.671 84.9804 300.77 85.3095C300.882 85.7045 302.818 85.5663 306.564 84.908C306.59 83.295 306.616 81.6821 306.636 80.0692C305.945 80.1614 305.247 80.2535 304.549 80.3457Z" fill="#161616"/>
<path d="M312.357 65.092C311.797 65.5923 311.001 66.3165 310.072 67.2118C307.86 69.358 306.234 70.9314 305.135 72.5575C304.226 73.9071 302.877 76.4746 302.771 80.6747C303.68 80.9249 304.825 81.1356 306.155 81.1224C306.603 81.1158 307.031 81.0895 307.419 81.0434C307.248 80.0888 307.11 78.5944 307.459 76.8432C307.702 75.6121 308.111 74.6246 308.479 73.9071C311.442 72.5904 313.443 70.9775 314.72 69.7464C316.011 68.5021 317.479 67.0801 317.084 66.0729C316.722 65.1183 314.793 64.7496 312.357 65.092Z" fill="#3480FC"/>
<path opacity="0.18" d="M315.471 65.0985C314.477 66.4218 313.286 67.8569 311.857 69.3184C310.066 71.1552 308.295 72.6364 306.709 73.8148C306.156 76.2441 305.603 78.6733 305.05 81.096C305.287 81.1355 305.557 81.1684 305.853 81.1684C306.452 81.1816 306.966 81.096 307.361 80.9907C307.235 80.1612 307.15 79.0223 307.308 77.699C307.505 76.0663 308.006 74.7826 308.414 73.9333C309.902 73.2487 311.08 72.5508 311.929 71.9978C311.929 71.9978 314.589 70.273 316.65 67.6265C316.696 67.5673 316.854 67.3632 316.979 67.0472C317.078 66.7904 317.203 66.4744 317.104 66.1453C317.012 65.849 316.788 65.6844 316.551 65.5198C316.367 65.3948 316.004 65.1775 315.471 65.0985Z" fill="#3480FC"/>
<path opacity="0.16" d="M308.361 73.9662C308.078 74.4929 307.801 75.0459 307.531 75.6252C306.623 77.5804 305.991 79.4501 305.55 81.1486C306.155 81.1223 306.755 81.0959 307.36 81.0762C307.222 80.2796 307.117 79.2065 307.235 77.9623C307.4 76.2045 307.933 74.8352 308.361 73.9662Z" fill="#3480FC"/>
<path d="M308.611 81.2545C308.914 82.1959 309.217 83.1373 309.52 84.0787C307.282 85.4217 306.222 86.2315 306.347 86.5014C306.498 86.8306 308.427 86.3434 312.14 85.0399C311.627 83.5455 311.113 82.0511 310.6 80.5566C309.935 80.7805 309.27 81.0175 308.611 81.2545Z" fill="#161616"/>
<path d="M319.467 66.3693C319.935 68.7459 319.23 70.0823 318.895 70.5958C318.223 71.6228 317.328 71.9388 314.714 73.2357C313.694 73.7426 312.14 74.5326 310.237 75.5794C310.369 76.4155 310.58 77.3766 310.916 78.4234C311.232 79.4109 311.6 80.2733 311.956 80.9974C311.607 81.3332 310.902 81.9257 309.829 82.268C308.671 82.6433 307.677 82.5314 307.189 82.4458C306.156 80.4049 305.892 78.6143 305.82 77.5215C305.734 76.2048 305.636 74.7104 306.406 73.2357C306.998 72.1034 307.571 71.998 309.968 70.1679C313.569 67.4226 313.931 66.3956 315.787 66.0138C317.308 65.7044 318.658 66.0664 319.467 66.3693Z" fill="#3480FC"/>
<path opacity="0.22" d="M317.006 65.9284C317.039 66.6921 316.979 67.8902 316.367 69.1147C315.854 70.1483 315.169 70.8856 312.911 72.413C310.903 73.7691 309.303 74.8159 308.27 75.4874C308.928 77.6928 309.586 79.8982 310.245 82.1036C310.442 82.0378 310.679 81.9391 310.923 81.8008C311.37 81.5441 311.686 81.2346 311.89 80.9976C311.601 80.3788 311.311 79.6876 311.054 78.9305C310.633 77.7191 310.37 76.5868 310.205 75.6059C311.838 74.6974 312.983 74.1049 313.655 73.7691C314.655 73.2688 315.149 73.0186 315.656 72.7751C315.827 72.6961 316.209 72.5183 316.709 72.255C317.269 71.9653 317.545 71.8271 317.796 71.6559C318 71.5176 318.513 71.1556 318.928 70.5565C319.52 69.7006 319.573 68.8053 319.613 68.1536C319.639 67.7322 319.632 67.12 319.474 66.4024C319.132 66.2576 318.671 66.0996 318.118 66.0074C317.69 65.9284 317.315 65.9152 317.006 65.9284Z" fill="#424242"/>
<path opacity="0.11" d="M319.606 67.6862C319.5 68.0351 319.309 68.542 318.974 69.0884C317.94 70.7474 316.36 71.4057 315.254 71.9587C313.944 72.6171 312.18 73.7033 310.218 75.5796C310.771 75.2702 311.449 74.9015 312.239 74.4802C313.635 73.7362 314.326 73.3676 315.043 73.0252C315.603 72.7619 316.242 72.4788 317.196 71.9719C317.881 71.6098 318.256 71.386 318.612 70.9712C319.013 70.5038 319.191 70.0364 319.309 69.7204C319.454 69.3254 319.658 68.621 319.606 67.6862Z" fill="#424242"/>
<path opacity="0.17" d="M310.191 75.6454C310.198 76.1984 310.237 76.7909 310.31 77.4163C310.494 79.0161 310.883 80.392 311.297 81.5046C311.416 81.4387 311.554 81.3466 311.699 81.2215C311.791 81.1425 311.87 81.0635 311.929 80.9911C311.653 80.4183 311.383 79.7797 311.126 79.0885C310.672 77.8376 310.382 76.6724 310.191 75.6454Z" fill="#424242"/>
<path d="M315.129 53.4789C314.306 53.7554 314.161 54.7363 313.608 55.8555C313.608 55.8555 312.739 57.633 310.836 59.0945C310.145 59.6277 308.651 60.5691 306.156 60.7337C305.912 60.635 305.537 60.5033 305.063 60.4243C304.385 60.3124 303.437 60.1478 302.798 60.6942C302.508 60.9444 302.186 61.4184 302.331 61.7081C302.508 62.0636 303.298 61.9253 304.595 61.8661C306.393 61.7871 306.307 61.9846 307.558 61.9056C308.677 61.8331 310.441 61.7278 312.278 60.6547C314.036 59.6343 314.944 58.2716 315.162 57.9226C315.583 57.2643 315.774 56.7311 316.162 55.658C316.676 54.2491 316.59 53.9331 316.445 53.7488C316.195 53.4065 315.59 53.3209 315.129 53.4789Z" fill="white" stroke="#161616" stroke-width="0.131667" stroke-miterlimit="10"/>
<path d="M305.372 60.9377C304.957 61.0167 304.358 61.0364 304.055 61.3787C303.884 61.5762 303.91 61.9252 304.226 61.9252C304.318 61.9252 304.325 61.7737 304.226 61.7737C304.068 61.6092 304.081 61.4775 304.279 61.3853C304.345 61.3392 304.417 61.3063 304.496 61.2734C304.582 61.2405 304.667 61.2207 304.753 61.201C304.97 61.1549 305.187 61.1154 305.411 61.0759C305.503 61.0627 305.464 60.9245 305.372 60.9377Z" fill="#161616"/>
<path d="M302.265 61.55C302.653 62.0371 303.259 61.471 303.726 61.596C303.818 61.6224 303.858 61.4775 303.766 61.4512C303.562 61.3985 303.384 61.4249 303.18 61.4907C302.91 61.5763 302.581 61.7211 302.363 61.4446C302.311 61.3722 302.205 61.4775 302.265 61.55Z" fill="#161616"/>
<path d="M302.501 60.951C302.514 61.1485 302.646 61.2275 302.837 61.2275C303.265 61.2275 303.64 61.0563 304.068 61.1945C304.16 61.2209 304.2 61.0826 304.108 61.0497C303.89 60.9773 303.68 60.9707 303.456 60.9905C303.298 61.0036 302.666 61.1814 302.653 60.9444C302.639 60.8588 302.495 60.8588 302.501 60.951Z" fill="#161616"/>
<path d="M303.146 60.5427C303.212 60.7007 303.324 60.7731 303.495 60.7994C303.831 60.8455 304.121 60.8587 304.43 60.9969C304.516 61.0364 304.595 60.9048 304.503 60.8719C304.331 60.7994 304.16 60.7336 303.976 60.7007C303.765 60.6612 303.377 60.727 303.285 60.5032C303.252 60.4176 303.107 60.4571 303.146 60.5427Z" fill="#161616"/>
<path opacity="0.16" d="M315.926 53.4987C315.55 53.5909 315.662 54.5981 315.465 55.5329C315.136 57.0405 314.062 57.9819 312.877 59.0221C312.074 59.7265 311.133 60.556 309.698 60.9247C309.204 61.0498 308.388 61.188 307.512 61.2341C306.327 61.2934 305.741 61.3263 305.702 61.3197C305.504 61.3 305.024 61.2473 304.51 61.4711C304.405 61.5172 304.115 61.6423 304.135 61.7345C304.161 61.8727 304.846 61.8332 306.386 61.82C307.525 61.8134 307.407 61.8332 307.756 61.82C308.414 61.7937 309.559 61.7542 310.85 61.2868C312.687 60.6285 313.819 59.4632 314.339 58.9234C314.839 58.3967 315.116 57.9885 315.201 57.8635C315.61 57.2512 315.8 56.7048 316.176 55.6317C316.61 54.3809 316.61 54.0517 316.439 53.7949C316.321 53.6435 316.103 53.4526 315.926 53.4987Z" fill="#6D6C6C"/>
<path opacity="0.13" d="M302.442 61.7609C302.488 61.6424 302.686 61.1552 303.213 60.8985C304.003 60.5232 304.773 61.0301 304.806 61.0499C304.635 61.1421 304.49 61.2079 304.384 61.2474C304.22 61.3198 304.154 61.333 304.095 61.3988C303.996 61.5239 304.022 61.7082 304.049 61.8201C303.838 61.8662 303.562 61.8991 303.232 61.886C302.916 61.8794 302.646 61.8201 302.442 61.7609Z" fill="#6D6C6C"/>
<path opacity="0.14" d="M316.432 54.5784C316.156 55.5 315.55 57.0537 314.22 58.5547C312.41 60.6021 310.283 61.3987 309.315 61.695C310.059 61.5633 312.824 60.9774 314.773 58.4494C315.925 56.9484 316.294 55.421 316.432 54.5784Z" fill="#6D6C6C"/>
<path d="M314.905 53.5318C314.49 53.9861 314.194 54.5852 314.003 56.7972C313.72 60.0296 314.167 60.7735 313.667 62.3733C313.437 63.104 312.963 64.1639 311.863 65.3028C312.64 65.8032 313.898 66.4878 315.583 66.8828C317.248 67.2713 318.664 67.212 319.586 67.1067C320.771 63.4661 320.672 60.5233 320.428 58.7129C320.198 56.9881 319.678 53.0183 317.611 52.518C316.63 52.2744 315.517 52.8669 314.905 53.5318Z" fill="white" stroke="#161616" stroke-width="0.131667" stroke-miterlimit="10"/>
<path opacity="0.12" d="M317.083 52.5315C317.051 52.8014 317.004 53.203 316.958 53.6836C316.649 56.9028 317.011 57.4887 316.774 59.3847C316.642 60.4644 316.366 62.4855 314.944 64.3683C314.351 65.1517 313.726 65.6982 313.278 66.0339C313.996 66.396 315.089 66.8502 316.484 67.0609C317.735 67.2452 318.795 67.1728 319.546 67.0609C319.756 66.4552 320.006 65.6323 320.204 64.6448C320.573 62.8147 320.599 61.2544 320.553 60.1747C320.467 58.0878 320.276 53.6112 317.985 52.6961C317.63 52.5578 317.307 52.5315 317.083 52.5315Z" fill="#6D6C6C"/>
<path opacity="0.24" d="M320.508 61.985C320.429 61.9719 320.244 62.7882 319.974 63.5255C319.632 64.4801 318.987 65.7639 317.65 67.1529C318.296 67.12 318.947 67.0937 319.592 67.0608C319.81 66.3629 320.086 65.3228 320.31 64.039C320.455 63.1766 320.606 62.0048 320.508 61.985Z" fill="#6D6C6C"/>
<path d="M318.815 53.4462C319.559 53.5911 319.875 54.7695 320.138 55.8031C320.402 56.8432 320.909 58.9631 320.198 61.7544C319.901 62.9065 319.638 63.9796 318.723 65.0658C317.531 66.4878 316.011 67.0408 315.3 67.2449C314.51 67.7913 314.101 68.0678 313.871 68.2126C313.706 68.318 313.608 68.3772 313.43 68.5023C313.173 68.6866 313.127 68.7459 313.002 68.7986C312.87 68.8512 312.66 68.8907 312.344 68.792C312.317 68.7986 312.113 68.8249 311.962 68.6735C311.87 68.5813 311.85 68.476 311.85 68.4299C311.83 68.4299 311.705 68.4167 311.619 68.3114C311.54 68.2126 311.534 68.0744 311.593 67.9559C311.567 67.9032 311.54 67.8308 311.54 67.7386C311.508 67.2778 312.054 66.9091 312.357 66.6985C312.679 66.4746 313.318 66.1191 314.305 66.027C314.839 65.7439 315.635 65.237 316.34 64.3877C316.564 64.1244 318.058 62.2679 317.939 59.7728C317.893 58.7261 317.518 56.7774 317.307 54.9604C317.294 54.8287 317.255 54.4732 317.446 54.1309C317.722 53.6635 318.354 53.3606 318.815 53.4462Z" fill="white" stroke="#161616" stroke-width="0.131667" stroke-miterlimit="10"/>
<path d="M311.613 68.0021C311.705 68.0021 311.712 67.8507 311.613 67.8507C311.521 67.8507 311.521 68.0021 311.613 68.0021Z" fill="#161616"/>
<path d="M311.54 67.9231C311.54 67.9362 311.54 67.9494 311.54 67.9691C311.547 68.0481 311.632 68.0679 311.678 68.0086C311.942 67.6597 312.297 67.403 312.712 67.2713C312.804 67.245 312.765 67.1001 312.673 67.1265C312.218 67.2713 311.836 67.5478 311.547 67.9296C311.593 67.9428 311.639 67.956 311.685 67.9691C311.685 67.956 311.685 67.9428 311.685 67.9231C311.685 67.8309 311.534 67.8309 311.54 67.9231Z" fill="#161616"/>
<path d="M311.909 68.4564C312.245 68.0746 312.659 67.7849 313.133 67.594C313.219 67.5611 313.186 67.4163 313.094 67.4492C312.594 67.6467 312.159 67.9429 311.804 68.3445C311.744 68.4235 311.85 68.5288 311.909 68.4564Z" fill="#161616"/>
<path d="M312.403 68.8118C312.745 68.4234 313.14 68.1008 313.588 67.8375C313.667 67.7914 313.594 67.6598 313.515 67.7124C313.061 67.9823 312.653 68.3115 312.304 68.7131C312.238 68.7789 312.344 68.8843 312.403 68.8118Z" fill="#161616"/>
<path opacity="0.13" d="M318.525 53.6966C318.275 54.0587 318.683 54.6973 318.914 55.1713C319.249 55.8691 319.302 56.6262 319.407 58.1404C319.598 60.8856 318.321 63.2359 318.229 63.4005C317.064 65.4742 315.253 66.7185 314.687 67.1003C313.726 67.7455 312.363 68.4499 312.475 68.7198C312.515 68.8185 312.732 68.8317 312.824 68.8251C313.14 68.812 313.272 68.5684 313.713 68.2589C313.943 68.0944 313.937 68.147 314.332 67.91C314.562 67.7718 314.891 67.5611 315.28 67.2649C316.162 67.0279 316.814 66.6658 317.222 66.4024C317.814 66.0206 318.953 65.145 319.651 63.6177C319.888 63.0976 319.98 62.6829 320.165 61.86C320.355 60.9975 320.658 59.5821 320.487 57.7783C320.408 56.9619 320.27 56.4155 320.079 55.698C319.783 54.5459 319.513 53.5518 318.999 53.486C318.828 53.4596 318.624 53.5584 318.525 53.6966Z" fill="#6D6C6C"/>
<path opacity="0.16" d="M320.402 57.2976C320.342 57.2976 320.356 57.9889 320.073 59.8256C319.816 61.4714 319.684 62.3141 319.322 63.0844C318.795 64.2035 318.078 64.9079 317.729 65.2437C316.735 66.2049 316.136 66.2707 314.615 67.3899C313.818 67.9758 313.226 68.509 312.877 68.8382C313.667 68.3115 314.45 67.7849 315.24 67.2648C315.965 67.0541 317.452 66.5011 318.651 65.0857C319.473 64.1114 319.796 63.1568 320.046 62.4129C320.902 59.7598 320.507 57.2976 320.402 57.2976Z" fill="#6D6C6C"/>
<path d="M315.859 50.5759C315.563 50.78 315.51 51.175 315.464 51.6095C315.418 52.0506 315.411 52.8208 315.813 53.7754C316.063 53.7754 316.372 53.7556 316.715 53.6898C316.985 53.6371 317.222 53.5647 317.419 53.4923C317.393 52.6167 317.373 51.7411 317.347 50.8656C316.794 50.4574 316.214 50.3323 315.859 50.5759Z" fill="white" stroke="#161616" stroke-width="0.131667" stroke-miterlimit="10"/>
<path d="M314.293 46.1848C313.832 46.4482 313.635 46.8892 313.246 47.7451C312.812 48.7194 312.509 49.5621 312.39 50.1809C312.371 50.2731 312.417 50.3652 312.502 50.4047C312.614 50.4574 312.812 50.4772 312.917 50.5035C312.917 50.7602 312.95 51.2013 313.18 51.6753C313.602 52.5377 314.378 52.8867 314.609 52.9788C315.34 52.8537 315.879 52.6036 316.202 52.4127C316.498 52.2481 316.88 52.0242 317.255 51.5897C317.591 51.1947 317.769 50.7997 317.861 50.5364C317.999 50.5364 318.21 50.5232 318.427 50.4047C318.875 50.1612 319.257 49.5226 319.02 49.1342C318.842 48.8511 318.355 48.7326 317.854 48.9169C317.861 48.7062 317.854 48.4166 317.782 48.0742C317.762 47.9887 317.624 47.3632 317.308 46.9222C316.702 46.0729 315.228 45.6516 314.293 46.1848Z" fill="white" stroke="#161616" stroke-width="0.131667" stroke-miterlimit="10"/>
<path d="M312.633 49.167C312.469 48.9103 312.107 48.2651 312.159 47.4093C312.179 47.1196 312.219 46.5666 312.62 46.0465C313.107 45.4145 313.786 45.2499 313.983 45.2104C314.075 45.059 314.233 44.8352 314.497 44.6509C314.602 44.5784 314.892 44.4007 315.603 44.3612C315.978 44.3414 316.551 44.3546 317.235 44.5521C317.768 44.7101 318.124 44.9339 318.341 45.1117C319.177 45.77 319.111 46.2901 320.171 47.3566C320.415 47.6002 320.586 47.6858 320.955 48.0479C321.343 48.4231 321.653 48.7852 321.824 49.0024C322.212 49.4962 322.943 50.431 323.081 51.695C323.127 52.1229 323.259 53.3277 322.508 54.2494C321.488 55.5068 319.184 55.6055 317.782 54.6049C317.518 54.4205 316.425 53.6305 316.485 52.3599C316.537 51.2144 317.492 50.5298 317.624 50.431C317.736 50.4771 317.966 50.5495 318.19 50.4705C318.657 50.2994 318.855 49.5818 318.611 49.2197C318.512 49.0749 318.354 49.0156 318.308 49.0024C317.926 48.8708 317.571 49.1539 317.545 49.1736C317.031 48.7984 316.643 48.4363 316.373 48.1532C316.004 47.7779 315.82 47.5278 315.754 47.4356C315.55 47.1459 315.398 46.8826 315.3 46.6851C314.997 46.7575 314.602 46.8958 314.187 47.1657C314.088 47.2249 313.759 47.4488 313.417 47.8372C313.377 47.8833 313.186 48.1005 312.982 48.4297C312.831 48.7128 312.712 48.9629 312.633 49.167Z" fill="#3F3F3F"/>
<path d="M313.977 49.7529C313.977 49.7463 313.977 49.7463 313.977 49.7529C313.977 49.7595 313.983 49.7727 313.983 49.7858V49.7924C313.977 49.8056 313.97 49.8122 313.964 49.8253C313.977 49.8122 313.964 49.8188 313.937 49.8385C313.924 49.8319 313.911 49.8319 313.898 49.8253C313.891 49.8188 313.885 49.8188 313.885 49.8122C313.878 49.799 313.878 49.7858 313.872 49.7727V49.7661C313.878 49.7529 313.885 49.7463 313.891 49.7332C313.904 49.7332 313.918 49.7266 313.931 49.7266C313.951 49.7463 313.964 49.7595 313.983 49.7793C313.983 49.7858 313.983 49.7924 313.983 49.799C313.95 49.8056 313.918 49.8188 313.885 49.8253L313.878 49.8188C313.872 49.8056 313.865 49.799 313.858 49.7858C313.865 49.7661 313.878 49.7463 313.885 49.7332C313.898 49.7266 313.911 49.7266 313.924 49.72H313.918C313.878 49.7266 313.845 49.7529 313.845 49.7924C313.845 49.8319 313.878 49.8714 313.918 49.8648C313.957 49.8583 313.997 49.8385 314.003 49.7924C314.016 49.7529 313.997 49.7068 313.957 49.6871C313.918 49.6673 313.878 49.6805 313.858 49.7134C313.819 49.7661 313.845 49.8517 313.911 49.8583C313.97 49.8648 314.023 49.8188 314.023 49.7595C314.023 49.7003 313.964 49.6608 313.904 49.6739C313.845 49.6937 313.819 49.7529 313.845 49.8122C313.865 49.8517 313.918 49.8583 313.944 49.8385C313.99 49.8319 313.99 49.7858 313.977 49.7529Z" fill="#161616"/>
<path d="M314.556 49.5951C314.569 49.6609 314.543 49.6543 314.484 49.5753C314.497 49.5688 314.503 49.5622 314.517 49.5556C314.543 49.5556 314.563 49.5688 314.576 49.6017C314.582 49.5622 314.536 49.5293 314.503 49.5293C314.457 49.5293 314.431 49.5622 314.431 49.6017C314.424 49.6609 314.484 49.707 314.536 49.7004C314.602 49.7004 314.642 49.6346 314.622 49.5753C314.602 49.5161 314.536 49.4832 314.477 49.5161C314.418 49.549 314.411 49.6083 314.438 49.6675C314.451 49.707 314.51 49.7136 314.536 49.6938C314.569 49.6741 314.576 49.6346 314.556 49.5951Z" fill="#161616"/>
<path d="M314.371 50.0296C314.41 50.0296 314.417 50.0427 314.391 50.0756C314.391 50.102 314.384 50.1151 314.364 50.1151C314.358 50.0888 314.358 50.0559 314.351 50.0296C314.371 50.023 314.384 50.023 314.404 50.0361C314.338 49.9637 314.233 50.0691 314.299 50.1415C314.345 50.1941 314.43 50.181 314.463 50.1217C314.496 50.0625 314.463 49.9901 314.404 49.9703C314.338 49.9506 314.272 49.9966 314.266 50.0625C314.266 50.1349 314.338 50.1876 314.404 50.1744C314.503 50.1481 314.463 50.0032 314.371 50.0296Z" fill="#161616"/>
<path d="M313.153 51.4647C313.561 51.3923 313.917 51.1553 314.147 50.8064C314.2 50.7274 314.075 50.655 314.022 50.734C313.811 51.05 313.495 51.254 313.12 51.3265C313.021 51.3396 313.061 51.4779 313.153 51.4647Z" fill="#161616"/>
<path opacity="0.1" d="M315.391 46.9023C315.51 47.1393 315.661 47.4553 315.833 47.8306C316.359 48.9761 316.418 49.2921 316.438 49.5686C316.465 49.9833 316.392 50.2993 316.333 50.5232C316.03 51.7477 315.141 52.564 314.7 52.9195C314.917 52.8932 315.181 52.8471 315.47 52.7483C315.918 52.5969 316.267 52.3928 316.504 52.2217C316.484 52.4258 316.484 52.7418 316.603 53.0973C316.734 53.5186 316.971 53.7819 317.169 54.0321C317.32 54.223 317.59 54.5258 318.018 54.7694C318.433 55.013 318.821 55.0986 319.058 55.1381C319.611 55.2632 320.072 55.25 320.382 55.2237C320.81 55.1842 321.488 55.1249 322.12 54.6378C322.278 54.5127 322.64 54.2296 322.857 53.7293C322.91 53.6108 322.989 53.3869 323.028 52.7944C323.074 52.0966 323.107 51.6094 322.943 50.9906C322.771 50.352 322.462 49.8583 322.159 49.4962C321.632 50.9116 320.362 51.7279 319.216 51.5568C318.321 51.4185 317.781 50.7141 317.623 50.4968C317.972 50.5758 318.328 50.4705 318.532 50.2138C318.775 49.9241 318.848 49.404 318.532 49.1275C318.282 48.9103 317.867 48.9037 317.557 49.1473C317.182 48.8773 316.754 48.5218 316.32 48.061C315.931 47.6594 315.628 47.2578 315.391 46.9023Z" fill="#6D6C6C"/>
<path d="M313.871 49.0419C313.832 48.9761 313.825 48.8773 313.891 48.8247C313.871 48.8313 313.858 48.8378 313.838 48.8444C313.845 48.8444 313.851 48.8444 313.858 48.8444C313.838 48.8378 313.825 48.8313 313.805 48.8247C313.871 48.8773 313.818 49.0814 313.792 49.1407C313.805 49.1275 313.818 49.1209 313.838 49.1078C313.832 49.1078 313.825 49.1143 313.825 49.1143C313.845 49.1143 313.864 49.1209 313.884 49.1209C313.845 49.1012 313.851 48.9958 313.858 48.9695C313.864 48.9103 313.878 48.8576 313.904 48.8115C313.871 48.8181 313.838 48.8313 313.805 48.8378C313.838 48.8642 313.845 48.9168 313.838 48.9563C313.838 48.9761 313.832 48.9958 313.825 49.009C313.818 49.0419 313.805 49.0419 313.838 49.0485C313.851 49.0617 313.864 49.0683 313.884 49.0814C313.884 49.0748 313.878 49.0748 313.878 49.0683C313.818 48.9958 313.693 49.0683 313.753 49.1407C313.785 49.1802 313.832 49.2065 313.884 49.1868C313.943 49.167 313.963 49.1078 313.976 49.0551C314.009 48.9234 314.009 48.7918 313.891 48.7062C313.858 48.6798 313.805 48.6996 313.792 48.7325C313.726 48.8642 313.687 49.0683 313.772 49.1999C313.805 49.2526 313.878 49.2789 313.93 49.2394C313.99 49.1933 313.996 49.0748 314.003 49.009C314.016 48.9103 313.996 48.6272 313.825 48.7128C313.687 48.7852 313.7 49.009 313.766 49.1209C313.792 49.1999 313.924 49.1209 313.871 49.0419Z" fill="#161616"/>
<path d="M313.569 48.3703C313.917 48.3111 314.214 48.502 314.484 48.7061C314.563 48.7653 314.635 48.6337 314.556 48.581C314.253 48.3506 313.924 48.1728 313.529 48.2321C313.437 48.2387 313.476 48.3835 313.569 48.3703Z" fill="#161616"/>
<path d="M313.963 50.7405C314.035 50.7866 314.101 50.8459 314.16 50.9117C314.226 50.9841 314.332 50.8788 314.266 50.8064C314.2 50.734 314.121 50.6681 314.035 50.6089C313.956 50.5562 313.884 50.6879 313.963 50.7405Z" fill="#161616"/>
</g>
<defs>
<clipPath id="clip0">
<rect width="324" height="94.9979" fill="white"/>
</clipPath>
</defs>
</svg>
