<svg width="316" height="71" viewBox="0 0 316 71" fill="none" xmlns="http://www.w3.org/2000/svg">
<g filter="url(#filter0_d)">
<rect x="9.5" y="9.5" width="293" height="47" rx="23.5" stroke="white"/>
</g>
<g filter="url(#filter1_d)">
<circle cx="33" cy="33" r="23" fill="white"/>
</g>
<path d="M43.6225 30.8781H42.7498V30.8332H32.9998V35.1665H39.1223C38.2291 37.689 35.829 39.4998 32.9998 39.4998C29.4102 39.4998 26.4998 36.5894 26.4998 32.9998C26.4998 29.4102 29.4102 26.4998 32.9998 26.4998C34.6568 26.4998 36.1643 27.1249 37.312 28.1459L40.3763 25.0817C38.4414 23.2785 35.8533 22.1665 32.9998 22.1665C27.0171 22.1665 22.1665 27.0171 22.1665 32.9998C22.1665 38.9825 27.0171 43.8332 32.9998 43.8332C38.9825 43.8332 43.8332 38.9825 43.8332 32.9998C43.8332 32.2734 43.7584 31.5644 43.6225 30.8781Z" fill="#FFC107"/>
<path d="M23.4155 27.9574L26.9748 30.5677C27.9379 28.1833 30.2703 26.4998 32.9998 26.4998C34.6567 26.4998 36.1642 27.1249 37.312 28.1459L40.3762 25.0817C38.4414 23.2785 35.8533 22.1665 32.9998 22.1665C28.8387 22.1665 25.2301 24.5157 23.4155 27.9574Z" fill="#FF3D00"/>
<path d="M33.0003 43.8332C35.7986 43.8332 38.3412 42.7623 40.2635 41.0209L36.9106 38.1836C35.7864 39.0386 34.4127 39.501 33.0003 39.4999C30.1826 39.4999 27.79 37.7032 26.8887 35.1958L23.356 37.9177C25.1489 41.426 28.79 43.8332 33.0003 43.8332Z" fill="#4CAF50"/>
<path d="M43.6226 30.8784H42.75V30.8335H33V35.1668H39.1225C38.6952 36.3674 37.9256 37.4165 36.9087 38.1844L36.9103 38.1834L40.2632 41.0206C40.026 41.2362 43.8333 38.4168 43.8333 33.0001C43.8333 32.2738 43.7586 31.5647 43.6226 30.8784Z" fill="#1976D2"/>
<defs>
<filter id="filter0_d" x="2" y="3" width="314" height="68" filterUnits="userSpaceOnUse" color-interpolation-filters="sRGB">
<feFlood flood-opacity="0" result="BackgroundImageFix"/>
<feColorMatrix in="SourceAlpha" type="matrix" values="0 0 0 0 0 0 0 0 0 0 0 0 0 0 0 0 0 0 127 0"/>
<feOffset dx="3" dy="4"/>
<feGaussianBlur stdDeviation="5"/>
<feColorMatrix type="matrix" values="0 0 0 0 1 0 0 0 0 0.580392 0 0 0 0 0.388235 0 0 0 0.25 0"/>
<feBlend mode="multiply" in2="BackgroundImageFix" result="effect1_dropShadow"/>
<feBlend mode="normal" in="SourceGraphic" in2="effect1_dropShadow" result="shape"/>
</filter>
<filter id="filter1_d" x="0" y="0" width="66" height="66" filterUnits="userSpaceOnUse" color-interpolation-filters="sRGB">
<feFlood flood-opacity="0" result="BackgroundImageFix"/>
<feColorMatrix in="SourceAlpha" type="matrix" values="0 0 0 0 0 0 0 0 0 0 0 0 0 0 0 0 0 0 127 0"/>
<feOffset/>
<feGaussianBlur stdDeviation="5"/>
<feColorMatrix type="matrix" values="0 0 0 0 0 0 0 0 0 0 0 0 0 0 0 0 0 0 0.1 0"/>
<feBlend mode="normal" in2="BackgroundImageFix" result="effect1_dropShadow"/>
<feBlend mode="normal" in="SourceGraphic" in2="effect1_dropShadow" result="shape"/>
</filter>
</defs>
</svg>
