<svg width="125" height="119" viewBox="0 0 125 119" fill="none" xmlns="http://www.w3.org/2000/svg">
<g clip-path="url(#clip0)">
<path opacity="0.2" d="M98.2665 48.6101C63.88 31.4386 45.2747 42.9377 30.9633 65.1064C25.6883 73.2774 11.5 78.5 11.5 78.5C-2.03944 86.2767 11.061 109.915 11.5001 110.047C18.6412 122.997 90.9688 114.418 117.254 69.1825C122.831 51.7002 120.206 46.1206 98.2665 48.6101Z" fill="#FF9463"/>
<path d="M75.6583 6.67653L10.5345 20.6494L29.841 110.627L94.9647 96.6544L75.6583 6.67653Z" fill="#E0E0E0"/>
<g opacity="0.5">
<path opacity="0.5" d="M74.8849 8.43393L11.9622 21.9346L30.616 108.871L93.5387 95.3703L74.8849 8.43393Z" fill="url(#paint0_linear)"/>
</g>
<path d="M74.2204 9.24578L12.8997 22.4027L31.1414 107.418L92.4621 94.2614L74.2204 9.24578Z" fill="#FAFAFA"/>
<path d="M58.0599 8.8579L27.6394 15.3849L29.2205 22.7536L59.641 16.2267L58.0599 8.8579Z" fill="url(#paint1_linear)"/>
<path d="M57.6717 8.61062L27.892 15.0001L29.4034 22.044L59.1831 15.6545L57.6717 8.61062Z" fill="#2980C3"/>
<path d="M105.911 17.8177H39.3048V109.843H105.911V17.8177Z" fill="#E0E0E0"/>
<g opacity="0.5">
<path opacity="0.5" d="M104.786 19.3739H40.4312V108.289H104.786V19.3739Z" fill="url(#paint2_linear)"/>
</g>
<path d="M103.966 20.0292H41.2495V106.98H103.966V20.0292Z" fill="white"/>
<path d="M88.2465 16.2587H57.1337V23.7951H88.2465V16.2587Z" fill="url(#paint3_linear)"/>
<path d="M87.9188 15.9355H57.4613V23.1398H87.9188V15.9355Z" fill="#FF9463"/>
<g opacity="0.5">
<path opacity="0.5" d="M2.90033 112.331H2.32727V115.581H2.90033V112.331Z" fill="#47E6B1"/>
<path opacity="0.5" d="M4.24011 114.243V113.67H0.989228V114.243H4.24011Z" fill="#47E6B1"/>
</g>
<g opacity="0.5">
<path opacity="0.5" d="M69.3844 0H68.8113V3.25082H69.3844V0Z" fill="#47E6B1"/>
<path opacity="0.5" d="M70.724 1.91117V1.33813L67.4731 1.33813V1.91117L70.724 1.91117Z" fill="#47E6B1"/>
</g>
<path opacity="0.5" d="M117.52 117.743C117.362 117.674 117.234 117.549 117.162 117.393C117.09 117.236 117.078 117.059 117.128 116.894C117.136 116.869 117.141 116.843 117.143 116.816C117.148 116.741 117.128 116.666 117.087 116.602C117.045 116.539 116.985 116.491 116.914 116.465C116.843 116.438 116.765 116.436 116.693 116.457C116.62 116.478 116.556 116.523 116.511 116.583C116.495 116.604 116.482 116.627 116.471 116.651C116.402 116.81 116.278 116.937 116.121 117.009C115.965 117.081 115.787 117.093 115.622 117.043C115.597 117.035 115.571 117.03 115.545 117.028C115.469 117.023 115.394 117.043 115.331 117.085C115.267 117.126 115.219 117.187 115.193 117.258C115.167 117.329 115.164 117.406 115.186 117.479C115.207 117.551 115.251 117.615 115.311 117.66C115.333 117.676 115.356 117.69 115.38 117.7C115.538 117.769 115.665 117.893 115.737 118.05C115.81 118.206 115.822 118.384 115.772 118.549C115.763 118.574 115.758 118.6 115.756 118.627C115.752 118.702 115.772 118.777 115.813 118.84C115.854 118.904 115.915 118.952 115.986 118.978C116.057 119.004 116.134 119.007 116.207 118.986C116.28 118.964 116.343 118.92 116.389 118.86C116.405 118.839 116.418 118.816 116.428 118.791C116.497 118.633 116.622 118.506 116.778 118.434C116.935 118.362 117.112 118.349 117.277 118.4C117.303 118.408 117.329 118.413 117.355 118.415C117.431 118.419 117.506 118.399 117.569 118.358C117.632 118.317 117.68 118.256 117.707 118.185C117.733 118.114 117.735 118.037 117.714 117.964C117.693 117.892 117.649 117.828 117.588 117.782C117.567 117.766 117.544 117.753 117.52 117.743Z" fill="#4D8AF0"/>
<path opacity="0.5" d="M20.8298 86.4903C20.6717 86.4215 20.5445 86.297 20.4722 86.1404C20.4 85.9839 20.3879 85.8063 20.4381 85.6414C20.4462 85.6162 20.4513 85.5901 20.4533 85.5637C20.4579 85.4882 20.438 85.4132 20.3966 85.3499C20.3553 85.2866 20.2946 85.2383 20.2237 85.2122C20.1527 85.186 20.0753 85.1834 20.0027 85.2047C19.9301 85.226 19.8664 85.2701 19.8208 85.3305C19.805 85.3517 19.7917 85.3747 19.7812 85.3991C19.7124 85.5571 19.5879 85.6844 19.4314 85.7566C19.2748 85.8288 19.0972 85.841 18.9323 85.7907C18.9071 85.7826 18.881 85.7775 18.8546 85.7755C18.7791 85.771 18.7041 85.7908 18.6408 85.8322C18.5775 85.8735 18.5292 85.9342 18.5031 86.0051C18.4769 86.0761 18.4743 86.1536 18.4956 86.2261C18.5169 86.2987 18.561 86.3624 18.6214 86.408C18.6426 86.4238 18.6656 86.4371 18.69 86.4476C18.848 86.5164 18.9753 86.6409 19.0475 86.7974C19.1197 86.954 19.1319 87.1316 19.0817 87.2965C19.0735 87.3217 19.0684 87.3478 19.0664 87.3742C19.0619 87.4497 19.0817 87.5246 19.1231 87.5879C19.1645 87.6513 19.2251 87.6996 19.2961 87.7257C19.367 87.7519 19.4445 87.7545 19.5171 87.7332C19.5896 87.7119 19.6534 87.6678 19.6989 87.6074C19.7148 87.5862 19.7281 87.5631 19.7385 87.5388C19.8073 87.3808 19.9319 87.2535 20.0884 87.1813C20.2449 87.1091 20.4225 87.0969 20.5875 87.1471C20.6127 87.1552 20.6388 87.1604 20.6652 87.1624C20.7407 87.1669 20.8156 87.1471 20.8789 87.1057C20.9422 87.0643 20.9905 87.0037 21.0167 86.9327C21.0428 86.8618 21.0455 86.7843 21.0242 86.7118C21.0028 86.6392 20.9587 86.5754 20.8984 86.5299C20.8771 86.514 20.8541 86.5008 20.8298 86.4903Z" fill="#FDD835"/>
<path opacity="0.5" d="M123.854 49.0748C124.488 49.0748 125.002 48.561 125.002 47.9272C125.002 47.2933 124.488 46.7795 123.854 46.7795C123.22 46.7795 122.706 47.2933 122.706 47.9272C122.706 48.561 123.22 49.0748 123.854 49.0748Z" fill="#F55F44"/>
<path opacity="0.5" d="M35.1655 114.941C35.7993 114.941 36.3131 114.428 36.3131 113.794C36.3131 113.16 35.7993 112.646 35.1655 112.646C34.5316 112.646 34.0178 113.16 34.0178 113.794C34.0178 114.428 34.5316 114.941 35.1655 114.941Z" fill="#F55F44"/>
<path opacity="0.5" d="M118.148 96.2952C118.781 96.2952 119.295 95.7814 119.295 95.1476C119.295 94.5138 118.781 94 118.148 94C117.514 94 117 94.5138 117 95.1476C117 95.7814 117.514 96.2952 118.148 96.2952Z" fill="#F55F44"/>
<path opacity="0.5" d="M13.2809 15.832C13.9148 15.832 14.4286 15.3182 14.4286 14.6844C14.4286 14.0505 13.9148 13.5367 13.2809 13.5367C12.6471 13.5367 12.1333 14.0505 12.1333 14.6844C12.1333 15.3182 12.6471 15.832 13.2809 15.832Z" fill="#4D8AF0"/>
<path opacity="0.5" d="M1.14764 47.1376C1.78147 47.1376 2.29528 46.6238 2.29528 45.99C2.29528 45.3562 1.78147 44.8424 1.14764 44.8424C0.513817 44.8424 0 45.3562 0 45.99C0 46.6238 0.513817 47.1376 1.14764 47.1376Z" fill="#47E6B1"/>
</g>
<defs>
<linearGradient id="paint0_linear" x1="62.0766" y1="102.121" x2="43.4236" y2="15.1842" gradientUnits="userSpaceOnUse">
<stop stop-color="#808080" stop-opacity="0.25"/>
<stop offset="0.54" stop-color="#808080" stop-opacity="0.12"/>
<stop offset="1" stop-color="#808080" stop-opacity="0.1"/>
</linearGradient>
<linearGradient id="paint1_linear" x1="16735.5" y1="-2179.24" x2="16657.3" y2="-2543.62" gradientUnits="userSpaceOnUse">
<stop stop-color="#808080" stop-opacity="0.25"/>
<stop offset="0.54" stop-color="#808080" stop-opacity="0.12"/>
<stop offset="1" stop-color="#808080" stop-opacity="0.1"/>
</linearGradient>
<linearGradient id="paint2_linear" x1="30699.1" y1="63196.2" x2="30699.1" y2="11322.3" gradientUnits="userSpaceOnUse">
<stop stop-color="#808080" stop-opacity="0.25"/>
<stop offset="0.54" stop-color="#808080" stop-opacity="0.12"/>
<stop offset="1" stop-color="#808080" stop-opacity="0.1"/>
</linearGradient>
<linearGradient id="paint3_linear" x1="14896.1" y1="1192.93" x2="14896.1" y2="820.249" gradientUnits="userSpaceOnUse">
<stop stop-color="#808080" stop-opacity="0.25"/>
<stop offset="0.54" stop-color="#808080" stop-opacity="0.12"/>
<stop offset="1" stop-color="#808080" stop-opacity="0.1"/>
</linearGradient>
<clipPath id="clip0">
<rect width="125" height="119" fill="white"/>
</clipPath>
</defs>
</svg>
