<svg width="323" height="131" viewBox="0 0 323 131" fill="none" xmlns="http://www.w3.org/2000/svg">
<g clip-path="url(#clip0)">
<rect width="322.941" height="131" fill="#C4C4C4"/>
<rect width="322.941" height="131" fill="#0F66A9"/>
<path fill-rule="evenodd" clip-rule="evenodd" d="M243.974 0C266.991 14.1189 291.871 33.8226 292.89 51.0514C294.684 81.3934 267.772 123.776 229.647 125.221C201.766 126.277 75.3024 125.804 0 125.348V131H322.941V0H243.974Z" fill="#065DA0"/>
<g clip-path="url(#clip1)">
<path d="M307.13 64.1629C307.147 70.0908 306.067 75.9641 303.952 81.4472C301.836 86.9302 298.727 91.9156 294.802 96.1183C294.369 96.582 293.927 97.035 293.475 97.4772C292.93 98.0123 292.372 98.5311 291.799 99.0335C291.69 99.1302 291.581 99.2255 291.47 99.3193C289.208 101.272 286.759 102.964 284.162 104.367C284.008 104.449 283.854 104.532 283.699 104.613C283.453 104.742 283.205 104.868 282.956 104.991C273.754 109.552 263.288 110.309 253.592 107.114C236.615 101.502 224.266 84.3958 224.266 64.1629C224.266 39.3659 242.815 19.2647 265.698 19.2647C288.58 19.2647 307.13 39.3659 307.13 64.1629Z" fill="#00579A" fill-opacity="0.63"/>
<path d="M266.263 49.9281L266.296 49.9267L266.166 49.6233C266.02 49.1935 265.842 48.777 265.633 48.3778L261.828 39.4779C261.706 39.1939 261.509 38.9538 261.262 38.7871C261.014 38.6204 260.726 38.5344 260.433 38.5396L255.613 38.6251C255.301 38.6306 254.999 38.7391 254.748 38.9355C254.496 39.1319 254.309 39.4065 254.21 39.7215L251.18 49.4139C251.08 49.6853 250.994 49.962 250.921 50.2429L250.818 50.572L250.842 50.571C250.562 51.8492 250.562 53.1792 250.843 54.4573C251.124 55.7354 251.678 56.9271 252.463 57.9395C253.248 58.9518 254.241 59.7575 255.366 60.2938C256.491 60.83 257.717 61.0823 258.949 61.0309C260.18 60.9796 261.384 60.626 262.466 59.9977C263.549 59.3695 264.48 58.4835 265.188 57.4089C265.896 56.3343 266.361 55.1001 266.548 53.8025C266.734 52.5049 266.637 51.179 266.263 49.9281H266.263Z" fill="#FFC107"/>
<path d="M257.28 40.8016L255.764 49.6319L255.935 49.6652L257.451 40.835L257.28 40.8016Z" fill="#6C63FF"/>
<path d="M259.103 40.7691L258.933 40.8085L260.723 49.5804L260.893 49.5411L259.103 40.7691Z" fill="#6C63FF"/>
<path d="M255.088 34.2789L261.264 34.1693C261.31 34.1685 261.354 34.1872 261.387 34.2214C261.421 34.2556 261.44 34.3024 261.44 34.3515C261.441 34.4007 261.424 34.4481 261.392 34.4834C261.359 34.5188 261.316 34.5391 261.269 34.5399L255.093 34.6495C255.071 34.6499 255.048 34.6455 255.027 34.6365C255.005 34.6276 254.986 34.6143 254.97 34.5974C254.953 34.5805 254.94 34.5603 254.931 34.5379C254.922 34.5156 254.917 34.4916 254.917 34.4673C254.916 34.4429 254.92 34.4188 254.929 34.3961C254.937 34.3735 254.95 34.3528 254.965 34.3353C254.981 34.3178 255 34.3039 255.021 34.2942C255.042 34.2845 255.065 34.2793 255.088 34.2789V34.2789Z" fill="#3F3D56"/>
<path d="M255.153 35.6678L261.329 35.5583C261.375 35.5574 261.42 35.5762 261.453 35.6103C261.486 35.6445 261.505 35.6913 261.506 35.7405C261.507 35.7896 261.489 35.8371 261.457 35.8724C261.425 35.9077 261.381 35.928 261.335 35.9288L255.159 36.0384C255.113 36.0392 255.068 36.0205 255.035 35.9863C255.002 35.9522 254.983 35.9054 254.982 35.8562C254.981 35.8071 254.999 35.7596 255.031 35.7243C255.063 35.689 255.107 35.6687 255.153 35.6678Z" fill="#FFC107"/>
<path d="M255.218 37.0567L261.394 36.9471C261.44 36.9463 261.485 36.965 261.518 36.9992C261.551 37.0334 261.57 37.0802 261.571 37.1293C261.572 37.1785 261.554 37.2259 261.522 37.2612C261.49 37.2966 261.446 37.3169 261.4 37.3177L255.224 37.4273C255.178 37.4281 255.133 37.4094 255.1 37.3752C255.067 37.341 255.048 37.2942 255.047 37.2451C255.046 37.1959 255.064 37.1485 255.096 37.1131C255.128 37.0778 255.172 37.0575 255.218 37.0567V37.0567Z" fill="#FFC107"/>
<path d="M258.155 32.9025C256.93 32.9242 255.949 33.669 255.963 34.566L260.399 34.4873C260.385 33.5903 259.38 32.8807 258.155 32.9025Z" fill="#3F3D56"/>
<path d="M258.838 50.936C259.08 50.9534 259.309 51.0578 259.488 51.232C259.534 51.2725 259.579 51.315 259.624 51.3575C259.767 51.5166 259.943 51.6388 260.137 51.7148C260.562 51.8383 260.982 51.4803 261.336 51.1138L261.457 51.2467C261.068 51.6497 260.601 52.0416 260.091 51.8936C259.871 51.811 259.672 51.675 259.509 51.4964C259.465 51.4551 259.422 51.4139 259.377 51.3746C259.232 51.2462 258.951 51.0464 258.701 51.15C258.598 51.2038 258.506 51.2795 258.43 51.3726C258.372 51.4378 258.309 51.4981 258.242 51.5529C258.105 51.6565 257.943 51.7146 257.774 51.72C257.606 51.7253 257.441 51.6776 257.298 51.5828C257.247 51.5464 257.198 51.507 257.15 51.4648C257.073 51.383 256.977 51.3246 256.871 51.2954C256.723 51.2733 256.589 51.3857 256.446 51.5046C256.312 51.644 256.14 51.7351 255.954 51.7651C255.948 51.7655 255.941 51.7657 255.935 51.7658C255.588 51.772 255.368 51.4026 255.232 51.1218L255.387 51.0369C255.572 51.4186 255.75 51.5926 255.945 51.58C256.094 51.5496 256.231 51.4726 256.339 51.3588C256.504 51.2212 256.674 51.079 256.895 51.1119C257.033 51.1438 257.159 51.2161 257.26 51.3207C257.302 51.3586 257.346 51.394 257.392 51.4268C257.505 51.5007 257.637 51.5378 257.769 51.5336C257.902 51.5294 258.031 51.4841 258.14 51.4032C258.199 51.354 258.255 51.3 258.307 51.2416C258.399 51.1297 258.512 51.0397 258.638 50.9774C258.702 50.951 258.769 50.937 258.838 50.936V50.936Z" fill="#6C63FF"/>
<path d="M258.352 15.2328H258.171V33.4259H258.352V15.2328Z" fill="#3F3D56"/>
<path fill-rule="evenodd" clip-rule="evenodd" d="M288.999 101.293C287.455 102.433 285.839 103.46 284.162 104.367L284.161 104.367C284.008 104.45 283.854 104.532 283.699 104.613C283.689 104.619 283.678 104.624 283.668 104.629L265.53 105.949L273.155 91.1471L284.368 90.25L288.999 101.293Z" fill="#C4C4C4"/>
<path d="M288.999 101.293L289.266 101.654L289.549 101.445L289.413 101.12L288.999 101.293ZM284.162 104.367L284.374 104.762L284.375 104.761L284.162 104.367ZM284.161 104.367L283.95 103.972L283.949 103.972L284.161 104.367ZM283.699 104.613L283.491 104.216L283.491 104.216L283.699 104.613ZM283.668 104.629L283.701 105.077L283.793 105.07L283.876 105.027L283.668 104.629ZM265.53 105.949L265.131 105.743L264.765 106.454L265.562 106.396L265.53 105.949ZM273.155 91.1471L273.119 90.7L272.87 90.7199L272.756 90.9417L273.155 91.1471ZM284.368 90.25L284.782 90.0766L284.656 89.777L284.332 89.8029L284.368 90.25ZM288.733 100.933C287.206 102.06 285.607 103.076 283.949 103.972L284.375 104.761C286.071 103.845 287.705 102.806 289.266 101.654L288.733 100.933ZM283.95 103.971L283.95 103.972L284.373 104.763L284.374 104.762L283.95 103.971ZM283.949 103.972C283.795 104.055 283.644 104.136 283.491 104.216L283.907 105.011C284.064 104.928 284.22 104.845 284.374 104.762L283.949 103.972ZM283.491 104.216C283.481 104.221 283.471 104.227 283.46 104.232L283.876 105.027C283.886 105.021 283.897 105.016 283.907 105.011L283.491 104.216ZM283.636 104.182L265.497 105.501L265.562 106.396L283.701 105.077L283.636 104.182ZM265.929 106.154L273.554 91.3525L272.756 90.9417L265.131 105.743L265.929 106.154ZM273.191 91.5942L284.404 90.6971L284.332 89.8029L273.119 90.7L273.191 91.5942ZM283.954 90.4235L288.585 101.467L289.413 101.12L284.782 90.0766L283.954 90.4235Z" fill="#D0CDE1"/>
<path fill-rule="evenodd" clip-rule="evenodd" d="M282.12 59.6357C283.256 58.2124 284.025 56.4682 283.896 54.5137C283.526 48.8822 276.183 50.121 274.754 52.9633C273.326 55.8056 273.495 63.0153 275.342 63.5233C276.078 63.7259 277.646 63.2296 279.243 62.2025L278.241 69.7695H284.157L282.12 59.6357Z" fill="#B28B67"/>
<path fill-rule="evenodd" clip-rule="evenodd" d="M276.088 51.0891C276.224 51.0027 276.507 50.8206 276.651 50.7546C276.685 50.7387 276.923 50.5575 276.929 50.5598C277.109 50.6247 277.631 50.8643 277.676 51.0713C277.683 51.087 277.69 51.1017 277.696 51.1145C277.77 51.258 277.838 51.4051 277.903 51.5539C278.045 51.8806 278.167 52.222 278.284 52.5608C278.513 53.2206 278.711 53.8957 278.893 54.5724C279.078 55.2612 279.236 55.9581 279.412 56.6498C279.665 57.6451 279.99 58.616 280.242 59.6109C280.402 60.2461 280.492 60.8888 280.45 61.5427C280.449 61.5505 280.449 61.5583 280.448 61.5663C280.448 61.5695 280.448 61.5728 280.447 61.5761C280.44 61.6766 280.43 61.7773 280.416 61.8784C280.404 61.9648 280.392 62.0515 280.38 62.1382C280.15 61.6487 279.974 61.1092 279.788 60.5972C279.769 60.5471 279.752 60.4966 279.735 60.446C279.675 60.3421 279.614 60.2391 279.552 60.1364C279.161 59.4887 278.769 58.8435 278.394 58.1842C277.721 56.9984 277.053 55.7874 276.254 54.6985C276.018 54.3769 275.777 54.0603 275.544 53.7361C275.412 53.5516 275.283 53.3641 275.158 53.1732C275.068 53.0366 274.68 52.5608 274.821 52.2749C274.893 52.1287 275.737 51.3131 276.088 51.0891Z" fill="#EBEBEB"/>
<path fill-rule="evenodd" clip-rule="evenodd" d="M276.607 50.7783C276.475 50.8256 276.539 50.5329 276.667 50.4299C277.258 49.9526 279.519 49.7794 281.487 50.2154C282.805 50.5075 284.337 51.2344 285.39 52.1689C286.339 53.0114 286.992 54.3619 287.328 55.6667C287.68 57.0368 287.734 58.4652 287.537 59.8701C287.494 60.1787 287.401 60.4728 287.35 60.7749C287.291 61.1151 287.262 61.4426 287.158 61.7735C287.094 61.9761 286.986 62.1747 286.932 62.3785C286.87 62.611 286.908 62.8261 286.953 63.0626C287.027 63.4481 287.118 63.8328 287.247 64.2009C287.442 64.7537 287.678 65.2715 287.826 65.8451C288.023 66.6084 288.848 69.0923 288.245 69.7694H276.778C277.067 68.9285 277.934 67.939 278.109 67.0389C278.212 66.5087 278.262 65.3507 278.272 65.3087C278.531 63.4071 279.035 62.499 279.351 62.1694C279.667 61.8399 280.088 61.7385 280.11 61.4527C280.2 60.2704 279.759 59.1375 279.436 58.0341C279.051 56.719 278.769 55.3712 278.373 54.0606C278.197 53.4802 277.291 50.5329 276.607 50.7783Z" fill="#2980C3"/>
<path fill-rule="evenodd" clip-rule="evenodd" d="M280.629 52.1383C281.061 53.603 281.154 54.3848 281.061 56.3861H281.273C281.67 54.4975 281.317 52.7196 280.895 52.1383H280.629ZM286.43 55.9183C285.624 58.0056 285.257 59.2381 283.007 60.9272L283.18 61.0571C285.414 59.7056 286.065 58.0935 286.6 56.0052L286.43 55.9183ZM283.119 53.7941C282.753 56.7568 282.646 58.4491 280.74 61.6899L280.943 61.7562C282.905 58.9344 283.216 56.6313 283.309 53.8104L283.119 53.7941ZM285.225 62.5948L285.052 62.3696C282.684 63.1615 282.947 64.7963 279.964 66.452L280.214 66.6132C282.826 65.4625 283.436 62.9946 285.225 62.5948Z" fill="black" fill-opacity="0.2"/>
<path fill-rule="evenodd" clip-rule="evenodd" d="M263.081 88.3107L256.098 95.5827C254.066 96.5079 252.402 97.5295 251.104 98.6475C250.812 99.0233 250.494 99.7433 251.867 99.4211C253.241 99.0989 254.698 98.8259 254.957 99.3026C255.215 99.7793 254.454 100.51 254.931 101.134C255.249 101.55 256.318 100.227 258.139 97.1648L265.401 92.5947L263.081 88.3107ZM297.228 81.7292L291.83 81.7508C295.942 95.9697 298.124 103.414 298.377 104.085C298.948 105.594 297.741 107.892 297.225 109.127C298.906 109.93 298.727 106.956 300.847 108.01C302.783 108.971 304.256 110.713 306.492 109.24C306.767 109.059 307.068 108.377 306.34 107.844C304.527 106.516 301.913 104.193 301.56 103.428C301.078 102.385 299.634 95.1521 297.228 81.7292Z" fill="#B28B67"/>
<path fill-rule="evenodd" clip-rule="evenodd" d="M280.78 65.3835L278.648 64.9932C275.29 77.6642 258.038 86.3013 256.979 91.038C256.59 92.7751 257.761 93.6532 257.156 94.1823L259.927 96.3475C260.396 95.7631 261.397 96.832 263.488 96.0843C265.579 95.3366 280.78 80.387 280.78 65.3835Z" fill="#FF9463"/>
<path fill-rule="evenodd" clip-rule="evenodd" d="M277.194 67.068C277.44 83.8435 268.356 88.1226 270.379 94.8522C272.05 100.409 288.044 106.383 290.811 100.936C291.932 98.731 292.44 96.0642 292.498 93.1648C293.205 95.3923 293.764 97.3099 294.176 98.9177C294.886 101.691 297.638 102.132 297.638 103.201L301.264 102.132C301.018 100.681 302.728 99.9737 302.269 96.7308C300.216 82.2005 294.698 71.6679 285.716 65.1331L285.623 63.7146C285.585 63.1347 285.114 62.6975 284.571 62.738L277.931 63.2336C277.388 63.2742 276.979 63.7772 277.017 64.3571L277.194 67.068Z" fill="#FF9463"/>
<path d="M241.468 77.6121L234.569 79.3922L234.547 79.3979L233.797 80.1209L233.581 80.3287L233.118 80.2394L232.299 80.0818L232.87 78.03L232.977 74.1166L232.585 71.7229L234.761 70.1271C234.761 70.1271 239.006 69.8612 241.468 77.6121Z" fill="#D0CDE1"/>
<path opacity="0.1" d="M234.569 79.3922C234.476 79.6046 234.672 79.4644 234.565 79.6828L233.566 80.0248L233.118 80.2395L232.299 80.0818L232.87 78.0301L232.977 74.1166L232.585 71.7229L234.761 70.1271C234.761 70.1271 237.096 73.65 234.569 79.3922Z" fill="black"/>
<path d="M249.602 71.9889C249.602 71.9889 240.541 76.4723 236.867 77.1562C233.192 77.8401 233.513 81.7535 233.513 81.7535L254.097 78.334C254.097 78.334 253.384 74.8005 249.602 71.9889Z" fill="#D0CDE1"/>
<path d="M232.121 71.229C232.121 71.229 233.69 75.2944 231.942 80.3477L233.976 81.3356L234.761 80.3477L234.778 80.2528L232.62 80.0438C232.62 80.0438 234.404 74.9525 232.941 71.419C232.941 71.419 232.62 70.6591 232.121 71.229Z" fill="#6C63FF"/>
<path d="M262.052 101.359C254.025 99.4591 246.551 103.392 246.551 103.392L246.531 103.372L243.555 100.542L231.925 80.3288L234.761 80.3477C242.645 75.3324 253.739 76.0163 253.739 76.0163C258.52 81.7916 262.052 101.359 262.052 101.359Z" fill="#3F3D56"/>
<path opacity="0.1" d="M246.531 103.372L243.555 100.542L231.925 80.3287L234.761 80.3477C234.761 80.3477 246.065 96.2482 246.531 103.372Z" fill="black"/>
<path d="M247.838 87.6008C250.268 86.807 251.853 84.8299 251.38 83.1849C250.906 81.5399 248.552 80.8498 246.122 81.6435C243.692 82.4373 242.107 84.4144 242.58 86.0594C243.054 87.7044 245.408 88.3945 247.838 87.6008Z" fill="#D0CDE1"/>
</g>
<path d="M310.961 17.8039C304.071 10.8203 298.705 13.5715 292.829 17.2277C290.664 18.5752 286.43 17.2277 286.43 17.2277C282.226 17.7324 282.6 22.3446 282.697 22.4142C283.165 25.9652 302.372 31.8697 313.627 24.143C316.824 20.7385 316.736 19.2498 310.961 17.8039Z" fill="#F2F2F2" fill-opacity="0.15"/>
<path d="M54.0976 12.6892C43.1111 1.51537 34.5552 5.91737 25.1857 11.7672C21.7323 13.9233 14.9815 11.7672 14.9815 11.7672C8.27683 12.5748 8.87453 19.9543 9.0291 20.0656C9.77521 25.7473 40.4014 35.1944 58.3493 22.8318C63.4473 17.3845 63.3074 15.0026 54.0976 12.6892Z" fill="#F2F2F2" fill-opacity="0.15"/>
<path d="M204.531 25.6093C198.945 20.0224 194.594 22.2234 189.83 25.1483C188.074 26.2264 184.642 25.1483 184.642 25.1483C181.233 25.5521 181.537 29.2418 181.615 29.2975C181.994 32.1383 197.567 36.8619 206.693 30.6806C209.285 27.957 209.214 26.766 204.531 25.6093Z" fill="#F2F2F2" fill-opacity="0.15"/>
<path d="M161.856 7.01994C156.642 1.89858 152.582 3.91617 148.135 6.59734C146.496 7.58557 143.293 6.59734 143.293 6.59734C140.111 6.96749 140.394 10.3497 140.468 10.4008C140.822 13.0049 155.356 17.3348 163.874 11.6686C166.293 9.17193 166.227 8.08023 161.856 7.01994Z" fill="#F2F2F2" fill-opacity="0.15"/>
<path fill-rule="evenodd" clip-rule="evenodd" d="M313.436 131H0.000488281V121.797C9.41855 118.184 21.3125 115.809 35.4341 116.763C47.5586 117.582 60.221 119.822 73.1699 122.113C102.855 127.364 134.045 132.882 163.714 122.155C191.443 112.13 262.998 121.643 313.436 131Z" fill="#00599E" fill-opacity="0.7"/>
<path fill-rule="evenodd" clip-rule="evenodd" d="M249.446 131H80.2632C103.022 121.589 131.94 111.522 152.052 106.919C179.412 100.658 189.28 103.548 231.89 123.294C236.804 125.571 242.752 128.176 249.446 131Z" fill="#024F8A"/>
<path fill-rule="evenodd" clip-rule="evenodd" d="M273.484 131C270.987 130.38 268.507 129.765 266.054 129.157C238.491 122.321 214.436 116.356 209.015 114.625C202.117 112.423 192.924 117.632 182.14 123.744C177.885 126.155 173.382 128.708 168.674 131H273.484ZM108.537 131H0.000488281V126.662C6.90111 123.86 15.0428 121.493 23.3238 119.923C40.9298 116.583 77.1694 122.913 108.537 131Z" fill="#015697"/>
</g>
<defs>
<clipPath id="clip0">
<rect width="322.941" height="131" rx="10" fill="white"/>
</clipPath>
<clipPath id="clip1">
<rect width="83.4265" height="95.3603" fill="white" transform="translate(223.368 14.4485)"/>
</clipPath>
</defs>
</svg>
